{"glyphs":{"0":{"ha":1001,"x_min":65,"x_max":937,"o":"m 937 557 q 926 662 937 610 q 772 925 891 834 q 575 991 685 991 q 373 926 479 991 q 203 795 268 861 q 65 426 65 652 q 157 124 65 252 q 427 -18 258 -18 q 682 86 536 -18 q 937 557 937 267 m 806 481 q 711 144 806 256 q 563 73 652 73 q 362 142 449 73 q 290 218 321 174 q 238 311 259 261 q 207 414 217 361 q 196 544 196 468 q 214 695 196 621 q 450 899 266 899 q 640 833 555 899 q 710 761 679 802 q 762 673 741 720 q 794 575 783 626 q 806 481 806 524 "},"1":{"ha":511,"x_min":34,"x_max":500,"o":"m 304 251 l 304 739 l 34 576 l 34 555 l 173 636 l 173 138 q 157 64 173 94 q 107 3 140 33 l 106 0 l 369 0 q 500 92 388 0 l 250 92 q 304 251 304 146 "},"2":{"ha":743,"x_min":35,"x_max":682,"o":"m 233 654 q 208 770 208 702 q 235 871 208 838 q 336 905 262 905 q 481 850 417 905 q 549 714 549 794 q 479 528 549 627 q 408 442 448 484 q 327 362 368 401 q 246 288 286 323 q 177 219 207 252 q 35 0 92 126 l 546 0 q 589 23 560 0 q 633 61 602 33 q 677 92 665 90 l 170 92 q 238 222 171 134 q 305 303 268 262 q 378 381 342 344 q 445 448 414 418 q 502 501 476 477 q 561 559 528 524 q 682 806 682 685 q 609 947 682 893 q 534 984 576 971 q 445 996 493 996 q 342 969 397 996 q 294 941 317 957 q 213 884 271 924 q 126 808 156 844 q 89 746 102 781 q 75 661 75 711 q 101 562 75 610 l 233 654 "},"3":{"ha":747,"x_min":12,"x_max":699,"o":"m 94 646 l 550 646 q 492 563 522 606 q 431 479 462 521 q 367 398 400 437 q 309 334 334 359 q 266 295 283 309 q 233 265 249 281 q 471 210 393 260 q 543 129 517 181 q 569 -16 569 77 q 503 -156 569 -109 q 439 -184 474 -176 q 367 -191 404 -191 q 288 -184 331 -191 q 237 -175 262 -181 q 190 -159 211 -169 q 156 -137 170 -150 q 143 -105 143 -124 q 162 -64 143 -87 q 71 -119 100 -98 q 12 -198 12 -163 q 58 -251 12 -230 q 127 -273 79 -260 q 235 -285 176 -285 q 442 -231 330 -285 q 593 -132 502 -202 q 699 83 699 -50 q 606 298 699 233 q 366 357 529 351 q 456 442 414 397 q 684 739 549 541 l 226 739 q 94 646 207 739 "},"4":{"ha":922,"x_min":1,"x_max":913,"o":"m 661 231 l 661 241 q 913 386 789 265 q 871 357 896 369 q 715 325 802 325 l 661 325 l 661 977 l 629 956 q 602 938 617 947 q 571 920 586 929 q 545 903 557 911 q 521 872 534 894 q 489 815 509 850 q 448 745 470 780 q 1 233 340 570 q 199 233 102 233 l 529 233 l 529 214 q 521 69 529 97 q 457 0 509 26 l 681 0 q 712 14 693 0 q 768 59 731 28 q 812 92 804 91 l 591 92 q 661 231 661 152 m 529 326 l 136 326 q 186 372 157 342 q 213 395 207 390 q 529 756 405 574 l 529 326 "},"5":{"ha":752,"x_min":45,"x_max":729,"o":"m 213 -30 q 135 -81 194 -49 q 85 -117 104 -97 q 45 -184 45 -157 q 90 -223 45 -204 q 132 -237 109 -231 q 178 -248 156 -243 q 219 -254 201 -252 q 269 -256 237 -256 q 351 -240 300 -256 q 614 -61 490 -194 q 688 131 688 19 q 621 313 688 248 q 438 378 555 378 q 209 342 280 378 q 244 646 237 471 l 597 646 q 729 739 618 646 l 246 739 l 114 646 q 74 238 110 374 q 132 254 103 245 q 191 271 161 263 q 250 284 220 279 q 325 289 279 289 q 418 271 371 289 q 558 29 558 215 q 491 -117 558 -56 q 381 -165 438 -165 q 315 -157 361 -165 q 267 -147 292 -153 q 223 -133 243 -141 q 191 -114 203 -124 q 178 -84 178 -103 q 213 -30 178 -64 "},"6":{"ha":873,"x_min":64,"x_max":812,"o":"m 677 851 q 665 822 677 837 q 726 868 680 839 q 763 892 745 881 q 793 909 782 903 q 808 945 808 929 q 641 1000 808 1000 q 315 878 475 1000 q 153 705 204 793 q 64 366 64 549 q 184 49 64 159 q 382 -26 267 -26 q 570 28 479 -26 q 734 159 676 94 q 791 245 769 199 q 812 355 812 292 q 768 483 812 418 q 720 538 748 513 q 660 582 692 564 q 592 610 627 600 q 520 620 557 620 q 438 604 483 620 q 200 450 311 556 l 200 469 q 259 753 197 625 q 480 910 334 910 q 677 851 677 910 m 679 243 q 637 121 679 171 q 510 66 590 66 q 315 142 395 66 q 214 331 240 214 q 277 468 233 414 q 334 514 301 496 q 422 532 366 532 q 543 487 479 532 q 597 438 572 467 q 641 378 623 410 q 669 311 659 346 q 679 243 679 276 "},"7":{"ha":665,"x_min":11,"x_max":663,"o":"m 663 739 l 142 739 q 76 699 129 739 q 37 667 55 682 q 11 646 18 652 l 532 646 q 480 492 505 572 q 432 334 456 413 q 380 177 407 254 q 316 14 353 99 q 218 -140 278 -72 q 153 -204 189 -174 q 93 -252 117 -234 q 64 -274 69 -271 q 54 -280 59 -277 q 43 -287 49 -283 l 45 -292 q 281 -119 159 -247 q 381 1 336 -61 q 448 110 426 64 q 506 259 470 157 q 541 360 523 307 q 587 503 558 414 q 663 739 616 592 "},"8":{"ha":819,"x_min":77,"x_max":755,"o":"m 259 490 q 77 221 77 361 q 150 44 77 114 q 230 -7 184 12 q 342 -25 276 -25 q 488 7 408 -25 q 568 51 529 23 q 646 108 608 79 q 755 287 755 190 q 668 441 755 366 q 531 522 625 478 q 594 581 560 547 q 723 817 723 711 q 660 948 723 896 q 595 984 631 971 q 520 996 558 996 q 438 982 481 996 q 197 817 294 937 q 130 656 130 734 q 259 490 130 547 m 511 531 q 403 583 437 564 q 350 617 375 599 q 304 658 324 635 q 273 708 285 681 q 262 767 262 734 q 269 824 262 799 q 385 903 288 903 q 528 857 468 903 q 593 726 593 808 q 511 531 593 626 m 279 481 q 347 453 312 467 q 543 346 477 399 q 620 189 620 282 q 607 125 620 147 q 471 67 572 67 q 288 132 362 67 q 211 308 211 199 q 279 481 211 414 "},"9":{"ha":869,"x_min":57,"x_max":805,"o":"m 204 -70 q 76 -157 177 -101 q 62 -193 62 -177 q 228 -248 62 -248 q 556 -125 393 -248 q 716 47 665 -43 q 805 383 805 200 q 726 651 805 543 q 627 739 687 705 q 483 772 568 772 q 294 713 397 772 q 128 570 194 656 q 57 383 57 475 q 149 190 57 276 q 243 128 191 151 q 341 105 295 105 q 432 122 387 105 q 669 275 557 168 q 643 73 668 157 q 606 -18 629 24 q 549 -92 583 -60 q 468 -141 515 -123 q 377 -159 422 -159 q 301 -156 332 -159 q 263 -150 282 -154 q 228 -139 243 -146 q 202 -123 212 -132 q 193 -99 193 -113 q 204 -70 193 -85 m 658 420 q 606 269 658 334 q 482 198 551 198 q 343 239 411 198 q 282 285 311 258 q 234 343 254 311 q 202 410 214 374 q 191 485 191 445 q 197 562 191 525 q 351 679 219 679 q 563 605 473 679 q 632 518 606 569 q 658 420 658 468 "}," ":{"ha":339,"x_min":0,"x_max":0,"o":""},"!":{"ha":371,"x_min":60,"x_max":281,"o":"m 232 994 q 210 987 223 994 q 60 882 136 949 l 60 873 q 104 906 96 906 q 125 868 125 906 l 127 229 q 195 269 132 237 q 227 294 226 286 q 242 593 236 468 q 256 847 249 718 q 260 930 260 914 q 232 994 260 994 m 281 72 l 211 185 l 79 93 l 150 -20 l 281 72 "},"\"":{"ha":474,"x_min":46,"x_max":421,"o":"m 393 994 q 353 985 374 994 q 250 907 293 962 q 288 854 273 907 q 299 801 295 830 q 307 745 304 772 q 312 696 310 718 q 315 665 313 675 q 352 718 328 684 q 387 780 376 752 q 421 930 421 868 q 393 994 421 994 m 189 994 q 150 985 170 994 q 46 907 90 962 q 85 854 69 907 q 96 801 92 830 q 103 745 100 772 q 108 696 106 718 q 111 665 110 675 q 149 718 125 684 q 184 780 173 752 q 218 930 218 868 q 189 994 218 994 "},"#":{"ha":728,"x_min":38,"x_max":686,"o":"m 686 511 l 528 511 q 575 742 552 618 q 540 718 572 737 q 509 700 526 709 q 479 682 493 691 q 455 665 465 673 q 443 647 446 656 q 438 627 440 638 q 433 597 437 615 q 426 557 430 580 q 416 511 421 534 l 355 511 q 401 742 386 657 q 365 718 398 737 q 335 700 351 709 q 305 682 319 691 q 281 665 291 673 q 269 647 271 656 q 264 627 266 638 q 259 593 263 615 q 243 511 255 570 l 210 511 q 166 487 197 511 q 120 449 153 477 q 78 418 87 420 l 224 418 q 193 283 203 327 l 170 283 q 125 259 156 283 q 81 221 113 250 q 38 191 49 192 l 172 191 q 109 -54 141 64 q 144 -30 112 -47 q 174 -13 158 -22 q 203 5 189 -4 q 227 22 217 14 q 244 51 237 31 q 261 114 252 72 q 280 191 271 155 l 345 191 q 314 68 330 129 q 283 -54 298 7 q 319 -30 286 -47 q 348 -13 332 -22 q 378 5 364 -4 q 405 24 392 14 q 437 121 417 35 q 454 191 444 150 l 514 191 q 601 250 533 191 q 646 283 636 281 l 476 283 q 492 351 484 317 q 508 418 500 385 l 554 418 q 641 477 573 418 q 686 511 676 509 m 397 418 q 381 351 389 385 q 366 283 374 317 l 303 283 q 319 351 311 317 q 335 418 328 384 l 397 418 "},"$":{"ha":724,"x_min":49,"x_max":663,"o":"m 197 290 q 144 255 186 280 q 110 235 127 245 q 71 207 94 224 q 49 166 49 189 q 88 122 49 140 q 236 94 149 94 l 304 94 l 304 -68 q 336 -47 311 -61 l 363 -32 q 435 24 380 -22 l 435 138 q 576 235 512 174 q 632 304 610 267 q 655 376 655 340 q 638 436 655 411 q 588 486 622 460 q 472 532 554 512 q 385 550 438 540 q 296 582 331 560 q 231 692 231 622 q 271 768 231 747 q 307 779 288 777 q 346 781 327 781 q 407 774 365 781 q 530 715 530 754 q 511 671 530 699 q 551 698 519 682 q 579 713 569 707 q 663 807 663 766 q 621 844 663 827 q 558 862 603 852 q 472 872 513 872 l 454 872 q 435 873 445 872 l 435 1035 q 408 1015 429 1027 q 345 979 387 1002 q 304 943 304 955 l 304 829 q 217 770 257 802 q 98 596 98 678 q 165 490 98 529 q 233 460 195 472 q 311 439 271 449 q 389 418 351 429 q 523 288 523 379 q 469 197 523 218 q 419 188 446 189 q 367 187 392 187 q 302 193 342 187 q 259 201 281 196 q 219 214 237 206 q 190 232 201 222 q 179 259 179 243 q 197 290 179 275 "},"%":{"ha":1316,"x_min":51,"x_max":1269,"o":"m 1269 355 q 1215 522 1269 451 q 1150 579 1188 557 q 1067 602 1112 602 q 977 580 1023 602 q 938 558 957 570 q 899 532 919 545 q 854 503 878 518 q 812 469 831 488 q 716 249 716 370 q 730 146 716 192 q 836 9 758 52 q 1028 18 924 -40 q 1074 47 1052 31 q 1116 78 1096 64 q 1269 355 1269 192 m 947 1110 q 915 1088 934 1099 q 877 1066 896 1077 q 841 1044 858 1055 q 819 1023 825 1032 q 812 1005 812 1013 q 810 991 812 997 q 652 555 769 793 q 214 -132 463 167 q 278 -88 232 -115 q 319 -63 295 -79 q 376 -8 343 -48 q 781 639 582 241 q 947 1110 903 884 m 604 743 q 562 895 604 830 q 509 950 541 927 q 446 982 477 974 q 386 990 415 990 q 312 968 357 990 q 273 946 292 958 q 233 920 254 934 q 189 891 213 907 q 146 857 165 876 q 51 628 51 760 q 104 454 51 526 q 171 397 131 419 q 250 376 211 376 q 328 389 289 376 q 450 467 366 403 q 604 743 604 581 m 1137 282 q 1083 80 1137 153 q 1057 78 1069 78 q 902 161 962 78 q 847 332 847 235 q 898 509 847 437 q 916 511 907 511 q 1077 438 1015 511 q 1122 361 1106 405 q 1137 282 1137 317 m 472 671 q 418 469 472 542 q 391 466 404 466 q 237 549 298 466 q 182 720 182 623 q 233 897 182 825 q 251 899 241 899 q 412 827 349 899 q 456 750 441 793 q 472 671 472 706 "},"&":{"ha":1472,"x_min":70,"x_max":1458,"o":"m 960 300 q 876 376 919 336 q 591 574 715 526 q 766 821 766 688 q 707 949 766 900 q 570 997 650 997 q 416 943 507 997 q 265 818 328 892 q 197 675 197 739 q 339 515 197 549 q 282 481 312 500 q 70 216 70 353 q 178 38 70 100 q 392 -15 268 -15 q 866 173 608 -15 q 924 117 893 148 q 1138 -8 1047 -8 q 1285 35 1208 -8 q 1396 117 1325 57 q 1333 94 1366 101 q 1170 114 1237 71 q 1131 144 1149 127 q 1090 180 1112 161 q 1041 225 1068 200 q 989 272 1013 250 q 1176 639 1176 448 q 1175 665 1176 652 q 1318 671 1268 659 q 1390 712 1346 678 q 1422 740 1401 720 q 1458 765 1443 760 q 1343 756 1411 756 q 1180 772 1306 756 q 1067 779 1116 779 q 919 745 985 779 q 802 659 885 727 q 939 688 857 688 q 1015 682 976 688 q 1044 547 1044 618 q 960 300 1044 424 m 631 734 q 560 586 631 600 q 491 604 535 594 q 407 632 446 614 q 330 762 330 668 q 386 899 330 831 q 445 905 414 905 q 579 856 528 905 q 618 798 604 831 q 631 734 631 764 m 857 182 q 693 104 798 134 q 600 85 647 92 q 495 78 553 78 q 370 103 437 78 q 201 316 201 166 q 271 450 201 410 q 342 476 302 467 q 423 495 382 485 q 656 363 534 461 q 759 273 709 320 q 857 182 808 227 "},"'":{"ha":271,"x_min":46,"x_max":218,"o":"m 189 994 q 150 985 170 994 q 46 907 90 962 q 85 854 69 907 q 96 801 92 830 q 103 745 100 772 q 108 696 106 718 q 111 665 110 675 q 149 718 125 684 q 184 780 173 752 q 218 930 218 868 q 189 994 218 994 "},"(":{"ha":637,"x_min":47,"x_max":650,"o":"m 650 -115 q 396 -9 511 -114 q 235 232 295 83 q 178 507 178 371 q 259 850 178 695 q 415 1023 326 976 q 465 1044 438 1035 q 520 1063 491 1053 q 602 1122 549 1074 q 648 1155 628 1147 q 426 1050 543 1125 q 323 978 372 1017 q 229 896 274 939 q 148 796 183 854 q 47 413 47 629 q 104 138 47 279 q 267 -103 165 -11 q 519 -208 380 -208 q 549 -195 532 -208 q 601 -152 566 -182 q 650 -115 635 -121 "},")":{"ha":645,"x_min":-4,"x_max":599,"o":"m 553 755 q 497 879 530 819 q 420 989 463 939 q 323 1078 376 1039 q 214 1136 270 1116 q 127 1156 159 1156 q 61 1114 109 1156 q 26 1082 43 1097 q -4 1063 9 1067 q 132 1025 68 1058 q 410 684 312 930 q 467 404 467 539 q 127 -115 467 -20 q 42 -174 99 -123 q -4 -208 12 -201 q 300 -71 161 -174 q 422 42 367 -21 q 516 178 477 105 q 577 331 555 250 q 599 486 599 412 q 587 626 599 560 q 564 724 576 692 q 553 755 553 755 "},"*":{"ha":677,"x_min":69,"x_max":616,"o":"m 616 743 q 579 806 616 758 q 549 840 564 825 q 529 854 534 854 q 519 849 524 854 q 372 713 479 789 q 397 829 385 755 q 407 893 404 862 q 410 947 410 925 q 407 974 410 970 q 399 978 405 977 q 384 979 394 979 q 343 974 374 979 q 313 968 328 972 q 284 960 297 964 q 262 951 271 956 q 254 942 254 946 q 258 930 254 938 q 322 701 304 851 q 236 766 276 732 q 195 806 214 786 q 168 838 176 826 q 155 850 159 850 q 94 787 141 850 q 69 741 69 753 q 83 726 69 734 q 148 698 96 718 q 278 663 199 678 q 214 621 260 653 q 82 507 82 530 q 155 448 82 492 q 211 425 193 423 q 220 441 216 425 q 237 486 224 457 q 338 647 279 572 q 374 567 342 627 q 406 510 389 539 q 439 456 423 480 q 469 416 456 431 q 492 400 483 400 q 524 427 500 400 q 545 452 534 438 q 564 479 555 466 q 578 504 573 493 q 584 520 584 515 q 557 535 584 526 q 378 662 477 572 q 455 679 408 667 q 616 743 616 720 "},"+":{"ha":699,"x_min":42,"x_max":663,"o":"m 663 417 l 418 417 l 418 662 q 382 637 416 656 q 351 619 368 629 q 311 594 334 609 q 287 570 287 578 l 287 417 l 174 417 q 87 357 155 417 q 42 325 52 326 l 287 325 l 287 80 q 323 104 288 83 q 378 136 338 113 q 418 172 418 160 l 418 325 l 532 325 q 618 385 550 325 q 663 417 654 416 "},",":{"ha":328,"x_min":58,"x_max":263,"o":"m 127 -190 q 155 -172 132 -185 q 191 -146 179 -159 q 252 -47 233 -104 q 263 9 262 -20 q 257 65 264 38 q 228 127 250 92 q 209 156 218 142 q 190 185 199 171 q 153 164 189 186 q 121 142 138 154 q 79 113 104 131 q 58 93 55 96 l 129 -20 q 140 -14 129 -21 q 152 -6 144 -12 q 167 -1 159 -1 q 186 -10 176 -1 q 197 -46 197 -18 q 127 -190 197 -120 "},"-":{"ha":800,"x_min":94,"x_max":715,"o":"m 715 417 l 225 417 q 194 403 213 417 q 138 357 174 389 q 94 325 102 326 l 583 325 q 670 385 602 325 q 715 417 706 416 "},".":{"ha":319,"x_min":57,"x_max":260,"o":"m 260 72 l 189 185 l 57 93 l 128 -20 l 260 72 "},"/":{"ha":629,"x_min":43,"x_max":576,"o":"m 576 976 q 491 924 562 961 q 445 884 455 905 q 388 722 412 786 q 43 0 241 323 q 123 50 58 16 q 174 92 156 67 q 576 976 431 525 "},":":{"ha":375,"x_min":87,"x_max":290,"o":"m 290 506 l 219 619 l 87 527 l 159 414 l 290 506 m 290 72 l 219 185 l 87 93 l 159 -20 l 290 72 "},";":{"ha":378,"x_min":87,"x_max":293,"o":"m 290 506 l 219 619 l 87 527 l 159 414 l 290 506 m 226 -46 q 157 -190 226 -121 q 189 -169 170 -177 q 230 -137 207 -160 q 273 -71 254 -115 q 293 7 293 -28 q 287 64 293 43 q 248 138 281 85 q 219 185 235 159 l 87 93 l 159 -20 l 178 -8 q 197 -1 189 -1 q 226 -46 226 -1 "},"<":{"ha":617,"x_min":39,"x_max":556,"o":"m 556 92 q 377 245 471 175 q 186 385 283 315 q 288 452 235 416 q 556 710 479 580 q 530 689 548 699 q 476 660 513 680 q 425 618 439 640 q 296 478 372 542 q 168 394 254 444 q 39 302 75 319 q 232 147 102 258 q 328 68 279 106 q 400 15 376 31 q 428 -1 425 -1 q 445 12 430 -1 q 485 43 460 24 l 518 68 q 556 92 541 84 "},"=":{"ha":829,"x_min":112,"x_max":720,"o":"m 720 511 l 243 511 q 212 496 231 511 q 156 451 193 482 q 112 418 120 419 l 588 418 q 620 433 600 418 q 675 478 639 447 q 720 511 711 510 m 720 323 l 243 323 q 212 309 231 323 q 156 263 193 295 q 112 231 120 232 l 588 231 q 620 245 600 231 q 675 291 639 260 q 720 323 711 323 "},">":{"ha":621,"x_min":65,"x_max":582,"o":"m 582 408 q 389 563 524 450 q 294 641 342 603 q 220 695 245 680 q 193 711 195 711 q 141 669 191 711 q 65 618 90 628 q 244 465 151 535 q 435 326 338 394 q 333 258 386 294 q 65 0 143 132 q 144 50 76 13 q 197 92 180 68 q 326 232 252 171 q 453 316 367 266 q 582 408 536 385 "},"?":{"ha":707,"x_min":50,"x_max":659,"o":"m 181 749 q 220 868 181 826 q 302 907 256 907 q 460 853 394 907 q 511 789 492 827 q 530 698 530 751 q 496 582 530 645 q 461 527 481 553 q 418 479 441 501 q 368 434 395 458 q 319 384 342 410 q 282 326 297 357 q 268 267 268 295 q 273 220 268 238 q 339 261 273 227 q 405 312 405 295 l 399 351 q 440 461 399 408 q 481 507 458 485 q 529 552 505 529 q 576 598 553 574 q 659 779 659 683 q 597 935 659 871 q 529 982 568 965 q 444 1000 489 1000 q 355 985 399 1000 q 124 835 234 945 q 50 663 50 760 q 75 564 50 612 l 207 656 q 181 749 181 703 m 447 72 l 376 185 l 244 93 l 315 -20 l 447 72 "},"@":{"ha":1031,"x_min":69,"x_max":979,"o":"m 630 536 q 467 485 547 536 q 342 360 391 436 q 290 202 290 281 q 329 95 290 134 q 434 56 368 56 q 589 123 499 56 q 642 44 581 44 q 730 66 687 44 q 931 300 853 130 q 979 488 979 404 q 914 689 979 606 q 836 754 883 730 q 718 779 789 779 q 538 734 647 779 q 260 564 389 673 q 69 170 69 404 q 141 -61 69 37 q 349 -170 220 -170 q 392 -146 364 -170 q 418 -125 405 -136 q 452 -97 432 -113 q 481 -77 471 -80 q 270 34 347 -73 q 220 144 236 83 q 203 263 203 206 q 216 370 203 320 q 311 551 243 473 q 583 682 425 682 q 774 603 700 682 q 846 408 846 527 q 770 137 846 267 q 732 149 745 136 q 720 187 720 163 q 745 373 720 261 q 767 465 755 419 q 788 557 779 511 q 739 524 785 550 q 706 504 714 510 q 630 536 674 536 m 514 441 q 593 391 569 437 q 616 280 616 345 q 604 206 616 254 q 570 150 588 150 q 462 188 500 150 q 424 298 424 227 q 428 346 424 321 q 514 441 445 446 "},"A":{"ha":951,"x_min":-23,"x_max":985,"o":"m 110 92 q 127 111 110 91 q 140 125 134 119 q 289 359 212 206 q 331 359 307 359 q 579 397 522 357 q 638 202 605 317 q 695 35 671 87 q 823 3 728 -39 q 852 18 838 9 q 879 34 865 26 q 941 80 892 43 q 985 113 960 95 q 944 94 970 104 q 895 83 918 83 q 831 115 851 83 q 817 149 823 130 q 778 265 811 168 q 680 580 745 363 q 621 779 650 680 q 562 976 591 879 l 526 976 q 339 958 397 976 q 182 855 276 937 q 378 884 252 884 l 430 884 q 422 867 425 877 q 405 820 420 858 q 359 715 389 782 q 301 583 330 648 q 245 452 272 517 q 188 324 218 387 q 124 199 159 260 q 61 100 90 138 q 14 42 32 61 q -13 12 -3 22 q -22 1 -22 2 q -23 0 -22 1 l 3 0 q 118 6 76 0 q 174 19 146 10 q 228 43 201 27 q 301 94 256 58 q 347 129 322 110 q 289 105 330 118 q 164 92 249 92 q 110 92 115 92 m 342 454 q 332 452 340 454 q 469 757 401 603 q 562 454 530 553 q 476 451 518 451 l 342 454 "},"B":{"ha":838,"x_min":20,"x_max":776,"o":"m 338 976 q 152 976 245 976 q 20 884 128 976 l 170 884 l 170 140 q 160 61 170 90 q 124 0 154 42 l 277 0 q 380 5 321 0 q 570 77 462 12 q 647 132 610 102 q 712 197 684 163 q 759 269 741 231 q 776 352 776 306 q 757 439 776 399 q 541 574 704 555 q 601 616 570 594 q 713 796 713 699 q 642 943 713 901 q 473 977 587 977 l 338 976 m 301 573 l 301 887 q 349 888 324 888 q 583 701 583 888 q 579 654 583 675 q 500 573 568 594 q 408 575 471 575 q 301 573 344 574 m 301 235 l 301 484 q 460 469 398 484 q 531 446 498 461 q 589 404 564 430 q 627 341 613 378 q 642 252 642 304 q 622 168 642 199 q 564 114 602 136 q 447 92 526 92 l 258 92 q 301 235 301 157 "},"C":{"ha":943,"x_min":60,"x_max":924,"o":"m 848 990 q 726 1002 798 1002 q 470 951 597 1002 q 351 890 408 926 q 244 810 294 854 q 157 712 195 765 q 89 592 118 659 q 60 427 60 524 q 161 109 60 237 q 453 -29 271 -29 q 862 119 665 -29 q 879 134 872 127 q 889 143 884 138 q 591 66 713 66 q 296 207 408 66 q 191 529 191 338 q 296 815 191 717 q 420 886 347 863 q 593 909 493 909 q 747 888 694 909 q 773 879 770 880 q 780 876 777 878 q 787 872 784 874 q 790 866 790 869 q 772 848 790 862 q 762 838 763 840 q 812 868 770 840 q 850 894 830 880 q 886 921 869 908 q 913 943 902 933 q 924 959 924 954 q 910 971 924 965 q 872 984 897 977 q 848 990 848 990 "},"D":{"ha":1053,"x_min":20,"x_max":989,"o":"m 989 532 q 824 875 989 760 q 453 977 678 977 l 152 976 q 66 918 134 976 q 20 884 31 886 l 170 884 l 170 193 q 118 0 170 54 l 336 0 q 644 61 498 0 q 779 136 716 91 q 889 241 842 181 q 962 374 935 300 q 989 532 989 448 m 834 280 q 484 90 766 90 l 258 90 q 281 125 272 111 q 301 230 301 161 l 301 884 q 595 845 478 884 q 705 790 656 824 q 788 706 754 756 q 840 589 822 656 q 858 434 858 522 q 834 280 858 345 "},"E":{"ha":768,"x_min":38,"x_max":750,"o":"m 38 884 l 165 884 l 165 536 q 70 463 129 510 l 165 463 l 165 162 q 104 0 165 83 l 536 0 q 602 26 553 0 q 750 127 715 86 l 708 110 q 628 92 667 92 l 251 92 q 274 118 265 99 q 297 241 297 166 l 297 463 l 494 463 q 564 508 511 463 q 602 539 585 525 q 626 555 618 554 l 297 555 l 297 884 l 598 884 q 630 898 610 884 q 686 944 649 912 q 730 976 722 975 l 170 976 q 38 884 151 976 "},"F":{"ha":733,"x_min":39,"x_max":763,"o":"m 39 884 l 166 884 l 166 496 q 71 422 119 460 l 166 422 l 166 162 q 105 0 166 95 l 335 0 q 379 23 349 0 q 406 45 392 33 q 438 74 419 57 q 467 92 458 91 l 250 92 q 298 263 298 141 l 298 422 l 495 422 q 539 446 509 422 q 566 467 552 456 q 599 496 579 479 q 627 515 618 513 l 298 515 l 298 884 l 631 884 q 675 907 644 884 q 701 929 688 917 q 734 958 715 941 q 763 976 753 975 l 171 976 q 39 884 150 976 "},"G":{"ha":1110,"x_min":62,"x_max":1084,"o":"m 1084 515 l 807 515 q 701 444 789 515 l 675 422 l 870 422 l 870 127 q 818 98 850 109 q 616 68 730 68 q 309 201 427 68 q 195 519 195 328 q 281 818 195 718 q 395 897 326 869 q 577 924 465 924 q 788 899 689 924 q 881 849 881 876 q 869 831 881 842 q 861 824 865 827 q 856 819 857 821 q 903 848 867 823 q 941 873 921 859 q 977 899 960 886 q 1004 921 994 911 q 1015 937 1015 931 q 1008 947 1015 942 q 932 980 978 966 q 701 1015 815 1015 q 366 918 534 1015 q 117 677 198 821 q 62 432 62 583 q 180 103 62 228 q 322 8 239 43 q 520 -26 405 -26 q 779 45 635 -26 q 1000 215 922 115 l 1000 450 q 1049 490 1020 468 q 1084 515 1078 513 "},"H":{"ha":1129,"x_min":40,"x_max":1105,"o":"m 1105 92 l 888 92 q 930 176 920 139 q 936 263 936 199 l 936 884 l 972 884 q 1017 907 986 884 q 1063 947 1030 918 q 1105 976 1097 976 l 809 976 q 703 905 789 976 l 677 884 l 804 884 l 804 555 l 299 555 l 299 884 l 336 884 q 380 907 349 884 q 427 947 393 918 q 468 976 460 976 l 172 976 q 66 905 153 976 l 40 884 l 167 884 l 167 162 q 164 108 167 132 q 106 0 156 39 l 336 0 q 380 24 349 0 q 426 62 393 34 q 468 92 458 91 l 250 92 q 293 176 283 140 q 299 263 299 199 l 299 463 l 804 463 l 804 162 q 789 64 804 102 q 743 0 779 40 l 972 0 q 1061 60 991 0 q 1105 92 1097 92 "},"I":{"ha":497,"x_min":40,"x_max":481,"o":"m 40 884 l 167 884 l 167 162 q 151 61 167 101 q 106 0 142 36 l 336 0 q 380 24 349 0 q 426 62 393 34 q 468 92 458 91 l 250 92 q 299 263 299 146 l 299 884 l 349 884 q 393 907 363 884 q 439 946 407 918 q 481 976 472 975 l 172 976 q 40 884 153 976 "},"J":{"ha":481,"x_min":-316,"x_max":479,"o":"m 479 976 l 170 976 q 104 936 156 976 q 65 905 84 920 q 39 884 47 890 l 165 884 l 165 58 q 157 -79 165 -23 q 141 -152 152 -117 q 112 -215 131 -187 q 66 -260 94 -243 q -2 -277 38 -277 q -98 -254 -43 -277 q -154 -224 -121 -243 q -187 -196 -187 -204 q -152 -155 -187 -179 q -206 -190 -172 -165 q -316 -286 -316 -266 q -278 -326 -316 -304 q -217 -352 -261 -335 q -138 -368 -173 -368 q 87 -285 -18 -368 q 240 -86 182 -209 q 297 151 297 33 l 297 884 l 348 884 q 378 897 360 884 q 432 942 397 911 q 479 976 467 972 "},"K":{"ha":1105,"x_min":41,"x_max":1164,"o":"m 758 884 l 858 884 q 902 906 873 884 q 946 945 914 916 q 990 976 977 973 l 721 976 q 674 951 713 976 q 589 884 636 926 l 708 884 q 313 493 641 807 q 465 349 392 418 q 602 220 538 280 q 669 160 637 189 q 724 111 701 131 q 783 58 747 90 q 863 7 819 26 q 1004 16 921 -18 q 1046 36 1026 25 q 1097 67 1067 47 q 1164 123 1126 87 q 1062 91 1093 91 q 937 137 1002 91 q 454 589 854 196 q 758 884 673 793 m 107 0 l 337 0 q 381 24 351 0 q 427 62 395 34 q 469 92 460 91 l 252 92 q 294 176 285 140 q 300 263 300 199 l 300 884 l 351 884 q 382 898 363 884 q 438 944 401 912 q 482 976 475 975 l 173 976 q 68 905 154 976 l 41 884 l 168 884 l 168 236 q 107 0 168 63 "},"L":{"ha":760,"x_min":42,"x_max":755,"o":"m 301 208 l 301 884 l 351 884 q 396 907 365 884 q 442 947 409 918 q 483 976 475 976 l 174 976 q 68 905 155 976 l 42 884 l 169 884 l 169 162 q 150 61 169 104 q 101 0 139 37 l 541 0 q 582 5 562 0 q 755 129 674 29 q 713 105 741 118 q 630 92 685 92 l 248 92 q 301 208 301 133 "},"M":{"ha":1503,"x_min":40,"x_max":1501,"o":"m 1335 248 q 1333 318 1335 283 q 1323 526 1330 353 q 1299 996 1316 700 q 1268 977 1288 988 q 1168 904 1181 925 q 937 488 1092 774 q 785 214 849 328 q 683 411 750 295 q 626 506 655 458 q 568 600 597 553 l 456 788 q 342 976 399 882 l 172 976 q 157 970 167 976 q 40 884 90 933 l 210 884 q 140 172 170 320 q 75 0 114 39 l 298 0 q 429 92 317 0 l 212 92 q 247 154 233 114 q 276 272 261 193 q 321 701 292 350 l 429 521 q 500 403 464 462 q 593 245 537 344 q 687 33 650 147 q 754 77 696 39 q 819 125 812 115 q 874 227 848 176 q 945 355 900 277 q 1052 546 989 433 q 1175 764 1115 659 q 1183 614 1177 728 q 1186 538 1184 576 q 1190 442 1187 500 q 1197 304 1193 385 q 1202 137 1202 224 q 1168 0 1202 50 l 1369 0 q 1436 43 1388 0 q 1472 74 1455 59 q 1501 92 1489 89 l 1301 92 q 1335 248 1335 147 "},"N":{"ha":1237,"x_min":16,"x_max":1219,"o":"m 950 233 q 838 369 895 302 q 653 586 781 435 q 344 930 526 738 q 368 953 350 936 q 403 976 385 970 l 147 976 q 81 936 133 976 q 42 905 61 920 q 16 884 24 890 l 170 884 q 184 437 184 614 q 182 221 184 260 q 115 0 174 84 l 338 0 q 404 39 353 0 q 443 71 425 56 q 470 92 462 86 l 251 92 q 282 139 265 109 q 313 396 313 197 l 313 730 q 859 90 616 393 q 917 -23 909 28 q 975 20 956 4 q 1004 46 991 33 q 1023 70 1018 60 q 1031 104 1027 81 q 1034 124 1033 115 q 1037 140 1036 134 q 1090 668 1090 418 l 1093 819 q 1093 852 1093 836 q 1091 884 1093 868 q 1125 902 1108 888 q 1174 943 1143 916 q 1219 976 1204 971 l 964 976 q 898 936 949 976 q 859 905 878 920 q 832 884 840 890 l 953 884 q 966 575 966 736 q 950 233 966 413 "},"O":{"ha":1191,"x_min":60,"x_max":1135,"o":"m 1135 566 q 998 883 1135 758 q 679 1006 865 1006 q 374 924 517 1006 q 149 708 233 843 q 60 406 60 567 q 186 69 60 193 q 524 -55 311 -55 q 821 39 675 -55 q 946 144 888 83 q 1045 274 1004 204 q 1111 419 1087 343 q 1135 566 1135 496 m 1002 457 q 924 157 1002 264 q 659 35 834 35 q 314 167 439 35 q 223 320 254 231 q 193 509 193 409 q 210 681 193 608 q 541 911 267 911 q 876 784 750 911 q 969 637 937 723 q 1002 457 1002 551 "},"P":{"ha":830,"x_min":18,"x_max":807,"o":"m 546 409 q 723 538 666 477 q 807 734 807 628 q 715 917 807 851 q 513 976 633 976 l 149 976 q 18 884 125 976 l 174 884 l 174 182 q 159 72 174 112 q 100 0 147 43 l 315 0 q 384 45 333 0 q 420 77 404 62 q 447 94 437 92 l 233 92 q 300 216 287 141 q 306 285 307 249 q 306 359 306 321 q 361 357 325 357 q 448 370 397 357 q 546 409 499 383 m 675 646 q 633 496 675 541 q 577 461 612 473 q 497 450 542 450 q 375 469 453 450 q 306 482 331 480 l 306 884 l 335 884 q 675 646 675 884 "},"Q":{"ha":1196,"x_min":61,"x_max":1496,"o":"m 747 22 q 1032 -155 918 -94 q 1202 -200 1116 -200 q 1286 -190 1246 -200 q 1496 -70 1407 -159 q 1345 -107 1405 -107 q 1101 -32 1237 -107 q 987 39 1042 1 q 883 112 932 77 q 983 205 937 154 q 1135 573 1135 374 q 998 883 1135 757 q 680 1006 865 1006 q 380 926 525 1006 q 152 718 239 849 q 61 423 61 580 q 190 93 61 216 q 336 3 251 35 q 534 -28 422 -28 q 747 22 646 -28 m 1003 476 q 921 182 1003 292 q 659 62 831 62 q 323 187 452 62 q 227 332 261 248 q 193 514 193 417 q 212 684 193 612 q 541 911 269 911 q 869 789 739 911 q 967 649 932 731 q 1003 476 1003 568 "},"R":{"ha":972,"x_min":23,"x_max":1017,"o":"m 483 976 l 155 976 q 49 905 136 976 l 23 884 l 170 884 l 170 162 q 115 0 170 60 l 338 0 q 382 23 352 0 q 409 45 395 33 q 442 74 422 57 q 470 92 461 91 l 253 92 q 296 174 287 141 q 301 263 301 197 l 301 400 q 438 367 388 400 q 492 320 465 349 q 557 249 519 292 l 739 49 q 754 31 747 40 q 814 -3 784 -3 q 1017 112 935 -3 q 951 90 983 90 q 917 100 938 90 q 850 163 897 111 l 674 358 q 644 391 659 375 q 540 469 593 448 q 712 587 646 520 q 796 772 796 673 q 483 976 796 976 m 665 673 q 586 526 665 567 q 407 495 528 495 l 301 495 l 301 884 l 385 884 q 574 837 500 884 q 640 772 614 812 q 665 673 665 732 "},"S":{"ha":785,"x_min":37,"x_max":740,"o":"m 535 819 q 590 851 549 825 q 626 876 608 863 q 659 903 644 890 q 683 929 673 917 q 692 949 692 941 q 682 964 692 958 q 631 983 671 970 q 526 995 591 995 q 349 948 452 995 q 168 831 239 899 q 84 679 84 753 q 167 536 84 590 q 251 495 203 512 q 348 462 298 478 q 446 429 398 446 q 612 233 612 365 q 547 109 612 149 q 480 84 517 92 q 404 77 443 77 q 318 85 366 77 q 266 96 292 89 q 219 113 240 102 q 185 138 198 123 q 172 173 172 153 q 192 216 172 194 q 37 79 37 132 q 84 23 37 47 q 154 -2 104 12 q 263 -16 203 -16 q 467 26 361 -16 q 656 144 585 72 q 740 326 740 228 q 658 483 740 427 q 574 524 621 508 q 477 555 527 541 q 381 585 428 569 q 297 626 334 602 q 238 687 260 650 q 215 786 215 724 q 277 879 215 848 q 336 897 304 892 q 393 902 368 902 q 453 898 418 902 q 489 892 471 896 q 523 883 508 888 q 548 870 538 878 q 558 852 558 863 q 535 819 558 842 "},"T":{"ha":846,"x_min":-12,"x_max":884,"o":"m -12 884 l 342 884 l 342 162 q 326 62 342 102 q 275 0 316 37 l 511 0 q 556 24 525 0 q 602 62 569 34 q 644 92 634 91 l 420 92 q 447 127 435 104 q 475 263 475 181 l 475 884 l 753 884 q 798 907 766 884 q 843 946 810 918 q 884 976 876 975 l 119 976 q -12 884 100 976 "},"U":{"ha":1169,"x_min":34,"x_max":1172,"o":"m 1172 977 l 863 977 q 797 937 849 977 q 757 906 776 921 q 730 884 739 890 l 858 884 l 858 170 q 799 134 833 151 q 585 75 681 75 q 364 146 445 75 q 280 360 280 222 l 280 884 l 316 884 q 348 897 330 884 q 398 941 365 910 q 448 977 432 972 l 165 977 q 100 937 152 977 q 60 906 79 921 q 34 884 42 890 l 149 884 l 149 321 q 214 73 149 156 q 307 5 249 29 q 460 -18 364 -18 q 683 38 557 -18 q 858 146 750 68 q 851 90 857 121 q 804 1 844 58 l 1026 1 q 1058 14 1040 1 q 1108 57 1075 26 q 1158 93 1142 88 l 935 93 q 959 129 949 108 q 989 264 989 189 l 989 884 l 1040 884 q 1105 926 1059 884 q 1141 958 1124 943 q 1172 977 1158 972 "},"V":{"ha":998,"x_min":-47,"x_max":938,"o":"m 524 132 q 505 216 516 167 q 480 323 494 265 q 449 445 466 381 q 413 572 432 509 q 373 697 394 636 q 330 809 353 758 q 284 901 308 861 q 241 958 260 941 q 208 981 222 975 q 162 987 193 987 q 72 954 131 987 q 23 923 47 939 q -10 898 0 906 q -24 887 -20 890 q -37 875 -28 883 q -47 867 -46 867 q -13 881 -36 869 q 35 893 11 893 q 118 853 79 893 q 150 812 136 836 q 177 765 165 789 q 198 718 189 741 q 215 676 208 694 q 326 321 273 529 q 369 141 349 231 q 412 -40 389 50 q 474 3 420 -29 q 513 28 494 16 q 551 61 532 40 q 591 118 569 81 q 668 248 612 155 q 758 404 724 341 q 824 530 792 465 q 882 659 857 595 q 922 780 907 722 q 938 884 938 838 q 915 957 938 930 q 849 983 892 983 q 774 964 805 983 q 749 944 760 955 q 716 914 737 933 q 669 884 696 895 q 719 892 694 892 q 760 883 743 892 q 806 779 806 857 q 524 132 806 602 "},"W":{"ha":1469,"x_min":-52,"x_max":1418,"o":"m 629 883 q 686 730 686 829 q 652 551 686 661 q 617 452 637 503 q 577 354 597 402 q 536 262 556 307 q 500 182 516 218 q 457 362 477 283 q 427 477 444 417 q 393 597 411 537 q 344 745 374 657 q 269 906 313 833 q 159 987 218 987 q 106 975 136 987 q -52 871 14 939 q 21 893 -14 893 q 157 772 90 893 q 216 644 189 716 q 269 492 244 571 q 313 332 293 412 q 350 181 334 252 q 378 54 366 110 q 398 -33 391 -2 q 464 11 406 -27 q 530 59 522 48 q 565 124 549 87 q 652 316 581 161 q 770 600 722 471 q 868 286 823 455 q 910 127 890 207 q 950 -33 930 47 q 979 -14 958 -27 q 1021 14 999 -1 q 1060 41 1042 28 q 1088 68 1078 54 q 1120 130 1099 83 q 1137 173 1128 151 q 1215 349 1146 195 q 1418 878 1418 797 q 1392 955 1418 924 q 1320 989 1364 989 q 1227 949 1278 989 q 1187 916 1207 933 q 1145 887 1167 899 q 1199 899 1169 899 q 1234 887 1217 899 q 1284 774 1284 852 q 1236 600 1284 724 q 1187 484 1214 544 q 1134 367 1160 423 q 1086 263 1108 311 q 1050 184 1063 215 q 1031 256 1044 211 q 758 976 857 905 q 629 883 654 900 "},"X":{"ha":1118,"x_min":-9,"x_max":1107,"o":"m 888 884 l 975 884 q 1006 898 987 884 q 1059 942 1024 911 q 1107 977 1095 973 l 798 977 q 766 963 785 977 q 713 919 748 949 q 665 884 677 888 l 832 884 q 583 594 719 762 q 512 690 541 651 q 465 754 483 729 q 428 804 446 779 q 393 851 410 828 q 363 890 376 873 q 339 923 351 906 q 314 955 328 941 q 283 979 300 970 q 247 989 267 989 q 209 983 228 989 q 23 868 124 960 q 108 895 76 895 q 197 845 151 895 q 231 801 216 825 q 260 760 247 778 q 290 720 274 742 q 324 675 307 699 q 371 611 341 652 q 472 474 401 571 l -9 1 l 241 1 q 270 13 253 1 q 322 56 287 24 q 373 93 358 87 l 127 93 l 489 451 q 643 237 592 306 q 718 135 667 203 q 802 28 768 66 q 888 -14 839 -14 q 1101 109 977 -14 q 1006 77 1036 77 q 962 93 988 77 q 602 568 926 113 q 888 884 770 747 "},"Y":{"ha":852,"x_min":-65,"x_max":802,"o":"m 507 240 l 507 422 q 556 483 526 447 q 618 562 585 519 q 683 651 650 605 q 742 743 716 698 q 785 829 768 788 q 802 908 802 871 q 777 969 802 945 q 708 993 751 993 q 613 949 664 993 q 577 916 594 932 q 546 896 561 900 q 583 901 562 901 q 648 872 625 901 q 665 840 660 859 q 671 801 671 822 q 662 751 671 779 q 498 472 627 640 q 437 631 479 541 q 247 937 347 820 q 144 989 202 989 q -65 871 41 989 q 18 904 -14 904 q 132 833 66 904 q 300 572 219 738 q 377 346 377 412 l 377 174 q 309 0 377 71 l 546 0 q 633 59 564 0 q 677 92 669 90 l 460 92 q 507 240 507 161 "},"Z":{"ha":846,"x_min":0,"x_max":827,"o":"m 368 101 q 125 85 246 101 q 311 291 219 164 q 388 406 351 347 q 465 529 425 465 q 548 660 505 592 q 634 797 590 728 q 766 975 718 932 q 646 970 717 970 l 318 981 l 258 981 q 203 976 227 981 q 131 935 180 972 q 93 905 111 920 q 66 883 75 890 q 186 888 115 888 l 514 878 q 633 883 585 878 q 545 774 596 849 q 499 705 522 741 q 454 632 475 668 q 413 564 432 597 q 374 500 393 532 q 326 425 354 469 q 0 0 130 111 l 593 0 q 659 11 625 0 q 827 127 758 42 q 696 92 747 92 l 368 101 "},"[":{"ha":481,"x_min":66,"x_max":495,"o":"m 252 -9 l 252 1061 l 363 1061 q 407 1084 376 1061 q 453 1123 420 1095 q 495 1153 486 1152 l 252 1153 q 210 1133 243 1153 q 121 1061 121 1078 l 121 -31 q 109 -138 121 -94 q 66 -212 98 -181 l 350 -212 q 481 -119 374 -212 l 201 -119 q 252 -9 252 -71 "},"\\":{"ha":642,"x_min":66,"x_max":600,"o":"m 600 92 q 541 193 553 172 q 527 218 533 206 q 515 238 520 230 q 509 249 511 246 q 197 976 325 585 q 164 954 182 966 q 130 929 147 941 q 96 904 113 916 q 66 884 80 892 q 431 62 209 442 q 449 32 442 44 q 462 9 456 19 q 468 0 467 0 q 600 92 475 0 "},"]":{"ha":486,"x_min":-9,"x_max":419,"o":"m 4 1061 l 280 1061 q 233 951 233 990 l 233 -119 l 122 -119 q 78 -142 109 -119 q 33 -181 65 -153 q -9 -212 1 -210 l 233 -212 q 275 -191 242 -212 q 365 -119 365 -137 l 365 978 q 368 1027 365 1004 q 419 1153 375 1089 l 136 1153 q 4 1061 117 1153 "},"^":{"ha":452,"x_min":0,"x_max":451,"o":"m 451 593 l 301 955 q 224 905 288 945 q 170 863 174 875 l 0 500 q 64 541 5 511 q 132 593 122 572 l 211 762 l 319 500 q 355 524 319 503 q 388 543 371 533 q 420 563 406 553 q 444 581 435 573 q 451 593 452 589 "},"_":{"ha":677,"x_min":24,"x_max":646,"o":"m 646 -136 l 156 -136 q 124 -150 144 -136 q 69 -196 105 -164 q 24 -228 33 -227 l 514 -228 q 601 -168 532 -228 q 646 -136 637 -136 "},"`":{"ha":335,"x_min":0,"x_max":335,"o":"m 335 943 q 235 1020 288 969 q 142 1141 182 1072 q 136 1154 136 1150 q 130 1157 135 1157 q 54 1109 125 1157 q 0 1065 0 1072 l 12 1045 q 87 945 46 992 q 193 857 129 899 q 203 850 201 850 q 269 891 215 850 q 309 922 290 907 q 335 943 328 937 "},"a":{"ha":631,"x_min":23,"x_max":614,"o":"m 511 201 l 511 477 q 481 617 511 568 q 435 662 465 645 q 348 679 406 679 q 219 639 290 679 q 110 557 184 619 q 235 585 164 585 q 309 567 277 585 q 359 511 340 549 q 379 366 379 473 l 379 336 q 229 307 288 332 q 95 222 151 274 q 43 161 64 195 q 23 94 23 127 q 35 42 23 61 q 155 -10 68 -10 q 378 75 256 -10 q 380 45 378 60 q 433 -12 383 -12 q 531 28 482 -12 q 570 63 551 45 q 614 92 589 81 q 566 81 589 81 q 539 86 551 81 q 509 153 509 100 l 511 201 m 192 103 q 166 134 176 115 q 157 180 157 153 q 166 235 157 206 q 269 243 210 243 l 379 243 l 379 101 q 294 81 337 81 q 230 86 252 81 q 200 97 208 92 q 192 103 192 103 "},"b":{"ha":763,"x_min":-20,"x_max":713,"o":"m 229 547 l 229 1158 q 152 1111 189 1137 q 81 1062 115 1084 q -20 987 47 1040 q 7 994 -9 989 q 36 998 24 998 q 92 954 77 998 q 98 878 98 935 l 98 205 q 163 44 98 109 q 324 -22 229 -22 q 509 41 415 -22 q 654 193 596 101 q 713 378 713 287 q 658 575 713 496 q 479 666 594 666 q 229 547 366 666 m 576 198 q 420 64 553 64 q 284 113 338 64 q 229 237 229 161 l 229 405 q 262 519 229 469 q 358 575 299 575 q 530 483 469 575 q 570 390 557 441 q 583 288 583 338 q 576 198 583 239 "},"c":{"ha":642,"x_min":49,"x_max":631,"o":"m 486 525 q 532 547 496 525 q 631 635 631 611 q 625 646 631 642 q 477 683 576 683 q 384 666 435 683 q 117 467 218 613 q 49 267 49 366 q 119 68 49 145 q 201 10 153 31 q 300 -11 250 -11 q 392 -1 351 -11 q 608 122 523 30 q 453 81 535 81 q 252 160 323 81 q 200 251 218 198 q 182 384 182 303 q 217 522 182 465 q 270 573 237 554 q 334 593 302 593 q 401 586 366 593 q 435 579 417 583 q 467 569 452 574 q 491 558 481 564 q 500 545 500 552 q 486 525 500 538 "},"d":{"ha":796,"x_min":52,"x_max":781,"o":"m 276 617 q 117 472 177 562 q 52 273 52 377 q 113 69 52 145 q 302 -14 178 -14 q 526 90 387 -14 q 539 16 526 35 q 564 -4 548 3 q 616 -11 580 -11 q 701 22 653 -11 q 742 53 722 36 q 781 85 761 70 q 741 81 761 81 q 670 115 690 81 q 659 188 659 133 l 659 1158 q 409 987 579 1117 q 471 998 450 998 q 500 987 488 998 q 527 890 527 963 l 527 668 q 464 673 500 673 q 376 658 428 673 q 276 617 323 644 m 527 483 l 527 147 q 477 94 527 122 q 425 78 452 78 q 239 164 302 78 q 196 257 210 204 q 182 387 182 309 q 213 516 182 465 q 262 564 231 546 q 346 582 293 582 q 448 557 399 582 q 527 483 496 532 "},"e":{"ha":593,"x_min":50,"x_max":566,"o":"m 566 125 q 415 82 488 82 q 273 126 328 82 q 197 253 218 171 q 321 330 272 296 q 390 381 357 353 q 450 438 424 408 q 492 499 476 468 q 509 568 509 531 q 483 635 509 606 q 414 665 455 665 q 248 600 336 665 q 109 448 165 538 q 50 279 50 355 q 100 84 50 164 q 168 17 127 43 q 256 -9 210 -9 q 335 -4 303 -9 q 566 125 473 22 m 361 397 q 190 286 309 319 q 184 359 184 322 q 287 570 184 570 q 355 536 329 570 q 373 502 367 521 q 379 454 379 482 q 361 397 379 427 "},"f":{"ha":506,"x_min":42,"x_max":666,"o":"m 259 210 l 259 581 l 381 581 q 468 640 400 581 q 513 673 504 672 l 259 673 l 259 755 q 260 833 259 792 q 318 1061 262 983 q 394 1069 347 1069 q 471 1053 416 1069 q 514 1036 495 1046 q 533 1018 533 1027 q 519 996 533 1010 q 604 1043 545 999 q 666 1109 666 1090 q 634 1135 666 1122 q 522 1161 571 1161 q 339 1097 435 1161 q 191 972 236 1029 q 155 910 168 942 q 135 833 142 878 q 127 648 127 789 l 42 581 l 127 581 l 127 140 q 113 54 127 93 q 71 0 104 27 l 284 0 q 350 39 298 0 q 389 71 371 56 q 416 92 408 86 l 216 92 q 259 210 259 142 "},"g":{"ha":659,"x_min":-2,"x_max":700,"o":"m 640 659 l 443 664 q 271 623 359 664 q 121 511 177 578 q 57 349 57 435 q 105 202 57 264 q 163 154 129 172 q 233 135 197 135 q 298 144 269 135 q 260 117 284 133 q 161 5 161 51 q 241 -73 161 -40 q 198 -99 223 -85 q 146 -127 173 -112 q 92 -160 119 -142 q 45 -199 66 -178 q 11 -247 24 -221 q -2 -307 -2 -273 q 45 -369 -2 -342 q 92 -389 66 -381 q 146 -402 119 -397 q 199 -410 174 -408 q 261 -412 225 -412 q 350 -402 296 -412 q 623 -288 517 -371 q 692 -185 692 -233 q 626 -91 692 -138 q 560 -53 597 -70 q 488 -21 524 -35 q 422 5 453 -6 q 367 25 391 16 q 319 53 342 35 q 299 75 307 62 q 292 106 292 88 q 314 142 292 124 q 371 182 337 161 q 446 229 406 203 q 520 289 486 254 q 577 369 554 323 q 600 473 600 414 q 574 581 600 531 q 647 616 604 588 q 700 673 699 650 q 640 659 677 659 m 207 545 q 304 571 225 571 q 426 516 384 571 q 468 364 468 460 q 450 277 468 314 q 375 226 427 226 q 234 290 284 226 q 200 358 211 319 q 189 458 189 397 q 198 531 189 518 q 207 545 207 545 m 526 -299 q 480 -314 509 -309 q 419 -319 452 -319 q 321 -305 387 -319 q 134 -226 134 -266 q 184 -131 134 -173 q 271 -84 209 -111 q 466 -155 426 -136 q 532 -196 507 -174 q 557 -240 557 -218 q 550 -275 557 -262 q 534 -294 543 -289 q 526 -299 526 -299 "},"h":{"ha":754,"x_min":-14,"x_max":756,"o":"m 236 148 l 236 353 q 239 420 236 384 q 356 564 251 564 q 464 530 435 564 q 496 391 496 494 l 496 87 q 502 39 496 61 q 524 3 508 18 q 570 -11 541 -11 q 625 -3 600 -11 q 756 92 700 20 q 697 75 718 75 q 671 77 684 75 q 628 176 628 87 l 628 522 q 580 621 628 581 q 531 649 558 639 q 473 659 503 659 q 410 648 442 659 q 236 547 321 621 l 236 1168 q -14 998 69 1063 q 50 1008 21 1008 q 79 997 68 1008 q 104 901 104 973 l 104 127 q 115 41 104 75 q 136 5 123 20 q 180 -11 149 -9 q 237 3 210 -13 q 317 92 290 33 q 275 80 289 80 q 236 148 236 80 "},"i":{"ha":392,"x_min":9,"x_max":394,"o":"m 252 1151 l 121 1059 q 124 982 124 984 q 121 911 124 979 q 231 985 193 958 q 248 999 240 991 q 256 1038 256 1006 l 256 1074 l 252 1151 m 394 83 q 351 79 369 79 q 267 116 286 79 q 258 203 258 134 l 258 682 q 181 635 218 661 q 123 595 144 609 q 72 559 102 581 q 9 512 43 538 q 30 516 20 514 q 50 520 40 518 q 74 522 60 522 q 100 511 88 522 q 127 416 127 490 l 127 95 q 161 0 127 26 q 220 -13 178 -13 q 314 19 265 -13 q 354 50 335 33 q 394 83 374 67 "},"j":{"ha":368,"x_min":-106,"x_max":260,"o":"m 254 1151 l 122 1059 q 124 974 124 1015 q 122 911 124 934 q 137 921 126 913 q 163 937 149 928 q 193 957 178 946 q 222 977 209 967 q 246 995 235 986 q 256 1034 256 1003 l 256 1078 q 254 1151 256 1107 m 41 -254 q -12 -289 30 -264 q -45 -309 -28 -298 q -84 -338 -62 -320 q -106 -376 -106 -355 q -62 -409 -106 -409 q 103 -338 27 -409 q 166 -263 138 -305 q 214 -174 194 -220 q 247 -72 233 -128 q 260 133 260 -15 l 260 682 q 10 512 93 577 q 74 522 50 522 q 104 510 92 522 q 128 410 128 486 l 128 15 q 126 -70 128 -26 q 66 -317 121 -226 l 65 -317 q 38 -309 51 -317 q 25 -284 25 -301 q 41 -254 25 -267 "},"k":{"ha":724,"x_min":-13,"x_max":745,"o":"m 105 907 l 105 83 q 162 -14 105 -14 q 245 23 195 -14 q 284 56 266 39 q 317 85 303 73 q 288 78 302 78 q 240 121 250 78 q 236 160 236 140 q 237 195 237 180 l 237 265 q 433 58 354 138 q 494 5 471 20 q 518 -7 505 -2 q 552 -12 530 -12 q 602 -1 573 -12 q 745 112 686 32 q 651 85 699 85 q 571 143 632 85 q 515 199 545 168 q 459 258 486 229 q 413 309 433 286 q 382 342 392 332 q 498 431 459 392 q 545 489 526 458 q 564 558 564 520 q 535 627 564 596 q 503 648 522 640 q 460 656 484 656 q 406 646 437 656 q 237 546 313 614 l 237 1168 q 109 1089 178 1137 q 46 1043 77 1066 q -13 998 15 1019 q 45 1008 28 1008 q 105 907 105 1008 m 332 564 q 403 538 373 564 q 425 509 416 526 q 433 464 433 492 q 412 408 433 437 q 237 284 361 334 l 237 319 q 332 564 237 564 "},"l":{"ha":374,"x_min":-8,"x_max":377,"o":"m 377 84 q 335 80 357 80 q 250 117 267 80 q 242 158 242 134 q 241 210 241 182 l 241 1145 q 185 1117 222 1135 q 115 1081 149 1099 q -8 1000 90 1067 q 5 1001 -3 1000 q 34 1002 12 1002 q 68 990 50 1002 q 110 869 110 962 l 110 144 q 111 90 110 117 q 193 -14 118 -14 q 292 18 244 -14 q 334 49 314 31 q 377 84 355 66 "},"m":{"ha":1061,"x_min":-6,"x_max":1066,"o":"m 599 543 q 567 623 595 590 q 534 649 553 640 q 490 659 515 659 q 433 646 465 659 q 262 544 351 614 q 254 625 262 604 q 232 653 248 642 q 188 664 217 664 q 115 648 158 664 q 39 591 94 640 q -6 559 12 566 q 52 570 23 570 q 126 528 113 570 q 131 484 132 508 q 130 437 130 460 l 130 46 q 182 -14 130 -14 q 233 2 201 -14 q 342 85 264 18 q 313 78 327 78 q 289 84 298 78 q 262 143 262 100 l 262 353 q 269 437 262 397 q 279 484 273 461 q 297 525 286 507 q 324 553 309 543 q 368 564 340 564 q 417 548 397 564 q 451 499 437 532 q 465 393 465 467 l 465 137 q 473 39 465 63 q 496 4 479 18 q 552 -10 513 -10 q 645 24 592 -10 q 728 92 668 39 q 677 81 704 81 q 609 117 629 81 q 598 186 598 136 l 598 379 q 639 535 598 487 q 665 556 650 548 q 707 564 680 564 q 755 548 734 564 q 789 499 775 532 q 803 393 803 467 l 803 137 q 810 39 803 63 q 834 4 817 18 q 890 -10 850 -10 q 983 24 930 -10 q 1066 92 1006 39 q 1015 81 1042 81 q 945 117 962 81 q 938 197 938 136 l 938 522 q 911 614 938 577 q 828 659 881 659 q 599 543 749 659 "},"n":{"ha":775,"x_min":-7,"x_max":781,"o":"m 129 46 q 180 -14 129 -14 q 266 23 212 -14 q 307 56 288 39 q 341 85 327 73 q 311 78 326 78 q 288 84 297 78 q 261 143 261 100 l 261 353 q 263 418 261 382 q 370 564 271 564 q 438 551 410 564 q 517 391 517 512 l 517 137 q 525 40 517 64 q 548 4 532 18 q 605 -10 565 -10 q 697 24 644 -10 q 781 92 720 39 q 729 81 756 81 q 661 117 682 81 q 650 186 650 136 l 650 522 q 604 621 650 580 q 498 659 559 659 q 261 547 388 659 q 252 627 261 606 q 230 654 245 644 q 184 664 215 664 q 113 648 153 664 q 39 591 91 640 q -7 559 10 566 q 59 570 22 570 q 117 543 96 570 q 130 482 130 528 l 129 46 "},"o":{"ha":747,"x_min":50,"x_max":699,"o":"m 625 586 q 543 649 591 625 q 442 672 495 672 q 342 655 389 672 q 107 459 193 604 q 50 269 50 363 q 125 75 50 157 q 313 -12 202 -12 q 499 50 407 -12 q 579 118 543 79 q 642 202 615 157 q 684 295 669 247 q 699 395 699 344 q 679 496 699 446 q 643 566 660 547 q 625 586 625 586 m 304 581 q 493 489 420 581 q 566 267 566 397 q 544 148 566 199 q 444 79 513 79 q 250 178 325 79 q 198 278 216 222 q 181 399 181 334 q 205 515 181 464 q 304 581 237 581 "},"p":{"ha":768,"x_min":-3,"x_max":715,"o":"m -3 561 q 63 574 27 574 q 119 546 99 574 q 130 486 130 531 l 130 -266 q 83 -412 130 -351 l 248 -412 q 319 -367 264 -412 q 355 -335 338 -350 q 380 -320 372 -321 l 214 -320 q 262 -201 262 -275 l 262 -7 q 314 -10 279 -10 q 400 4 350 -10 q 582 107 502 35 q 715 376 715 228 q 661 577 715 502 q 586 639 631 616 q 481 662 540 662 q 359 627 422 662 q 262 562 330 612 q 260 600 262 581 q 191 667 252 667 q -3 561 117 667 m 262 179 l 262 508 q 353 570 299 570 q 533 484 473 570 q 572 392 560 444 q 585 291 585 340 q 579 203 585 241 q 438 80 563 80 q 262 179 319 80 "},"q":{"ha":799,"x_min":50,"x_max":781,"o":"m 663 -191 l 663 425 q 706 600 663 530 q 743 644 724 627 q 776 673 762 661 q 741 658 761 667 q 627 574 658 618 q 458 663 557 663 q 264 606 359 663 q 112 461 171 549 q 50 274 50 368 q 131 73 50 157 q 220 11 169 34 q 324 -12 271 -12 q 437 21 378 -12 q 530 84 463 35 l 530 -266 q 477 -412 530 -333 l 648 -412 q 719 -367 665 -412 q 756 -335 739 -350 q 781 -320 773 -321 l 627 -320 q 663 -191 663 -275 m 530 104 q 506 89 519 97 q 459 80 492 80 q 258 167 338 80 q 202 261 222 207 q 182 367 182 315 q 186 454 182 419 q 320 570 202 570 q 534 420 458 570 q 530 287 530 394 q 530 104 530 180 "},"r":{"ha":600,"x_min":-6,"x_max":658,"o":"m 658 659 q 585 631 612 631 q 558 638 572 631 q 515 660 544 645 q 459 675 486 675 q 354 635 414 675 q 306 599 329 618 q 262 566 282 581 q 249 635 262 612 q 226 656 241 648 q 185 664 212 664 q 115 648 158 664 q 39 591 94 640 q -6 559 12 566 q 52 570 23 570 q 126 528 113 570 q 131 484 132 508 q 130 437 130 460 l 130 46 q 149 4 130 21 q 195 -14 168 -14 q 287 24 248 -14 q 316 56 303 39 q 342 85 329 73 q 313 78 327 78 q 289 84 298 78 q 262 143 262 100 l 262 403 q 281 533 262 483 q 301 569 289 556 q 333 582 313 582 q 410 553 353 582 q 459 538 440 538 q 658 659 576 538 "},"s":{"ha":565,"x_min":34,"x_max":524,"o":"m 347 526 q 394 562 369 546 q 434 587 419 578 q 457 602 449 597 q 473 612 465 606 q 486 625 481 618 q 492 640 492 631 q 468 660 492 648 q 391 671 444 671 q 238 623 339 671 q 125 542 179 593 q 62 429 62 481 q 114 338 62 373 q 167 312 137 323 q 228 291 197 301 q 288 269 258 280 q 341 241 318 258 q 378 202 364 225 q 393 144 393 180 q 374 93 393 108 q 314 77 355 77 q 228 88 273 77 q 183 107 202 95 q 164 136 164 119 q 176 166 164 153 q 140 139 164 152 q 93 113 117 127 q 52 83 69 99 q 34 48 34 67 q 51 16 34 28 q 175 -16 98 -16 q 320 19 239 -16 q 461 110 408 56 q 524 239 524 173 q 472 343 524 305 q 419 372 449 361 q 358 392 389 382 q 298 410 328 401 q 244 434 268 420 q 207 469 221 448 q 193 522 193 490 q 212 568 193 555 q 233 576 220 574 q 268 578 245 578 q 317 573 291 578 q 347 564 334 570 q 360 547 360 557 q 347 526 360 536 "},"t":{"ha":463,"x_min":32,"x_max":469,"o":"m 32 588 l 120 588 l 120 165 q 146 43 120 90 q 186 3 161 18 q 255 -13 210 -13 q 338 4 299 -13 q 454 100 412 37 q 418 84 439 93 q 365 75 396 75 q 324 80 346 75 q 252 224 252 100 l 252 588 l 338 588 q 425 648 356 588 q 469 680 460 680 l 252 680 l 252 846 q 221 825 250 842 q 199 812 210 819 q 172 793 188 806 q 120 753 157 779 l 120 657 l 32 588 "},"u":{"ha":793,"x_min":-7,"x_max":803,"o":"m 454 562 q 485 568 470 568 q 510 561 500 568 q 534 492 534 542 l 534 134 q 513 117 525 127 q 420 79 465 79 q 289 130 328 79 q 253 273 253 176 q 254 526 254 526 q 254 571 254 571 q 180 665 254 665 q 127 655 153 665 q -7 562 76 635 q 41 572 18 572 q 110 530 91 572 q 120 450 120 509 l 120 221 q 155 54 120 115 q 272 -14 195 -14 q 534 98 387 -14 q 537 58 535 78 q 608 -11 546 -11 q 724 33 673 -11 q 763 68 745 51 q 803 94 781 85 q 745 83 774 83 q 684 103 702 83 q 665 164 665 123 l 665 595 q 614 660 665 660 q 454 562 564 660 "},"v":{"ha":725,"x_min":-12,"x_max":690,"o":"m 690 593 q 641 656 690 656 q 547 614 591 656 q 511 582 529 598 q 471 556 494 565 q 511 564 494 564 q 558 503 558 564 q 543 411 558 460 q 409 132 505 283 q 384 228 402 158 q 332 404 366 298 q 180 657 251 657 q -12 545 83 657 q 43 563 19 563 q 121 506 86 563 q 146 456 136 482 q 182 367 157 431 q 238 190 208 302 q 296 -36 268 78 q 328 -12 296 -33 q 356 5 340 -4 q 385 23 371 14 q 410 40 399 33 q 430 59 421 48 q 451 89 439 70 q 475 125 463 107 q 690 593 690 443 "},"w":{"ha":1039,"x_min":-6,"x_max":997,"o":"m 433 576 q 470 475 470 536 q 440 327 470 413 q 412 255 427 290 q 385 189 397 220 q 344 339 363 273 q 314 435 330 386 q 280 528 298 484 q 245 604 263 571 q 210 650 227 636 q 170 664 193 664 q 127 653 153 664 q -6 557 56 623 q 35 571 14 571 q 125 492 80 571 q 164 409 146 456 q 199 311 182 362 q 228 208 215 260 q 252 109 241 155 q 271 27 263 63 q 283 -30 278 -9 q 324 -3 295 -21 q 354 17 338 7 q 382 37 369 28 q 404 53 395 46 q 419 70 412 60 q 435 100 426 80 q 479 190 444 120 q 542 330 514 260 q 641 -30 586 202 q 657 -19 646 -26 q 683 -2 669 -12 q 711 17 696 7 q 739 36 726 27 q 761 52 752 45 q 777 68 770 59 q 793 94 784 77 q 851 187 803 110 q 933 335 899 264 q 979 450 961 392 q 997 553 997 508 q 981 627 997 599 q 959 650 972 641 q 921 660 945 660 q 846 619 897 660 q 806 586 825 603 q 768 560 786 569 q 800 569 784 569 q 852 526 834 569 q 862 489 859 509 q 865 445 865 469 q 847 360 865 420 q 750 155 829 300 q 641 512 695 376 q 613 583 620 565 q 596 620 606 601 q 578 654 587 640 q 562 669 568 669 q 526 648 555 669 q 499 628 513 640 q 472 607 485 617 q 448 588 458 597 q 433 576 437 580 "},"x":{"ha":739,"x_min":-6,"x_max":747,"o":"m 600 581 l 614 581 q 649 598 619 581 q 747 673 678 614 l 565 673 q 532 657 560 673 q 433 581 503 642 l 531 581 q 406 407 475 497 q 384 442 399 418 q 351 494 370 465 q 313 553 333 522 q 275 609 293 583 q 237 660 256 635 q 200 684 218 684 q 24 577 161 684 q 62 590 41 590 q 126 545 92 590 q 152 507 140 527 q 183 455 163 487 q 236 374 204 423 q 301 274 269 325 q 282 253 296 269 q 250 217 269 237 q 184 144 232 197 q 125 92 136 92 q 73 66 100 92 q 51 44 62 56 q 30 25 39 33 q 12 12 20 18 q -6 0 3 6 l 151 0 q 195 23 166 0 q 239 61 208 33 q 283 92 271 90 l 168 92 q 325 237 256 160 q 398 124 361 181 q 477 15 435 66 q 530 -13 500 -13 q 635 16 586 -13 q 710 97 688 47 q 661 77 684 77 q 631 89 647 77 q 586 136 615 100 q 516 236 557 171 q 433 366 475 302 q 600 581 518 468 "},"y":{"ha":772,"x_min":-4,"x_max":669,"o":"m 537 483 l 537 144 q 487 98 519 117 q 422 80 456 80 q 290 132 331 80 q 256 274 256 178 l 256 555 q 245 631 256 606 q 222 656 237 646 q 181 666 208 666 q 130 656 155 666 q -4 563 77 635 q 44 572 19 572 q 123 435 123 572 l 123 163 q 158 38 123 83 q 275 -12 197 -12 q 537 103 386 -12 q 529 -66 534 -16 q 513 -159 524 -113 q 481 -241 502 -205 q 427 -299 460 -277 q 352 -321 394 -321 q 270 -309 309 -321 q 234 -291 250 -302 q 218 -263 218 -279 q 235 -234 218 -248 q 183 -269 224 -243 q 150 -289 167 -278 q 119 -311 133 -300 q 97 -333 106 -322 q 88 -358 88 -345 q 102 -382 88 -371 q 208 -412 141 -412 q 351 -385 287 -412 q 557 -205 479 -332 q 669 205 669 -22 l 669 605 q 656 645 669 629 q 621 661 644 661 q 566 645 599 661 q 457 563 534 629 q 488 570 472 570 q 537 483 537 570 "},"z":{"ha":617,"x_min":5,"x_max":601,"o":"m 376 92 l 153 92 q 222 168 190 123 q 251 211 237 189 q 279 255 265 233 q 359 391 292 277 q 484 583 425 506 q 581 673 526 639 q 500 670 541 670 l 264 677 q 175 673 199 677 q 105 632 156 671 q 66 602 85 617 q 39 581 48 587 q 132 585 86 585 l 369 578 q 435 580 402 578 q 278 382 357 509 q 212 272 243 328 q 160 184 180 216 q 130 136 140 151 q 110 104 121 120 q 89 74 100 88 q 64 44 79 60 q 5 0 49 29 q 174 -1 90 0 q 343 -1 258 -1 q 479 29 428 -1 q 555 82 509 47 q 601 117 576 98 q 480 89 537 89 l 376 92 "},"{":{"ha":591,"x_min":11,"x_max":614,"o":"m 166 652 q 131 512 166 564 q 76 469 118 503 q 11 426 33 435 q 115 358 81 395 q 146 308 135 336 q 158 248 158 280 q 141 127 158 216 q 133 54 133 82 q 214 -134 133 -55 q 300 -192 251 -171 q 392 -212 350 -212 q 456 -208 433 -212 q 522 -167 469 -205 q 559 -137 542 -152 q 587 -115 577 -123 q 535 -120 564 -120 q 343 -39 422 -120 q 287 48 307 -1 q 266 144 266 98 q 281 270 266 190 q 288 347 288 313 q 161 510 288 450 q 221 559 195 535 q 298 749 298 629 l 294 873 q 309 980 294 934 q 355 1058 319 1010 q 423 1067 382 1067 l 481 1063 q 526 1087 495 1063 q 553 1109 539 1097 q 587 1138 567 1121 q 614 1156 606 1154 q 597 1157 606 1157 q 581 1157 589 1157 q 357 1088 466 1157 q 264 1012 307 1055 q 191 918 222 968 q 161 784 161 868 l 166 652 "},"|":{"ha":360,"x_min":114,"x_max":245,"o":"m 245 -119 l 245 1153 q 214 1131 245 1150 q 191 1118 201 1124 q 177 1109 180 1112 q 160 1097 174 1107 q 114 1061 146 1086 l 114 -212 q 146 -190 114 -208 q 245 -119 245 -134 "},"}":{"ha":590,"x_min":-23,"x_max":580,"o":"m 430 435 q 369 385 395 410 q 292 195 292 314 l 297 71 q 294 18 297 41 q 236 -113 287 -47 q 168 -122 208 -122 l 109 -119 q 77 -133 96 -119 q 21 -179 58 -147 q -23 -211 -15 -210 q 25 -213 -7 -213 q 107 -199 58 -213 q 292 -103 211 -172 q 430 160 430 12 l 425 292 q 464 430 425 370 q 580 518 504 490 q 475 587 507 553 q 444 636 456 608 q 433 700 433 665 q 449 814 433 736 q 457 890 457 856 q 376 1079 457 1001 q 290 1136 339 1115 q 200 1157 241 1157 q 132 1152 159 1157 q 4 1060 106 1146 q 56 1065 34 1065 q 247 983 169 1065 q 304 896 283 946 q 325 803 325 846 q 309 671 325 760 q 302 597 302 626 q 430 435 302 496 "},"~":{"ha":736,"x_min":71,"x_max":694,"o":"m 550 505 q 494 519 518 505 q 450 552 471 534 q 408 585 429 570 q 361 600 387 600 q 195 519 292 600 q 71 378 103 443 q 133 418 76 387 q 174 443 155 430 q 205 476 194 456 q 224 506 217 496 q 233 507 227 507 q 326 459 273 507 q 418 412 378 412 q 518 446 460 412 q 694 601 616 503 q 667 579 684 589 q 615 552 650 570 q 559 505 580 533 l 550 505 "},"":{"ha":339,"x_min":0,"x_max":0,"o":""},"":{"ha":374,"x_min":90,"x_max":312,"o":"m 293 881 l 222 994 l 90 901 l 161 789 l 293 881 m 269 68 q 246 106 246 68 l 244 745 q 177 704 240 739 q 145 680 146 687 q 123 289 136 506 q 111 43 111 73 q 140 -20 111 -20 q 208 13 155 -20 q 243 36 224 23 q 274 59 262 50 q 291 73 286 68 q 301 82 296 77 q 312 92 306 86 l 312 100 q 269 68 275 68 "},"":{"ha":639,"x_min":60,"x_max":583,"o":"m 281 52 l 282 -18 l 282 -35 q 313 -14 283 -32 q 335 -1 325 -7 q 356 12 346 5 q 382 32 367 19 q 414 57 398 45 l 414 161 q 518 223 439 172 q 568 264 568 255 q 552 258 566 264 q 420 225 476 225 q 256 289 322 225 q 207 360 225 319 q 189 454 189 401 q 210 553 189 507 q 239 594 220 578 q 278 611 257 611 q 338 606 298 611 q 376 600 356 604 q 412 592 395 596 q 438 582 428 587 q 449 571 449 577 q 439 559 449 565 q 495 583 458 559 q 547 624 511 594 q 583 665 583 654 q 522 693 583 680 q 477 702 498 699 q 443 705 455 705 q 414 703 431 705 l 414 863 q 377 838 412 859 q 322 806 363 830 q 282 770 282 783 l 282 653 q 201 597 241 627 q 60 357 60 494 q 119 199 60 266 q 283 130 184 125 q 282 118 282 130 l 281 52 "},"":{"ha":852,"x_min":44,"x_max":797,"o":"m 797 130 q 673 92 739 92 l 290 92 q 308 116 298 100 q 343 216 343 176 l 343 397 q 513 452 436 405 q 603 526 559 480 q 493 486 539 486 l 342 486 l 342 595 q 342 668 342 627 q 345 782 341 709 q 374 903 348 854 q 463 913 417 913 q 522 908 484 913 q 643 871 634 892 q 631 863 637 867 q 624 855 625 859 l 624 854 q 715 898 665 865 q 753 930 737 913 q 770 956 770 946 q 759 973 770 966 q 706 992 748 979 q 603 1005 664 1005 q 426 964 510 1005 q 294 873 379 941 q 220 732 239 829 q 210 581 210 686 l 210 486 l 176 486 q 44 394 152 486 l 212 394 l 212 159 q 194 62 212 100 q 144 0 184 40 l 583 0 q 797 130 636 0 "},"":{"ha":606,"x_min":0,"x_max":606,"o":"m 220 684 q 130 770 175 727 q 95 749 123 769 q 67 728 82 739 q 39 707 53 718 q 15 689 26 697 q 0 677 5 681 l 95 585 l 96 585 q 53 518 64 553 q 45 482 47 501 q 43 444 43 463 q 48 406 43 425 q 102 311 64 344 l 11 217 q 68 252 22 220 q 100 276 85 264 q 124 294 116 288 q 237 259 177 259 q 372 299 298 259 l 459 214 q 496 235 469 215 q 523 255 509 244 q 551 276 538 266 q 574 294 564 286 q 590 307 585 302 l 498 397 q 563 541 563 469 q 511 670 563 614 l 521 680 q 539 698 529 688 q 561 721 549 709 q 582 742 572 732 q 598 759 592 752 q 606 767 605 766 q 563 742 599 765 q 490 690 526 720 q 372 733 437 733 q 220 684 307 733 m 370 348 q 229 404 283 348 q 175 549 175 460 q 235 644 175 644 q 374 587 316 644 q 431 450 431 530 q 370 348 431 348 "},"":{"ha":975,"x_min":39,"x_max":905,"o":"m 276 335 l 481 335 l 481 269 l 408 269 q 302 198 389 269 l 276 177 l 481 177 q 463 72 481 120 q 413 0 452 41 l 650 0 q 736 58 669 0 q 781 92 772 90 l 564 92 q 604 183 591 128 q 704 208 661 187 q 835 309 787 247 q 726 269 776 269 l 611 269 l 611 342 q 713 365 671 345 q 835 467 796 403 q 726 427 775 427 l 615 427 q 665 490 635 453 q 726 569 694 526 q 790 656 758 611 q 848 746 823 702 q 889 831 873 791 q 905 908 905 871 q 880 969 905 945 q 811 993 855 993 q 718 949 767 993 q 683 917 699 932 q 650 896 667 901 q 686 901 666 901 q 753 872 728 901 q 769 840 764 859 q 774 790 774 822 q 742 692 774 759 q 602 472 688 578 q 497 716 570 583 q 425 837 463 779 q 346 942 387 895 q 250 989 306 989 q 190 979 220 989 q 39 871 104 948 q 121 904 83 904 q 190 876 154 904 q 328 707 258 823 q 463 427 425 543 l 408 427 q 276 335 389 427 "},"":{"ha":370,"x_min":118,"x_max":250,"o":"m 250 618 l 250 1153 q 213 1128 248 1149 q 158 1097 199 1120 q 118 1061 118 1073 l 118 526 q 155 549 120 530 q 209 582 169 558 q 250 618 250 606 m 250 -119 l 250 416 q 213 392 248 412 q 158 359 199 383 q 118 323 118 336 l 118 -212 q 155 -187 120 -208 q 209 -155 169 -179 q 250 -119 250 -132 "},"":{"ha":814,"x_min":52,"x_max":754,"o":"m 699 316 q 751 452 751 383 q 726 563 751 521 q 427 718 657 675 q 300 760 340 734 l 302 761 l 300 760 q 229 894 229 806 q 269 1005 229 970 q 316 1028 288 1021 q 375 1036 345 1036 q 444 1032 406 1036 q 487 1027 465 1031 q 528 1018 509 1023 q 558 1005 546 1013 q 570 984 570 997 q 547 954 570 971 q 597 982 559 956 q 632 1007 614 994 q 666 1034 651 1021 q 691 1060 682 1048 q 701 1081 701 1072 q 692 1098 701 1090 q 541 1129 650 1129 q 361 1082 466 1129 q 264 1029 311 1059 q 179 962 216 998 q 118 886 141 926 q 96 816 96 846 q 100 766 96 786 q 166 667 117 701 q 100 513 100 600 q 132 406 100 453 q 213 336 164 359 q 350 296 261 312 q 421 283 386 290 q 622 106 622 245 q 587 1 622 41 q 551 -28 572 -17 q 509 -45 531 -39 q 466 -53 488 -51 q 417 -55 444 -55 q 340 -47 389 -55 q 284 -37 313 -43 q 234 -20 256 -30 q 197 5 212 -9 q 182 39 182 19 q 205 83 182 58 q 163 58 189 73 q 52 -56 52 -3 q 107 -114 52 -91 q 313 -146 187 -146 q 499 -98 395 -146 q 675 24 606 -50 q 754 190 754 106 q 699 316 754 268 m 621 357 q 487 388 585 369 q 419 403 452 394 q 355 426 385 412 q 299 460 325 439 q 250 519 273 481 q 227 597 227 556 q 231 636 227 616 q 313 618 271 624 q 549 525 463 597 q 621 374 621 463 l 621 357 "},"":{"ha":544,"x_min":0,"x_max":544,"o":"m 544 937 l 441 1032 l 309 940 l 412 844 l 544 937 m 235 937 l 132 1032 l 0 940 l 103 844 l 235 937 "},"":{"ha":1114,"x_min":68,"x_max":1048,"o":"m 924 835 q 638 945 804 945 q 371 873 503 945 q 156 686 236 800 q 68 427 68 562 q 187 136 68 245 q 486 30 303 30 q 747 107 613 30 q 864 194 809 144 q 960 302 919 243 q 1024 426 1000 361 q 1048 566 1048 491 q 1014 712 1048 642 q 924 835 981 783 m 916 475 q 848 222 916 313 q 619 119 770 119 q 324 227 443 119 q 233 351 267 278 q 200 506 200 423 q 216 652 200 589 q 500 850 265 850 q 789 745 668 850 q 881 625 847 695 q 916 475 916 555 m 641 622 q 659 631 647 624 q 786 726 766 699 q 669 749 772 749 q 499 703 591 749 q 345 587 404 656 q 276 430 276 509 q 332 288 276 344 q 474 230 388 230 q 637 261 577 230 q 699 302 669 277 q 768 362 729 328 q 615 325 699 325 q 472 376 532 325 q 425 436 442 401 q 407 531 407 472 q 438 621 407 589 q 532 656 470 652 l 547 656 q 570 655 557 656 q 650 634 650 648 l 641 622 "},"":{"ha":671,"x_min":60,"x_max":599,"o":"m 391 568 q 435 505 391 505 q 526 548 479 505 q 563 580 545 564 q 599 603 580 596 q 562 596 580 596 q 535 610 549 596 q 522 686 522 625 l 522 880 q 489 964 522 935 q 401 994 457 994 q 283 956 346 994 q 189 884 254 939 q 269 901 230 901 q 331 892 309 901 q 371 860 353 884 q 391 768 389 837 q 339 761 373 767 q 247 718 306 755 q 203 688 225 705 q 164 652 181 671 q 136 615 146 634 q 125 577 125 596 q 134 545 125 559 q 220 508 159 508 q 391 568 292 508 m 60 319 l 448 319 q 534 378 466 319 q 579 411 570 410 l 191 411 q 60 319 172 411 m 391 678 l 391 603 q 338 599 368 599 q 285 614 307 599 q 264 635 272 622 q 257 661 257 648 q 258 676 257 673 q 330 689 282 689 q 391 678 355 689 "},"":{"ha":840,"x_min":41,"x_max":762,"o":"m 762 174 q 520 363 677 255 q 760 572 664 462 q 727 553 745 564 q 692 532 709 543 q 658 509 674 521 q 615 467 642 496 q 570 420 588 437 q 537 390 554 404 q 485 353 519 376 q 415 304 451 330 q 380 277 395 288 q 456 221 407 258 q 497 189 477 205 q 551 146 518 172 q 629 81 583 120 q 762 174 754 174 m 422 174 q 181 363 338 255 q 420 572 325 462 q 388 553 406 564 q 353 532 370 543 q 319 509 335 521 q 276 467 303 496 q 231 420 249 437 q 198 390 215 404 q 146 353 180 376 q 76 304 112 330 q 41 277 56 288 q 117 221 68 258 q 158 189 138 205 q 212 146 179 172 q 290 81 244 120 q 422 174 415 174 "},"":{"ha":979,"x_min":77,"x_max":920,"o":"m 77 480 l 785 480 q 747 434 762 458 q 712 273 712 376 l 712 119 l 849 211 q 847 358 847 273 q 864 496 848 444 q 920 572 874 529 l 209 572 q 77 480 190 572 "},"":{"ha":519,"x_min":94,"x_max":433,"o":"m 433 417 l 225 417 q 194 403 213 417 q 138 357 174 389 q 94 325 102 326 l 301 325 q 333 339 313 325 q 388 385 352 353 q 433 417 425 416 "},"":{"ha":1113,"x_min":68,"x_max":1048,"o":"m 1048 552 q 924 834 1048 721 q 638 945 804 945 q 370 873 503 945 q 155 687 237 802 q 68 427 68 563 q 186 138 68 248 q 486 30 301 30 q 747 108 614 30 q 865 195 810 144 q 960 303 920 245 q 1024 426 1001 361 q 1048 552 1048 491 m 623 521 q 554 509 612 509 l 473 509 l 473 648 q 578 631 540 648 q 619 601 603 621 q 635 557 635 582 q 629 527 635 533 q 623 521 623 521 m 329 223 l 422 223 q 467 247 437 223 q 494 268 480 256 q 527 297 507 280 q 555 315 546 314 q 534 315 549 315 q 488 315 519 315 q 452 317 458 315 q 475 410 475 367 q 583 350 527 410 q 626 298 606 325 q 659 257 646 272 q 684 234 672 243 q 726 225 696 225 q 787 240 756 225 q 869 325 845 270 q 840 315 852 315 q 751 395 817 315 q 639 496 681 479 q 718 555 692 530 q 750 593 737 572 q 764 642 764 614 q 745 690 765 669 q 568 740 694 740 l 404 740 q 271 648 384 740 l 342 648 l 342 315 q 321 230 342 256 q 200 509 200 336 q 216 653 200 591 q 500 850 267 850 q 791 745 671 850 q 916 469 916 635 q 845 219 916 311 q 619 119 768 119 q 329 223 454 119 "},"":{"ha":621,"x_min":0,"x_max":621,"o":"m 621 992 l 132 992 q 100 978 119 992 q 44 932 81 964 q 0 899 7 900 l 490 899 q 534 923 504 899 q 560 945 547 933 q 593 974 574 957 q 621 992 612 991 "},"":{"ha":463,"x_min":57,"x_max":417,"o":"m 363 736 q 417 833 417 783 q 382 916 417 884 q 302 949 347 949 q 201 911 260 949 q 152 877 176 895 q 107 841 129 859 q 72 798 86 823 q 57 731 57 772 q 92 661 57 690 q 174 633 126 633 q 235 649 197 633 q 363 736 274 665 m 283 724 q 214 765 242 730 q 195 800 202 781 q 189 834 189 820 q 191 857 189 848 q 258 818 231 851 q 278 784 271 803 q 286 750 286 764 q 283 724 286 735 "},"":{"ha":753,"x_min":64,"x_max":685,"o":"m 685 417 l 440 417 l 440 621 q 404 597 438 618 q 349 565 389 589 q 309 529 309 541 l 309 417 l 195 417 q 109 357 177 417 q 64 325 73 326 l 309 325 l 309 120 q 345 144 310 124 q 376 163 359 153 q 416 188 393 173 q 440 212 440 203 l 440 325 l 553 325 q 640 385 572 325 q 685 417 676 416 m 685 92 l 195 92 q 164 78 183 92 q 108 32 144 64 q 64 0 72 1 l 553 0 q 640 60 572 0 q 685 92 676 92 "},"":{"ha":603,"x_min":66,"x_max":536,"o":"m 522 922 q 372 990 483 990 q 136 860 270 990 q 87 754 87 812 q 102 694 87 723 q 145 720 119 704 q 175 739 159 728 q 204 759 191 749 q 226 775 218 768 q 235 784 235 782 q 232 792 235 786 q 227 808 230 799 q 222 828 224 817 q 220 856 220 838 q 230 898 220 874 q 239 899 234 899 l 248 899 q 353 868 307 899 q 405 777 405 833 q 365 671 405 715 q 323 635 347 651 q 271 602 298 618 q 215 566 243 585 q 160 522 186 547 q 100 451 133 497 q 66 372 66 405 l 400 372 q 432 386 412 372 q 487 432 451 400 q 532 464 524 463 l 196 464 q 250 549 196 504 q 304 591 273 570 q 366 635 334 612 q 429 682 398 657 q 483 734 459 706 q 522 793 507 762 q 536 861 536 825 q 522 922 536 897 "},"":{"ha":608,"x_min":50,"x_max":555,"o":"m 104 884 l 412 884 q 310 772 361 825 q 239 707 277 739 q 198 671 219 690 q 351 645 303 668 q 404 600 383 629 q 424 529 424 570 q 415 467 424 489 q 322 457 374 457 q 247 465 290 457 q 201 480 220 471 q 181 502 181 489 q 193 527 181 515 q 159 503 182 516 q 111 474 135 489 q 68 443 87 459 q 50 415 50 427 q 60 395 50 402 q 204 364 97 364 q 397 427 298 364 q 524 528 492 488 q 546 567 538 546 q 555 625 555 587 q 534 692 555 663 q 474 741 514 721 q 331 764 433 760 q 446 863 390 811 q 545 977 501 914 l 237 977 q 104 884 217 977 "},"":{"ha":327,"x_min":1,"x_max":328,"o":"m 1 846 q 100 913 35 864 q 237 1040 165 962 q 289 1104 269 1076 q 328 1155 309 1131 q 310 1145 318 1149 q 293 1135 302 1140 q 280 1127 284 1131 q 238 1097 276 1124 q 199 1067 200 1069 q 94 935 142 989 q 1 854 55 889 l 1 846 "},"":{"ha":898,"x_min":55,"x_max":865,"o":"m 728 595 q 677 660 728 660 q 516 562 625 660 q 547 568 532 568 q 571 561 562 568 q 596 492 596 542 l 596 136 q 572 110 585 120 q 481 85 542 85 q 350 137 390 85 q 315 279 315 182 l 315 526 l 315 571 q 241 665 315 665 q 189 655 214 665 q 55 562 138 635 q 103 572 79 572 q 178 511 162 572 q 183 457 184 486 q 183 404 183 428 l 183 -392 q 251 -350 184 -388 q 315 -300 315 -312 l 315 17 q 596 103 449 -64 q 599 62 597 83 q 670 -11 606 -11 q 786 33 735 -11 q 824 68 806 51 q 865 94 842 85 q 806 83 836 83 q 746 103 764 83 q 727 164 727 123 l 728 595 "},"":{"ha":948,"x_min":47,"x_max":901,"o":"m 614 434 l 614 -67 q 654 -40 618 -60 q 745 25 745 12 l 745 884 l 770 884 q 901 977 789 884 l 481 977 q 419 975 450 977 q 216 895 322 968 q 47 634 47 780 q 149 429 47 507 q 253 376 195 394 q 347 357 311 357 q 392 357 382 357 q 412 359 402 357 l 412 -67 q 452 -40 416 -60 q 545 25 545 12 l 545 390 q 614 434 570 400 m 545 451 l 545 884 l 614 884 l 614 463 q 545 451 574 453 m 395 885 l 412 885 l 412 460 q 243 543 311 460 q 195 629 212 580 q 178 733 178 677 q 195 819 178 788 q 244 868 212 850 q 365 886 277 886 l 395 885 "},"":{"ha":332,"x_min":66,"x_max":269,"o":"m 269 479 l 198 592 l 66 500 l 138 387 l 269 479 "},"":{"ha":271,"x_min":2,"x_max":259,"o":"m 259 60 q 238 48 259 60 q 222 39 230 43 q 207 29 214 34 q 186 15 200 24 q 161 -5 173 5 l 131 -27 l 2 -161 q 3 -163 -2 -165 q 52 -154 27 -156 q 138 -217 143 -146 q 129 -255 137 -237 q 104 -283 120 -273 q 66 -308 87 -294 q 28 -340 45 -322 q 257 -161 216 -234 q 252 -81 286 -109 q 215 -65 238 -69 q 176 -63 192 -60 q 147 -67 159 -65 q 131 -73 135 -69 q 147 -56 141 -62 q 159 -45 159 -45 q 170 -34 163 -40 q 193 -9 176 -27 q 259 60 210 9 "},"":{"ha":458,"x_min":43,"x_max":442,"o":"m 155 527 q 144 449 155 472 q 127 422 138 436 q 100 386 117 409 l 311 386 q 355 410 324 386 q 401 449 368 420 q 442 478 435 478 l 234 478 q 286 587 286 508 l 286 995 q 213 952 256 977 q 161 921 171 927 q 126 898 154 917 q 78 865 113 888 q 43 836 43 842 l 43 828 q 62 840 45 828 q 80 852 70 846 q 100 867 90 859 l 154 906 l 154 731 l 155 527 "},"":{"ha":665,"x_min":80,"x_max":626,"o":"m 567 933 q 505 974 540 959 q 433 989 469 989 q 359 978 396 989 q 218 895 284 954 q 106 696 106 798 q 167 564 106 616 q 231 528 195 541 q 317 515 267 515 q 445 559 368 515 q 513 606 480 579 q 571 665 546 633 q 611 730 596 696 q 626 801 626 764 q 610 872 626 837 q 581 920 594 907 q 567 933 567 933 m 600 411 l 212 411 q 146 372 197 411 q 107 340 125 355 q 80 319 88 325 l 468 319 q 511 342 482 319 q 556 380 524 352 q 600 411 589 408 m 434 604 q 294 662 350 604 q 239 804 239 720 q 299 899 239 899 q 437 842 379 899 q 494 705 494 786 q 434 604 494 604 "},"":{"ha":838,"x_min":76,"x_max":797,"o":"m 415 479 q 656 290 497 401 q 417 81 510 189 q 449 99 431 90 q 485 121 467 109 q 518 144 503 132 q 547 170 534 157 q 574 200 559 184 q 606 233 589 217 q 639 262 622 248 q 677 290 656 277 q 722 320 699 304 q 797 375 745 337 q 547 572 711 435 q 415 479 420 479 m 76 479 q 317 290 158 401 q 78 81 171 189 q 110 99 92 90 q 145 121 127 109 q 179 144 163 132 q 208 170 195 157 q 235 200 220 184 q 267 233 250 217 q 300 262 283 248 q 338 290 317 277 q 383 320 359 304 q 458 375 406 337 q 208 572 372 435 q 76 479 81 479 "},"":{"ha":1228,"x_min":60,"x_max":1187,"o":"m 1044 229 l 1019 229 l 1019 610 q 985 589 1002 599 q 955 571 967 579 q 921 549 943 563 q 887 518 898 535 q 772 359 833 431 q 706 289 741 323 q 648 235 671 254 q 579 176 625 215 q 528 137 533 137 l 887 136 l 887 87 q 838 0 887 32 l 990 0 q 1026 18 1003 0 q 1044 32 1036 24 q 1058 42 1053 39 q 1079 58 1062 45 q 1122 92 1096 71 l 979 92 q 1015 150 1007 120 q 1072 175 1039 157 q 1184 258 1105 193 q 1187 261 1193 264 q 1084 230 1127 230 l 1044 229 m 879 1110 q 848 1089 868 1100 q 808 1066 829 1078 q 770 1042 787 1054 q 748 1020 753 1029 q 744 1005 744 1010 q 742 991 743 999 q 585 555 699 788 q 146 -132 394 167 q 222 -82 168 -111 q 274 -44 252 -66 q 635 491 419 107 q 879 1110 823 831 m 171 527 q 160 449 171 472 q 143 422 154 436 q 117 386 133 409 l 327 386 q 372 410 340 386 q 418 449 385 420 q 458 478 451 478 l 250 478 q 302 587 302 508 l 302 995 q 230 952 272 977 q 178 921 187 927 q 142 898 170 917 q 94 865 129 888 q 60 836 60 842 l 60 828 q 79 840 61 828 q 96 852 86 846 q 116 867 106 859 l 170 906 l 170 731 l 171 527 m 887 229 l 664 229 q 887 434 791 327 l 887 229 "},"":{"ha":1200,"x_min":48,"x_max":1143,"o":"m 1128 551 q 979 618 1088 618 q 743 488 877 618 q 694 382 694 441 q 709 323 694 351 q 751 349 730 335 q 782 368 766 357 q 811 387 798 378 q 832 403 824 396 q 841 412 841 410 q 839 421 841 414 q 833 436 836 427 q 828 456 831 446 q 826 485 826 467 q 836 526 826 503 q 854 528 846 528 q 960 496 913 528 q 1012 405 1012 463 q 972 300 1012 344 q 930 263 954 279 q 878 230 905 247 q 822 195 850 214 q 767 151 793 176 q 707 80 740 126 q 673 0 673 34 l 1006 0 q 1051 24 1020 0 q 1097 62 1064 34 q 1139 92 1129 91 l 803 92 q 856 178 803 132 q 911 220 880 199 q 973 263 941 241 q 1036 310 1005 286 q 1090 362 1066 334 q 1129 421 1114 390 q 1143 489 1143 453 q 1128 551 1143 526 m 867 1110 q 837 1089 857 1100 q 797 1066 817 1078 q 759 1042 776 1054 q 737 1020 741 1029 q 732 1005 732 1010 q 730 991 732 999 q 572 555 687 788 q 134 -132 382 167 q 211 -82 156 -111 q 262 -44 240 -66 q 623 491 408 107 q 867 1110 812 831 m 159 527 q 149 449 159 472 q 132 422 142 436 q 105 386 121 409 l 315 386 q 359 410 329 386 q 406 449 373 420 q 447 478 439 478 l 239 478 q 291 587 291 508 l 291 995 q 218 952 260 977 q 166 921 176 927 q 130 898 159 917 q 83 865 117 888 q 48 836 48 842 l 48 828 q 66 840 50 828 q 84 852 75 846 q 104 867 94 859 l 159 906 l 159 731 l 159 527 "},"":{"ha":1315,"x_min":59,"x_max":1274,"o":"m 1131 229 l 1105 229 l 1105 610 q 1072 589 1089 599 q 1042 571 1054 579 q 1007 549 1030 563 q 974 518 985 535 q 859 359 920 431 q 793 289 827 323 q 735 235 758 254 q 666 176 711 215 q 615 137 620 137 l 974 136 l 974 87 q 925 0 974 32 l 1077 0 q 1113 18 1090 0 q 1131 32 1122 24 q 1144 42 1140 39 q 1166 58 1149 45 q 1209 92 1183 71 l 1066 92 q 1102 150 1094 120 q 1159 175 1126 157 q 1271 258 1192 193 q 1274 261 1280 264 q 1171 230 1214 230 l 1131 229 m 966 1110 q 936 1089 956 1100 q 895 1066 916 1078 q 857 1042 874 1054 q 835 1020 840 1029 q 830 1005 831 1010 q 829 991 830 999 q 671 555 785 788 q 233 -132 481 167 q 309 -82 254 -111 q 361 -44 338 -66 q 722 491 506 107 q 966 1110 911 833 m 113 884 l 420 884 q 319 772 370 825 q 248 707 286 739 q 207 671 228 690 q 359 645 312 668 q 412 600 392 629 q 433 529 433 570 q 424 467 433 489 q 331 457 383 457 q 255 465 299 457 q 210 480 229 471 q 190 502 190 489 q 202 527 190 515 q 168 503 191 516 q 120 474 144 489 q 77 443 96 459 q 59 415 59 427 q 68 395 59 402 q 213 364 106 364 q 406 427 307 364 q 533 528 501 488 q 555 567 547 546 q 564 625 564 587 q 543 692 564 663 q 483 741 523 721 q 340 764 442 760 q 454 863 399 811 q 553 977 510 914 l 245 977 q 113 884 226 977 m 974 229 l 751 229 q 974 434 878 327 l 974 229 "},"":{"ha":707,"x_min":48,"x_max":657,"o":"m 463 887 l 392 1000 l 260 907 l 331 795 l 463 887 m 526 230 q 487 111 526 153 q 405 73 451 73 q 248 126 313 73 q 196 190 216 153 q 177 282 177 228 q 210 397 177 336 q 245 452 225 427 q 289 500 266 478 q 338 545 311 522 q 387 596 365 569 q 425 653 410 623 q 439 711 439 684 q 434 760 439 739 q 400 735 434 754 q 368 719 385 728 q 327 694 351 709 q 302 667 302 680 l 307 629 q 267 518 307 572 q 225 472 248 494 q 178 428 202 450 q 130 381 153 405 q 48 200 48 296 q 110 45 48 109 q 178 -3 138 14 q 262 -20 218 -20 q 351 -5 307 -20 q 583 144 473 35 q 657 317 657 218 q 632 416 657 368 l 500 324 q 526 230 526 277 "},"":{"ha":951,"x_min":-23,"x_max":985,"o":"m 110 92 q 127 111 110 91 q 140 125 134 119 q 289 359 212 206 q 331 359 307 359 q 579 397 522 357 q 638 202 605 317 q 695 35 671 87 q 823 3 728 -39 q 852 18 838 9 q 879 34 865 26 q 941 80 892 43 q 985 113 960 95 q 944 94 970 104 q 895 83 918 83 q 831 115 851 83 q 817 149 823 130 q 778 265 811 168 q 680 580 745 363 q 621 779 650 680 q 562 976 591 879 l 526 976 q 339 958 397 976 q 182 855 276 937 q 378 884 252 884 l 430 884 q 422 867 425 877 q 405 820 420 858 q 359 715 389 782 q 301 583 330 648 q 245 452 272 517 q 188 324 218 387 q 124 199 159 260 q 61 100 90 138 q 14 42 32 61 q -13 12 -3 22 q -22 1 -22 2 q -23 0 -22 1 l 3 0 q 118 6 76 0 q 174 19 146 10 q 228 43 201 27 q 301 94 256 58 q 347 129 322 110 q 289 105 330 118 q 164 92 249 92 q 110 92 115 92 m 342 454 q 332 452 340 454 q 469 757 401 603 q 562 454 530 553 q 476 451 518 451 l 342 454 m 614 1136 q 515 1214 568 1162 q 421 1334 462 1265 q 415 1347 416 1343 q 410 1350 414 1350 q 333 1302 405 1350 q 279 1258 279 1265 l 292 1238 q 367 1139 326 1185 q 472 1050 408 1092 q 483 1044 481 1044 q 549 1084 494 1044 q 588 1116 570 1101 q 614 1136 607 1131 "},"":{"ha":951,"x_min":-23,"x_max":985,"o":"m 110 92 q 127 111 110 91 q 140 125 134 119 q 289 359 212 206 q 331 359 307 359 q 579 397 522 357 q 638 202 605 317 q 695 35 671 87 q 823 3 728 -39 q 852 18 838 9 q 879 34 865 26 q 941 80 892 43 q 985 113 960 95 q 944 94 970 104 q 895 83 918 83 q 831 115 851 83 q 817 149 823 130 q 778 265 811 168 q 680 580 745 363 q 621 779 650 680 q 562 976 591 879 l 526 976 q 339 958 397 976 q 182 855 276 937 q 378 884 252 884 l 430 884 q 422 867 425 877 q 405 820 420 858 q 359 715 389 782 q 301 583 330 648 q 245 452 272 517 q 188 324 218 387 q 124 199 159 260 q 61 100 90 138 q 14 42 32 61 q -13 12 -3 22 q -22 1 -22 2 q -23 0 -22 1 l 3 0 q 118 6 76 0 q 174 19 146 10 q 228 43 201 27 q 301 94 256 58 q 347 129 322 110 q 289 105 330 118 q 164 92 249 92 q 110 92 115 92 m 342 454 q 332 452 340 454 q 469 757 401 603 q 562 454 530 553 q 476 451 518 451 l 342 454 m 352 1017 q 451 1084 385 1035 q 587 1211 516 1133 q 640 1275 620 1247 q 678 1326 660 1302 q 661 1316 669 1320 q 644 1306 652 1311 q 631 1298 635 1301 q 589 1267 627 1295 q 550 1238 551 1240 q 445 1105 492 1160 q 352 1025 406 1060 l 352 1017 "},"":{"ha":951,"x_min":-23,"x_max":985,"o":"m 110 92 q 127 111 110 91 q 140 125 134 119 q 289 359 212 206 q 331 359 307 359 q 579 397 522 357 q 638 202 605 317 q 695 35 671 87 q 823 3 728 -39 q 852 18 838 9 q 879 34 865 26 q 941 80 892 43 q 985 113 960 95 q 944 94 970 104 q 895 83 918 83 q 831 115 851 83 q 817 149 823 130 q 778 265 811 168 q 680 580 745 363 q 621 779 650 680 q 562 976 591 879 l 526 976 q 339 958 397 976 q 182 855 276 937 q 378 884 252 884 l 430 884 q 422 867 425 877 q 405 820 420 858 q 359 715 389 782 q 301 583 330 648 q 245 452 272 517 q 188 324 218 387 q 124 199 159 260 q 61 100 90 138 q 14 42 32 61 q -13 12 -3 22 q -22 1 -22 2 q -23 0 -22 1 l 3 0 q 118 6 76 0 q 174 19 146 10 q 228 43 201 27 q 301 94 256 58 q 347 129 322 110 q 289 105 330 118 q 164 92 249 92 q 110 92 115 92 m 342 454 q 332 452 340 454 q 469 757 401 603 q 562 454 530 553 q 476 451 518 451 l 342 454 m 739 1128 q 724 1145 736 1132 q 695 1177 711 1159 q 660 1214 678 1194 q 625 1251 641 1234 q 599 1279 610 1268 q 585 1290 588 1290 q 524 1251 581 1290 q 460 1200 483 1223 l 290 1039 q 374 1097 311 1058 q 400 1113 389 1107 q 418 1126 411 1119 l 475 1179 q 542 1106 477 1176 q 610 1036 606 1036 q 739 1128 623 1036 "},"":{"ha":951,"x_min":-23,"x_max":985,"o":"m 110 92 q 127 111 110 91 q 140 125 134 119 q 289 359 212 206 q 331 359 307 359 q 579 397 522 357 q 638 202 605 317 q 695 35 671 87 q 823 3 728 -39 q 852 18 838 9 q 879 34 865 26 q 941 80 892 43 q 985 113 960 95 q 944 94 970 104 q 895 83 918 83 q 831 115 851 83 q 817 149 823 130 q 778 265 811 168 q 680 580 745 363 q 621 779 650 680 q 562 976 591 879 l 526 976 q 339 958 397 976 q 182 855 276 937 q 378 884 252 884 l 430 884 q 422 867 425 877 q 405 820 420 858 q 359 715 389 782 q 301 583 330 648 q 245 452 272 517 q 188 324 218 387 q 124 199 159 260 q 61 100 90 138 q 14 42 32 61 q -13 12 -3 22 q -22 1 -22 2 q -23 0 -22 1 l 3 0 q 118 6 76 0 q 174 19 146 10 q 228 43 201 27 q 301 94 256 58 q 347 129 322 110 q 289 105 330 118 q 164 92 249 92 q 110 92 115 92 m 342 454 q 332 452 340 454 q 469 757 401 603 q 562 454 530 553 q 476 451 518 451 l 342 454 m 794 1207 q 761 1186 778 1198 q 655 1137 694 1137 q 543 1179 601 1137 q 499 1207 521 1194 q 448 1221 478 1221 q 389 1213 418 1221 q 167 1041 262 1179 q 319 1128 279 1128 q 391 1107 359 1128 q 417 1087 405 1097 q 453 1061 429 1076 q 519 1045 477 1045 q 794 1207 653 1045 "},"":{"ha":951,"x_min":-23,"x_max":985,"o":"m 110 92 q 127 111 110 91 q 140 125 134 119 q 289 359 212 206 q 331 359 307 359 q 579 397 522 357 q 638 202 605 317 q 695 35 671 87 q 823 3 728 -39 q 852 18 838 9 q 879 34 865 26 q 941 80 892 43 q 985 113 960 95 q 944 94 970 104 q 895 83 918 83 q 831 115 851 83 q 817 149 823 130 q 778 265 811 168 q 680 580 745 363 q 621 779 650 680 q 562 976 591 879 l 526 976 q 339 958 397 976 q 182 855 276 937 q 378 884 252 884 l 430 884 q 422 867 425 877 q 405 820 420 858 q 359 715 389 782 q 301 583 330 648 q 245 452 272 517 q 188 324 218 387 q 124 199 159 260 q 61 100 90 138 q 14 42 32 61 q -13 12 -3 22 q -22 1 -22 2 q -23 0 -22 1 l 3 0 q 118 6 76 0 q 174 19 146 10 q 228 43 201 27 q 301 94 256 58 q 347 129 322 110 q 289 105 330 118 q 164 92 249 92 q 110 92 115 92 m 342 454 q 332 452 340 454 q 469 757 401 603 q 562 454 530 553 q 476 451 518 451 l 342 454 m 753 1137 l 650 1232 l 518 1140 l 621 1044 l 753 1137 m 444 1137 l 340 1232 l 209 1140 l 312 1044 l 444 1137 "},"":{"ha":950,"x_min":-24,"x_max":983,"o":"m 298 941 q 181 855 250 916 q 377 884 251 884 l 429 884 q 421 867 423 877 q 403 820 418 858 q 358 715 388 782 q 299 583 328 648 q 243 452 271 517 q 187 324 216 387 q 123 199 157 260 q 60 100 89 138 q 5 33 31 61 q -24 0 -21 5 l 2 0 q 117 6 75 0 q 183 22 145 10 q 270 71 221 34 q 296 91 283 81 q 320 109 309 100 q 337 122 330 117 q 345 128 344 127 l 332 122 q 299 110 321 116 q 244 98 277 103 q 162 92 211 92 q 109 92 113 92 q 126 111 109 91 q 138 125 132 119 q 288 359 211 206 q 330 359 305 359 q 578 397 521 357 q 644 178 604 317 q 714 4 684 39 q 763 -12 729 -12 q 982 112 833 -12 q 954 97 979 111 q 893 83 928 83 q 830 115 850 83 q 815 149 821 130 q 775 270 810 168 q 683 566 740 372 q 568 949 626 760 q 614 987 593 967 q 686 1118 686 1056 q 644 1216 686 1175 q 598 1246 624 1235 q 533 1257 572 1257 q 427 1218 493 1257 q 369 1177 397 1200 q 320 1126 341 1153 q 286 1072 298 1100 q 273 1009 273 1044 q 298 941 273 974 m 340 454 q 331 452 339 454 q 467 757 400 603 q 560 454 529 553 q 475 451 517 451 l 340 454 m 545 977 q 444 1020 484 978 q 415 1066 425 1040 q 404 1116 404 1093 q 406 1147 404 1139 q 422 1165 407 1165 q 522 1114 483 1165 q 546 1072 537 1095 q 554 1025 554 1049 q 545 977 554 1000 m 345 128 l 346 129 l 345 128 m 982 112 l 983 113 l 982 112 "},"":{"ha":1263,"x_min":-22,"x_max":1279,"o":"m 111 92 q 129 111 111 91 q 141 125 135 119 q 290 359 214 206 q 333 359 309 359 q 581 397 523 357 q 631 237 606 317 q 684 77 656 157 q 818 0 713 0 l 1065 0 q 1131 26 1082 0 q 1279 127 1244 86 l 1266 122 q 1156 92 1195 92 l 909 92 q 840 125 869 92 q 813 168 828 140 q 718 463 798 197 l 914 463 q 968 508 932 463 q 993 539 981 525 q 1012 555 1004 554 l 689 555 q 640 720 664 637 q 591 884 615 802 l 991 884 q 1023 898 1004 884 q 1078 944 1042 912 q 1123 976 1114 975 l 528 976 q 340 958 398 976 q 184 855 277 937 q 380 884 254 884 l 431 884 q 424 867 426 877 q 406 820 421 858 q 361 715 391 782 q 302 583 331 648 q 246 452 273 517 q 190 324 219 387 q 126 199 160 260 q 62 100 92 138 q 16 42 33 61 q -11 12 -2 22 q -21 1 -20 2 q -22 0 -21 1 l 5 0 q 119 6 77 0 q 175 19 148 10 q 230 43 202 27 q 302 94 257 58 q 349 129 323 110 q 291 105 331 118 q 165 92 250 92 q 111 92 116 92 m 343 454 q 334 452 342 454 q 470 757 403 603 q 563 454 532 553 q 477 451 519 451 l 343 454 "},"":{"ha":943,"x_min":60,"x_max":924,"o":"m 848 990 q 726 1002 798 1002 q 470 951 597 1002 q 351 890 408 926 q 244 810 294 854 q 157 712 195 765 q 89 592 118 659 q 60 427 60 524 q 161 109 60 237 q 453 -29 271 -29 q 463 -29 458 -29 q 472 -28 467 -29 l 345 -161 q 347 -163 341 -165 q 395 -154 370 -156 q 481 -217 486 -146 q 472 -255 480 -237 q 447 -283 463 -273 q 410 -308 431 -294 q 371 -340 389 -322 q 600 -161 559 -234 q 595 -81 629 -109 q 558 -65 581 -69 q 519 -63 535 -60 q 491 -67 503 -65 q 474 -73 479 -69 l 520 -25 q 862 119 698 -5 q 879 134 872 127 q 889 143 884 138 q 591 66 713 66 q 296 207 408 66 q 191 529 191 338 q 296 815 191 717 q 420 886 347 863 q 593 909 493 909 q 747 888 694 909 q 773 879 770 880 q 780 876 777 878 q 787 872 784 874 q 790 866 790 869 q 772 848 790 862 q 762 838 763 840 q 812 868 770 840 q 850 894 830 880 q 886 921 869 908 q 913 943 902 933 q 924 959 924 954 q 910 971 924 965 q 872 984 897 977 q 848 990 848 990 "},"":{"ha":768,"x_min":38,"x_max":750,"o":"m 38 884 l 165 884 l 165 536 q 70 463 129 510 l 165 463 l 165 162 q 104 0 165 83 l 536 0 q 602 26 553 0 q 750 127 715 86 l 708 110 q 628 92 667 92 l 251 92 q 274 118 265 99 q 297 241 297 166 l 297 463 l 494 463 q 564 508 511 463 q 602 539 585 525 q 626 555 618 554 l 297 555 l 297 884 l 598 884 q 630 898 610 884 q 686 944 649 912 q 730 976 722 975 l 170 976 q 38 884 151 976 m 528 1135 q 428 1213 481 1162 q 334 1333 375 1264 q 328 1346 329 1343 q 323 1350 328 1350 q 246 1301 318 1350 q 193 1257 193 1265 l 205 1238 q 280 1138 239 1185 q 385 1049 321 1091 q 396 1043 394 1043 q 462 1084 408 1043 q 502 1115 483 1100 q 528 1135 520 1130 "},"":{"ha":768,"x_min":38,"x_max":750,"o":"m 38 884 l 165 884 l 165 536 q 70 463 129 510 l 165 463 l 165 162 q 104 0 165 83 l 536 0 q 602 26 553 0 q 750 127 715 86 l 708 110 q 628 92 667 92 l 251 92 q 274 118 265 99 q 297 241 297 166 l 297 463 l 494 463 q 564 508 511 463 q 602 539 585 525 q 626 555 618 554 l 297 555 l 297 884 l 598 884 q 630 898 610 884 q 686 944 649 912 q 730 976 722 975 l 170 976 q 38 884 151 976 m 299 1010 q 398 1078 332 1029 q 534 1205 463 1126 q 587 1269 567 1241 q 625 1320 607 1296 q 608 1310 616 1314 q 591 1300 600 1305 q 578 1292 582 1295 q 536 1261 574 1289 q 497 1232 498 1234 q 392 1099 439 1154 q 299 1019 353 1054 l 299 1010 "},"":{"ha":768,"x_min":38,"x_max":750,"o":"m 38 884 l 165 884 l 165 536 q 70 463 129 510 l 165 463 l 165 162 q 104 0 165 83 l 536 0 q 602 26 553 0 q 750 127 715 86 l 708 110 q 628 92 667 92 l 251 92 q 274 118 265 99 q 297 241 297 166 l 297 463 l 494 463 q 564 508 511 463 q 602 539 585 525 q 626 555 618 554 l 297 555 l 297 884 l 598 884 q 630 898 610 884 q 686 944 649 912 q 730 976 722 975 l 170 976 q 38 884 151 976 m 652 1131 q 637 1148 649 1135 q 608 1179 625 1162 q 573 1217 591 1197 q 538 1254 554 1237 q 512 1282 523 1271 q 498 1293 501 1293 q 437 1253 494 1293 q 373 1202 396 1225 l 203 1042 q 287 1100 224 1061 q 313 1116 302 1110 q 332 1128 324 1122 l 388 1182 q 455 1108 391 1179 q 524 1038 519 1038 q 652 1131 536 1038 "},"":{"ha":768,"x_min":38,"x_max":750,"o":"m 38 884 l 165 884 l 165 536 q 70 463 129 510 l 165 463 l 165 162 q 104 0 165 83 l 536 0 q 602 26 553 0 q 750 127 715 86 l 708 110 q 628 92 667 92 l 251 92 q 274 118 265 99 q 297 241 297 166 l 297 463 l 494 463 q 564 508 511 463 q 602 539 585 525 q 626 555 618 554 l 297 555 l 297 884 l 598 884 q 630 898 610 884 q 686 944 649 912 q 730 976 722 975 l 170 976 q 38 884 151 976 m 666 1137 l 564 1233 l 431 1141 l 534 1044 l 666 1137 m 357 1137 l 254 1233 l 122 1141 l 225 1044 l 357 1137 "},"":{"ha":498,"x_min":41,"x_max":481,"o":"m 41 884 l 168 884 l 168 162 q 152 61 168 101 q 106 0 142 36 l 336 0 q 380 24 350 0 q 427 62 394 34 q 469 92 459 91 l 251 92 q 300 263 300 146 l 300 884 l 350 884 q 394 907 363 884 q 440 946 408 918 q 481 976 473 975 l 172 976 q 41 884 153 976 m 388 1137 q 288 1214 341 1163 q 195 1335 235 1265 q 189 1348 189 1344 q 183 1351 188 1351 q 106 1303 178 1351 q 53 1259 53 1266 l 65 1239 q 140 1139 99 1186 q 245 1050 182 1093 q 256 1044 254 1044 q 322 1085 268 1044 q 362 1116 343 1101 q 388 1137 380 1131 "},"":{"ha":498,"x_min":41,"x_max":498,"o":"m 41 884 l 168 884 l 168 162 q 152 61 168 101 q 106 0 142 36 l 336 0 q 380 24 350 0 q 427 62 394 34 q 469 92 459 91 l 251 92 q 300 263 300 146 l 300 884 l 350 884 q 394 907 363 884 q 440 946 408 918 q 481 976 473 975 l 172 976 q 41 884 153 976 m 172 1040 q 271 1107 205 1059 q 408 1235 336 1156 q 460 1298 440 1271 q 498 1350 480 1326 q 481 1339 489 1344 q 464 1330 473 1335 q 451 1322 455 1325 q 409 1291 447 1319 q 370 1262 371 1263 q 265 1129 313 1184 q 172 1048 226 1084 l 172 1040 "},"":{"ha":498,"x_min":37,"x_max":486,"o":"m 41 884 l 168 884 l 168 162 q 152 61 168 101 q 106 0 142 36 l 336 0 q 380 24 350 0 q 427 62 394 34 q 469 92 459 91 l 251 92 q 300 263 300 146 l 300 884 l 350 884 q 394 907 363 884 q 440 946 408 918 q 481 976 473 975 l 172 976 q 41 884 153 976 m 486 1137 q 470 1154 482 1141 q 441 1185 458 1168 q 406 1223 425 1203 q 372 1260 387 1243 q 345 1288 356 1277 q 331 1299 334 1299 q 270 1259 328 1299 q 206 1208 229 1232 l 37 1048 q 120 1106 57 1067 q 146 1122 136 1116 q 165 1135 157 1128 l 221 1188 q 288 1115 224 1185 q 357 1044 352 1044 q 486 1137 370 1044 "},"":{"ha":498,"x_min":-10,"x_max":534,"o":"m 41 884 l 168 884 l 168 162 q 152 61 168 101 q 106 0 142 36 l 336 0 q 380 24 350 0 q 427 62 394 34 q 469 92 459 91 l 251 92 q 300 263 300 146 l 300 884 l 350 884 q 394 907 363 884 q 440 946 408 918 q 481 976 473 975 l 172 976 q 41 884 153 976 m 534 1137 l 431 1233 l 299 1141 l 402 1044 l 534 1137 m 224 1137 l 121 1233 l -10 1141 l 93 1044 l 224 1137 "},"":{"ha":1054,"x_min":21,"x_max":989,"o":"m 989 532 q 825 875 989 760 q 454 977 679 977 l 153 976 q 67 918 134 976 q 21 884 32 886 l 170 884 l 170 512 l 153 512 q 121 498 140 512 q 65 452 102 484 q 21 420 29 420 l 170 420 l 170 193 q 119 0 170 54 l 337 0 q 644 61 499 0 q 780 136 717 91 q 889 241 843 181 q 963 374 936 300 q 989 532 989 448 m 836 280 q 484 90 767 90 l 258 90 q 281 125 273 111 q 302 230 302 161 l 302 420 l 375 420 q 462 479 393 420 q 507 512 498 511 l 302 512 l 302 884 q 595 845 479 884 q 706 790 657 824 q 789 706 755 756 q 841 589 823 656 q 859 434 859 522 q 836 280 859 345 "},"":{"ha":1237,"x_min":16,"x_max":1219,"o":"m 950 233 q 838 369 895 302 q 653 586 781 435 q 344 930 526 738 q 368 953 350 936 q 403 976 385 970 l 147 976 q 81 936 133 976 q 42 905 61 920 q 16 884 24 890 l 170 884 q 184 437 184 614 q 182 221 184 260 q 115 0 174 84 l 338 0 q 404 39 353 0 q 443 71 425 56 q 470 92 462 86 l 251 92 q 282 139 265 109 q 313 396 313 197 l 313 730 q 859 90 616 393 q 917 -23 909 28 q 975 20 956 4 q 1004 46 991 33 q 1023 70 1018 60 q 1031 104 1027 81 q 1034 124 1033 115 q 1037 140 1036 134 q 1090 668 1090 418 l 1093 819 q 1093 852 1093 836 q 1091 884 1093 868 q 1125 902 1108 888 q 1174 943 1143 916 q 1219 976 1204 971 l 964 976 q 898 936 949 976 q 859 905 878 920 q 832 884 840 890 l 953 884 q 966 575 966 736 q 950 233 966 413 m 931 1209 q 898 1188 915 1200 q 792 1139 831 1139 q 680 1181 738 1139 q 636 1210 658 1196 q 585 1223 615 1223 q 526 1215 555 1223 q 304 1043 399 1181 q 456 1131 416 1131 q 528 1109 496 1131 q 554 1089 542 1099 q 590 1063 566 1078 q 656 1047 614 1047 q 931 1209 790 1047 "},"":{"ha":1191,"x_min":60,"x_max":1135,"o":"m 1135 566 q 998 883 1135 758 q 679 1006 865 1006 q 374 924 517 1006 q 149 708 233 843 q 60 406 60 567 q 186 69 60 193 q 524 -55 311 -55 q 821 39 675 -55 q 946 144 888 83 q 1045 274 1004 204 q 1111 419 1087 343 q 1135 566 1135 496 m 1002 457 q 924 157 1002 264 q 659 35 834 35 q 314 167 439 35 q 223 320 254 231 q 193 509 193 409 q 210 681 193 608 q 541 911 267 911 q 876 784 750 911 q 969 637 937 723 q 1002 457 1002 551 m 731 1159 q 631 1237 684 1185 q 538 1357 578 1288 q 532 1370 532 1367 q 526 1373 531 1373 q 450 1325 522 1373 q 396 1281 396 1289 l 408 1261 q 484 1162 442 1208 q 589 1073 525 1115 q 600 1067 597 1067 q 665 1107 611 1067 q 705 1139 686 1124 q 731 1159 724 1154 "},"":{"ha":1191,"x_min":60,"x_max":1135,"o":"m 1135 566 q 998 883 1135 758 q 679 1006 865 1006 q 374 924 517 1006 q 149 708 233 843 q 60 406 60 567 q 186 69 60 193 q 524 -55 311 -55 q 821 39 675 -55 q 946 144 888 83 q 1045 274 1004 204 q 1111 419 1087 343 q 1135 566 1135 496 m 1002 457 q 924 157 1002 264 q 659 35 834 35 q 314 167 439 35 q 223 320 254 231 q 193 509 193 409 q 210 681 193 608 q 541 911 267 911 q 876 784 750 911 q 969 637 937 723 q 1002 457 1002 551 m 469 1058 q 567 1125 502 1076 q 704 1253 633 1174 q 756 1316 736 1289 q 795 1367 777 1343 q 777 1357 785 1362 q 760 1348 769 1352 q 747 1340 751 1343 q 705 1309 743 1337 q 667 1280 667 1281 q 562 1147 609 1202 q 469 1066 522 1101 l 469 1058 "},"":{"ha":1191,"x_min":60,"x_max":1135,"o":"m 1135 566 q 998 883 1135 758 q 679 1006 865 1006 q 374 924 517 1006 q 149 708 233 843 q 60 406 60 567 q 186 69 60 193 q 524 -55 311 -55 q 821 39 675 -55 q 946 144 888 83 q 1045 274 1004 204 q 1111 419 1087 343 q 1135 566 1135 496 m 1002 457 q 924 157 1002 264 q 659 35 834 35 q 314 167 439 35 q 223 320 254 231 q 193 509 193 409 q 210 681 193 608 q 541 911 267 911 q 876 784 750 911 q 969 637 937 723 q 1002 457 1002 551 m 856 1149 q 840 1166 852 1153 q 811 1198 828 1180 q 776 1235 795 1215 q 742 1272 758 1255 q 715 1300 726 1289 q 701 1311 705 1311 q 640 1272 698 1311 q 576 1221 600 1244 l 407 1060 q 490 1118 427 1079 q 517 1134 506 1128 q 535 1147 528 1140 l 591 1200 q 658 1127 594 1197 q 727 1057 722 1057 q 856 1149 740 1057 "},"":{"ha":1191,"x_min":60,"x_max":1135,"o":"m 1135 566 q 998 883 1135 758 q 679 1006 865 1006 q 374 924 517 1006 q 149 708 233 843 q 60 406 60 567 q 186 69 60 193 q 524 -55 311 -55 q 821 39 675 -55 q 946 144 888 83 q 1045 274 1004 204 q 1111 419 1087 343 q 1135 566 1135 496 m 1002 457 q 924 157 1002 264 q 659 35 834 35 q 314 167 439 35 q 223 320 254 231 q 193 509 193 409 q 210 681 193 608 q 541 911 267 911 q 876 784 750 911 q 969 637 937 723 q 1002 457 1002 551 m 911 1232 q 878 1211 895 1223 q 772 1161 810 1161 q 659 1203 718 1161 q 616 1232 637 1219 q 565 1245 595 1245 q 506 1238 535 1245 q 283 1065 378 1203 q 436 1153 395 1153 q 507 1131 476 1153 q 534 1111 522 1122 q 570 1085 546 1101 q 635 1069 594 1069 q 911 1232 770 1069 "},"":{"ha":1191,"x_min":60,"x_max":1135,"o":"m 1135 566 q 998 883 1135 758 q 679 1006 865 1006 q 374 924 517 1006 q 149 708 233 843 q 60 406 60 567 q 186 69 60 193 q 524 -55 311 -55 q 821 39 675 -55 q 946 144 888 83 q 1045 274 1004 204 q 1111 419 1087 343 q 1135 566 1135 496 m 1002 457 q 924 157 1002 264 q 659 35 834 35 q 314 167 439 35 q 223 320 254 231 q 193 509 193 409 q 210 681 193 608 q 541 911 267 911 q 876 784 750 911 q 969 637 937 723 q 1002 457 1002 551 m 869 1162 l 767 1258 l 635 1166 l 738 1069 l 869 1162 m 560 1162 l 457 1258 l 326 1166 l 429 1069 l 560 1162 "},"":{"ha":656,"x_min":92,"x_max":570,"o":"m 568 587 q 507 548 556 573 q 470 527 488 538 q 437 497 452 515 q 406 458 422 479 q 372 416 389 437 q 223 590 298 475 q 92 498 92 504 l 104 481 q 264 300 169 393 q 186 231 248 284 q 92 161 124 178 q 94 154 93 158 q 96 151 95 151 q 278 286 167 192 q 296 270 283 281 q 326 243 309 258 q 362 212 342 228 q 398 182 381 195 q 426 159 414 168 q 445 151 438 151 q 483 176 452 151 q 511 199 496 186 q 544 228 525 211 q 570 244 564 245 q 395 392 478 312 q 568 587 488 483 "},"":{"ha":1191,"x_min":60,"x_max":1135,"o":"m 908 1101 q 838 1057 895 1088 q 800 1034 818 1046 q 772 997 781 1021 q 679 1006 722 1006 q 374 924 517 1006 q 248 829 306 884 q 149 708 191 774 q 84 565 107 642 q 60 409 60 488 q 77 264 60 330 q 309 -14 130 62 q 254 -109 284 -60 q 322 -65 267 -94 q 368 -35 351 -50 q 524 -55 439 -55 q 821 39 675 -55 q 1046 274 959 129 q 1135 572 1135 422 q 1058 816 1135 708 q 862 969 985 918 q 908 1101 878 1009 m 441 77 q 475 136 457 105 q 509 194 492 166 q 811 836 654 446 q 952 677 902 777 q 1002 447 1002 578 q 924 157 1002 264 q 817 67 882 100 q 644 35 752 35 q 441 77 536 35 m 726 879 q 695 798 711 840 q 380 111 551 421 q 240 277 288 173 q 193 518 193 381 q 269 805 193 709 q 376 883 310 856 q 543 911 443 911 q 726 879 642 911 "},"":{"ha":1169,"x_min":34,"x_max":1172,"o":"m 1172 977 l 863 977 q 797 937 849 977 q 757 906 776 921 q 730 884 739 890 l 858 884 l 858 170 q 799 134 833 151 q 585 75 681 75 q 364 146 445 75 q 280 360 280 222 l 280 884 l 316 884 q 348 897 330 884 q 398 941 365 910 q 448 977 432 972 l 165 977 q 100 937 152 977 q 60 906 79 921 q 34 884 42 890 l 149 884 l 149 321 q 214 73 149 156 q 307 5 249 29 q 460 -18 364 -18 q 683 38 557 -18 q 858 146 750 68 q 851 90 857 121 q 804 1 844 58 l 1026 1 q 1058 14 1040 1 q 1108 57 1075 26 q 1158 93 1142 88 l 935 93 q 959 129 949 108 q 989 264 989 189 l 989 884 l 1040 884 q 1105 926 1059 884 q 1141 958 1124 943 q 1172 977 1158 972 m 703 1044 q 603 1122 656 1071 q 509 1242 550 1173 q 503 1255 504 1252 q 498 1259 503 1259 q 421 1211 493 1259 q 368 1166 368 1174 l 380 1147 q 455 1047 414 1094 q 560 958 496 1000 q 571 952 569 952 q 637 993 583 952 q 676 1024 658 1009 q 703 1044 695 1039 "},"":{"ha":1169,"x_min":34,"x_max":1172,"o":"m 1172 977 l 863 977 q 797 937 849 977 q 757 906 776 921 q 730 884 739 890 l 858 884 l 858 170 q 799 134 833 151 q 585 75 681 75 q 364 146 445 75 q 280 360 280 222 l 280 884 l 316 884 q 348 897 330 884 q 398 941 365 910 q 448 977 432 972 l 165 977 q 100 937 152 977 q 60 906 79 921 q 34 884 42 890 l 149 884 l 149 321 q 214 73 149 156 q 307 5 249 29 q 460 -18 364 -18 q 683 38 557 -18 q 858 146 750 68 q 851 90 857 121 q 804 1 844 58 l 1026 1 q 1058 14 1040 1 q 1108 57 1075 26 q 1158 93 1142 88 l 935 93 q 959 129 949 108 q 989 264 989 189 l 989 884 l 1040 884 q 1105 926 1059 884 q 1141 958 1124 943 q 1172 977 1158 972 m 509 913 q 607 981 542 932 q 744 1108 673 1029 q 797 1172 777 1144 q 835 1223 817 1199 q 817 1213 825 1217 q 800 1203 809 1208 q 787 1195 791 1198 q 745 1164 783 1192 q 707 1135 707 1137 q 602 1002 649 1057 q 509 922 562 957 l 509 913 "},"":{"ha":1169,"x_min":34,"x_max":1172,"o":"m 1172 977 l 863 977 q 797 937 849 977 q 757 906 776 921 q 730 884 739 890 l 858 884 l 858 170 q 799 134 833 151 q 585 75 681 75 q 364 146 445 75 q 280 360 280 222 l 280 884 l 316 884 q 348 897 330 884 q 398 941 365 910 q 448 977 432 972 l 165 977 q 100 937 152 977 q 60 906 79 921 q 34 884 42 890 l 149 884 l 149 321 q 214 73 149 156 q 307 5 249 29 q 460 -18 364 -18 q 683 38 557 -18 q 858 146 750 68 q 851 90 857 121 q 804 1 844 58 l 1026 1 q 1058 14 1040 1 q 1108 57 1075 26 q 1158 93 1142 88 l 935 93 q 959 129 949 108 q 989 264 989 189 l 989 884 l 1040 884 q 1105 926 1059 884 q 1141 958 1124 943 q 1172 977 1158 972 m 861 1133 q 846 1150 858 1137 q 817 1181 833 1164 q 782 1219 800 1199 q 747 1256 763 1239 q 721 1284 732 1273 q 707 1295 710 1295 q 646 1255 703 1295 q 582 1204 605 1227 l 412 1044 q 496 1102 433 1063 q 522 1118 511 1112 q 541 1131 533 1124 l 597 1184 q 664 1111 600 1181 q 732 1040 728 1040 q 861 1133 745 1040 "},"":{"ha":1169,"x_min":34,"x_max":1172,"o":"m 1172 977 l 863 977 q 797 937 849 977 q 757 906 776 921 q 730 884 739 890 l 858 884 l 858 170 q 799 134 833 151 q 585 75 681 75 q 364 146 445 75 q 280 360 280 222 l 280 884 l 316 884 q 348 897 330 884 q 398 941 365 910 q 448 977 432 972 l 165 977 q 100 937 152 977 q 60 906 79 921 q 34 884 42 890 l 149 884 l 149 321 q 214 73 149 156 q 307 5 249 29 q 460 -18 364 -18 q 683 38 557 -18 q 858 146 750 68 q 851 90 857 121 q 804 1 844 58 l 1026 1 q 1058 14 1040 1 q 1108 57 1075 26 q 1158 93 1142 88 l 935 93 q 959 129 949 108 q 989 264 989 189 l 989 884 l 1040 884 q 1105 926 1059 884 q 1141 958 1124 943 q 1172 977 1158 972 m 875 1135 l 772 1230 l 640 1138 l 743 1042 l 875 1135 m 566 1135 l 463 1230 l 331 1138 l 434 1042 l 566 1135 "},"":{"ha":852,"x_min":-65,"x_max":802,"o":"m 507 240 l 507 422 q 556 483 526 447 q 618 562 585 519 q 683 651 650 605 q 742 743 716 698 q 785 829 768 788 q 802 908 802 871 q 777 969 802 945 q 708 993 751 993 q 613 949 664 993 q 577 916 594 932 q 546 896 561 900 q 583 901 562 901 q 648 872 625 901 q 665 840 660 859 q 671 801 671 822 q 662 751 671 779 q 498 472 627 640 q 437 631 479 541 q 247 937 347 820 q 144 989 202 989 q -65 871 41 989 q 18 904 -14 904 q 132 833 66 904 q 300 572 219 738 q 377 346 377 412 l 377 174 q 309 0 377 71 l 546 0 q 633 59 564 0 q 677 92 669 90 l 460 92 q 507 240 507 161 m 422 913 q 521 981 456 932 q 658 1108 587 1029 q 710 1172 690 1144 q 749 1223 730 1199 q 731 1213 739 1217 q 714 1203 723 1208 q 701 1195 705 1198 q 659 1164 697 1192 q 621 1135 621 1137 q 515 1002 563 1057 q 422 922 476 957 l 422 913 "},"":{"ha":831,"x_min":15,"x_max":804,"o":"m 15 722 l 171 722 l 171 180 q 170 133 171 156 q 115 15 165 56 l 98 0 l 313 0 q 399 58 332 0 q 444 92 435 90 l 231 92 q 294 198 280 136 q 340 195 317 195 q 543 247 450 195 q 720 376 663 315 q 804 572 804 466 q 713 755 804 688 q 511 814 631 814 l 303 814 l 303 1002 q 271 981 300 997 q 243 964 260 974 q 171 909 226 955 l 171 814 l 146 814 q 15 722 127 814 m 303 320 l 303 722 l 332 722 q 420 718 378 722 q 672 465 672 692 q 625 328 672 370 q 568 298 602 307 q 468 289 534 289 q 303 320 401 289 "},"":{"ha":865,"x_min":42,"x_max":844,"o":"m 259 210 l 259 774 q 260 848 259 809 q 318 1061 264 986 q 390 1069 347 1069 q 548 1008 475 1069 q 624 860 624 944 q 562 655 624 741 q 503 590 534 618 q 445 537 472 562 q 400 487 418 513 q 382 429 382 461 q 434 338 382 372 q 487 312 457 323 q 548 290 517 300 q 608 269 578 280 q 713 146 713 228 q 646 77 713 77 q 583 81 616 77 q 549 88 566 84 q 517 99 531 92 q 493 115 503 106 q 484 139 484 125 q 496 166 484 154 q 460 140 484 153 q 413 113 436 127 q 372 83 389 99 q 354 48 354 67 q 371 16 354 28 q 495 -16 418 -16 q 640 19 559 -16 q 781 110 728 56 q 844 239 844 173 q 792 343 844 305 q 739 372 769 361 q 679 392 709 382 q 618 410 648 401 q 565 434 588 420 q 527 469 541 448 q 513 519 513 490 q 534 576 513 549 q 633 667 555 603 q 755 893 755 766 q 696 1077 755 1002 q 522 1161 631 1161 q 339 1097 438 1161 q 191 972 236 1029 q 155 910 168 942 q 135 833 142 878 q 127 648 127 789 l 42 581 l 127 581 l 127 140 q 117 62 127 97 q 71 0 106 28 l 196 0 q 262 39 210 0 q 301 71 283 56 q 328 92 319 86 l 216 92 q 259 210 259 144 "},"":{"ha":631,"x_min":23,"x_max":614,"o":"m 511 201 l 511 477 q 481 617 511 568 q 435 662 465 645 q 348 679 406 679 q 219 639 290 679 q 110 557 184 619 q 235 585 164 585 q 309 567 277 585 q 359 511 340 549 q 379 366 379 473 l 379 336 q 229 307 288 332 q 95 222 151 274 q 43 161 64 195 q 23 94 23 127 q 35 42 23 61 q 155 -10 68 -10 q 378 75 256 -10 q 380 45 378 60 q 433 -12 383 -12 q 531 28 482 -12 q 570 63 551 45 q 614 92 589 81 q 566 81 589 81 q 539 86 551 81 q 509 153 509 100 l 511 201 m 192 103 q 166 134 176 115 q 157 180 157 153 q 166 235 157 206 q 269 243 210 243 l 379 243 l 379 101 q 294 81 337 81 q 230 86 252 81 q 200 97 208 92 q 192 103 192 103 m 452 833 q 353 910 406 859 q 259 1031 300 962 q 253 1044 254 1040 q 248 1047 252 1047 q 171 999 243 1047 q 117 955 117 962 l 130 935 q 205 836 163 882 q 310 747 246 789 q 321 741 319 741 q 387 781 332 741 q 426 812 408 798 q 452 833 445 827 "},"":{"ha":631,"x_min":23,"x_max":614,"o":"m 511 201 l 511 477 q 481 617 511 568 q 435 662 465 645 q 348 679 406 679 q 219 639 290 679 q 110 557 184 619 q 235 585 164 585 q 309 567 277 585 q 359 511 340 549 q 379 366 379 473 l 379 336 q 229 307 288 332 q 95 222 151 274 q 43 161 64 195 q 23 94 23 127 q 35 42 23 61 q 155 -10 68 -10 q 378 75 256 -10 q 380 45 378 60 q 433 -12 383 -12 q 531 28 482 -12 q 570 63 551 45 q 614 92 589 81 q 566 81 589 81 q 539 86 551 81 q 509 153 509 100 l 511 201 m 192 103 q 166 134 176 115 q 157 180 157 153 q 166 235 157 206 q 269 243 210 243 l 379 243 l 379 101 q 294 81 337 81 q 230 86 252 81 q 200 97 208 92 q 192 103 192 103 m 190 702 q 289 769 223 720 q 425 897 354 818 q 478 960 458 932 q 516 1011 498 987 q 498 1001 507 1006 q 481 991 490 996 q 469 984 473 987 q 427 953 465 981 q 388 924 389 925 q 283 791 330 846 q 190 710 243 745 l 190 702 "},"":{"ha":631,"x_min":23,"x_max":614,"o":"m 511 201 l 511 477 q 481 617 511 568 q 435 662 465 645 q 348 679 406 679 q 219 639 290 679 q 110 557 184 619 q 235 585 164 585 q 309 567 277 585 q 359 511 340 549 q 379 366 379 473 l 379 336 q 229 307 288 332 q 95 222 151 274 q 43 161 64 195 q 23 94 23 127 q 35 42 23 61 q 155 -10 68 -10 q 378 75 256 -10 q 380 45 378 60 q 433 -12 383 -12 q 531 28 482 -12 q 570 63 551 45 q 614 92 589 81 q 566 81 589 81 q 539 86 551 81 q 509 153 509 100 l 511 201 m 192 103 q 166 134 176 115 q 157 180 157 153 q 166 235 157 206 q 269 243 210 243 l 379 243 l 379 101 q 294 81 337 81 q 230 86 252 81 q 200 97 208 92 q 192 103 192 103 m 577 827 q 562 844 574 831 q 533 876 549 858 q 497 913 516 893 q 463 950 479 933 q 437 978 448 967 q 422 989 426 989 q 361 949 419 989 q 298 899 321 922 l 128 738 q 212 796 149 757 q 238 812 227 806 q 256 825 249 818 l 313 878 q 379 805 315 875 q 448 734 444 734 q 577 827 461 734 "},"":{"ha":631,"x_min":7,"x_max":634,"o":"m 512 201 l 512 477 q 483 617 512 568 q 437 662 466 645 q 350 679 408 679 q 220 639 292 679 q 111 557 186 619 q 237 585 165 585 q 310 567 279 585 q 361 511 341 549 q 380 366 380 473 l 380 336 q 231 307 289 332 q 96 222 152 274 q 45 161 65 195 q 24 94 24 127 q 37 42 24 61 q 156 -10 70 -10 q 380 75 258 -10 q 381 45 380 60 q 434 -12 385 -12 q 532 28 484 -12 q 571 63 552 45 q 616 92 590 81 q 567 81 591 81 q 541 86 552 81 q 511 153 511 100 l 512 201 m 193 103 q 168 134 177 115 q 159 180 159 153 q 168 235 159 206 q 271 243 212 243 l 380 243 l 380 101 q 296 81 338 81 q 231 86 253 81 q 201 97 210 92 q 193 103 193 103 m 634 911 q 601 890 618 903 q 495 841 534 841 q 382 883 441 841 q 339 912 361 899 q 288 925 318 925 q 229 918 258 925 q 7 745 102 883 q 159 833 119 833 q 231 811 199 833 q 257 791 245 802 q 293 765 269 781 q 359 749 317 749 q 634 911 493 749 "},"":{"ha":631,"x_min":23,"x_max":614,"o":"m 511 201 l 511 477 q 481 617 511 568 q 435 662 465 645 q 348 679 406 679 q 219 639 290 679 q 110 557 184 619 q 235 585 164 585 q 309 567 277 585 q 359 511 340 549 q 379 366 379 473 l 379 336 q 229 307 288 332 q 95 222 151 274 q 43 161 64 195 q 23 94 23 127 q 35 42 23 61 q 155 -10 68 -10 q 378 75 256 -10 q 380 45 378 60 q 433 -12 383 -12 q 531 28 482 -12 q 570 63 551 45 q 614 92 589 81 q 566 81 589 81 q 539 86 551 81 q 509 153 509 100 l 511 201 m 192 103 q 166 134 176 115 q 157 180 157 153 q 166 235 157 206 q 269 243 210 243 l 379 243 l 379 101 q 294 81 337 81 q 230 86 252 81 q 200 97 208 92 q 192 103 192 103 m 591 842 l 488 937 l 356 845 l 459 749 l 591 842 m 281 842 l 178 937 l 47 845 l 150 749 l 281 842 "},"":{"ha":631,"x_min":23,"x_max":614,"o":"m 511 201 l 511 477 q 481 617 511 568 q 435 662 465 645 q 348 679 406 679 q 219 639 290 679 q 110 557 184 619 q 235 585 164 585 q 309 567 277 585 q 359 511 340 549 q 379 366 379 473 l 379 336 q 229 307 288 332 q 95 222 151 274 q 43 161 64 195 q 23 94 23 127 q 35 42 23 61 q 155 -10 68 -10 q 378 75 256 -10 q 380 45 378 60 q 433 -12 383 -12 q 531 28 482 -12 q 570 63 551 45 q 614 92 589 81 q 566 81 589 81 q 539 86 551 81 q 509 153 509 100 l 511 201 m 192 103 q 166 134 176 115 q 157 180 157 153 q 166 235 157 206 q 269 243 210 243 l 379 243 l 379 101 q 294 81 337 81 q 230 86 252 81 q 200 97 208 92 q 192 103 192 103 m 483 1052 q 437 1082 463 1071 q 384 1093 412 1093 q 311 1076 357 1093 q 208 1013 264 1060 q 112 853 112 930 q 155 759 112 795 q 201 733 176 742 q 266 724 227 724 q 370 762 305 724 q 428 801 400 779 q 478 849 456 824 q 513 902 500 875 q 526 955 526 928 q 514 1007 526 982 q 493 1042 503 1033 q 483 1052 483 1052 m 385 812 q 283 856 323 814 q 254 902 264 876 q 243 951 243 928 q 245 984 243 975 q 261 1001 246 1001 q 361 949 322 1001 q 385 908 376 930 q 393 861 393 885 q 385 812 393 836 "},"":{"ha":923,"x_min":24,"x_max":896,"o":"m 361 679 q 218 637 293 679 q 111 557 180 616 q 237 585 165 585 q 310 567 279 585 q 361 511 341 549 q 380 366 380 473 l 380 336 q 304 328 341 334 q 96 222 191 309 q 45 161 65 195 q 24 94 24 127 q 37 43 24 62 q 156 -10 69 -10 q 296 26 222 -10 q 359 62 328 42 q 421 101 389 81 q 599 -9 480 -9 q 681 0 639 -9 q 896 125 816 31 q 745 82 825 82 q 604 126 659 82 q 527 253 549 171 q 652 330 602 296 q 721 381 687 353 q 780 438 754 408 q 823 499 806 468 q 839 568 839 531 q 812 635 839 606 q 783 656 800 648 q 739 665 766 665 q 678 654 711 665 q 509 538 589 623 q 361 679 491 679 m 632 337 q 520 286 591 304 q 514 359 514 322 q 617 570 514 570 q 685 536 659 570 q 703 501 697 520 q 709 454 709 481 q 691 398 709 427 q 652 353 673 369 q 632 337 632 337 m 380 157 q 336 96 380 123 q 278 81 313 81 q 193 103 224 81 q 168 134 177 115 q 159 180 159 153 q 168 235 159 206 q 273 243 206 243 l 380 243 l 380 157 "},"":{"ha":642,"x_min":49,"x_max":631,"o":"m 486 525 q 532 547 496 525 q 631 635 631 611 q 625 646 631 642 q 477 683 576 683 q 384 666 435 683 q 117 467 218 613 q 49 267 49 366 q 119 68 49 145 q 311 -11 191 -11 q 345 -9 328 -11 q 321 -27 332 -19 l 193 -161 q 194 -163 189 -165 q 243 -154 218 -156 q 329 -217 334 -146 q 319 -255 328 -237 q 294 -283 311 -273 q 257 -308 278 -294 q 218 -340 236 -322 q 448 -161 406 -234 q 444 -81 477 -109 q 406 -65 429 -69 q 366 -63 382 -60 q 338 -67 350 -65 q 321 -73 326 -69 l 391 -1 q 608 122 519 27 q 453 81 535 81 q 252 160 323 81 q 200 251 218 198 q 182 384 182 303 q 217 522 182 465 q 270 573 237 554 q 334 593 302 593 q 401 586 366 593 q 435 579 417 583 q 467 569 452 574 q 491 558 481 564 q 500 545 500 552 q 486 525 500 538 "},"":{"ha":593,"x_min":50,"x_max":566,"o":"m 566 125 q 415 82 488 82 q 273 126 328 82 q 197 253 218 171 q 321 330 272 296 q 390 381 357 353 q 450 438 424 408 q 492 499 476 468 q 509 568 509 531 q 483 635 509 606 q 414 665 455 665 q 248 600 336 665 q 109 448 165 538 q 50 279 50 355 q 100 84 50 164 q 168 17 127 43 q 256 -9 210 -9 q 335 -4 303 -9 q 566 125 473 22 m 361 397 q 190 286 309 319 q 184 359 184 322 q 287 570 184 570 q 355 536 329 570 q 373 502 367 521 q 379 454 379 482 q 361 397 379 427 m 441 823 q 342 900 395 849 q 248 1021 289 951 q 242 1034 243 1030 q 237 1037 241 1037 q 160 989 232 1037 q 106 945 106 952 l 119 925 q 194 825 153 872 q 299 736 235 779 q 310 730 308 730 q 376 771 321 730 q 415 802 397 787 q 441 823 434 817 "},"":{"ha":591,"x_min":49,"x_max":564,"o":"m 564 125 q 414 82 487 82 q 272 126 327 82 q 195 253 217 171 q 320 330 271 296 q 389 381 355 353 q 449 438 422 408 q 491 499 475 468 q 507 568 507 531 q 481 635 507 606 q 413 665 454 665 q 246 600 334 665 q 107 448 164 538 q 49 279 49 355 q 99 84 49 164 q 167 17 125 43 q 255 -9 208 -9 q 334 -4 302 -9 q 564 125 471 22 m 359 397 q 189 286 308 319 q 182 359 182 322 q 286 570 182 570 q 354 536 328 570 q 372 502 366 521 q 378 454 378 482 q 359 397 378 427 m 177 633 q 276 701 210 652 q 412 828 341 749 q 465 891 445 864 q 503 943 485 919 q 486 932 494 937 q 469 923 477 928 q 456 915 460 918 q 414 884 452 912 q 375 855 376 857 q 270 722 317 777 q 177 642 231 677 l 177 633 "},"":{"ha":593,"x_min":50,"x_max":566,"o":"m 566 125 q 415 82 488 82 q 273 126 328 82 q 197 253 218 171 q 321 330 272 296 q 390 381 357 353 q 450 438 424 408 q 492 499 476 468 q 509 568 509 531 q 483 635 509 606 q 414 665 455 665 q 248 600 336 665 q 109 448 165 538 q 50 279 50 355 q 100 84 50 164 q 168 17 127 43 q 256 -9 210 -9 q 335 -4 303 -9 q 566 125 473 22 m 361 397 q 190 286 309 319 q 184 359 184 322 q 287 570 184 570 q 355 536 329 570 q 373 502 367 521 q 379 454 379 482 q 361 397 379 427 m 566 804 q 551 821 563 808 q 522 852 538 835 q 487 890 505 870 q 452 927 468 910 q 426 955 437 944 q 412 966 415 966 q 351 926 408 966 q 287 876 310 899 l 117 715 q 201 773 138 734 q 227 789 216 783 q 245 802 238 795 l 302 855 q 369 782 304 852 q 437 711 433 711 q 566 804 450 711 "},"":{"ha":592,"x_min":36,"x_max":580,"o":"m 566 125 q 415 82 488 82 q 273 126 328 82 q 197 253 218 171 q 321 330 272 296 q 390 381 357 353 q 450 438 424 408 q 492 499 476 468 q 509 568 509 531 q 483 635 509 606 q 414 665 455 665 q 248 600 336 665 q 109 448 165 538 q 50 279 50 355 q 100 84 50 164 q 168 17 127 43 q 256 -9 210 -9 q 335 -4 303 -9 q 566 125 473 22 m 361 397 q 190 286 309 319 q 184 359 184 322 q 287 570 184 570 q 355 536 329 570 q 373 502 367 521 q 379 454 379 482 q 361 397 379 427 m 580 820 l 477 916 l 345 823 l 448 727 l 580 820 m 271 820 l 168 916 l 36 823 l 139 727 l 271 820 "},"":{"ha":392,"x_min":0,"x_max":394,"o":"m 394 83 q 351 79 369 79 q 267 116 286 79 q 258 203 258 134 l 258 682 q 181 635 218 661 q 123 595 144 609 q 72 559 102 581 q 9 512 43 538 q 30 516 20 514 q 50 520 40 518 q 74 522 60 522 q 100 511 88 522 q 127 416 127 490 l 127 95 q 161 0 127 26 q 220 -13 178 -13 q 314 19 265 -13 q 354 50 335 33 q 394 83 374 67 m 335 806 q 235 883 288 832 q 142 1004 182 935 q 136 1017 136 1013 q 130 1020 135 1020 q 54 972 125 1020 q 0 928 0 935 l 12 908 q 87 808 46 855 q 193 720 129 762 q 203 713 201 713 q 269 754 215 713 q 309 785 290 770 q 335 806 328 800 "},"":{"ha":392,"x_min":10,"x_max":400,"o":"m 395 83 q 353 79 370 79 q 269 116 288 79 q 260 203 260 134 l 260 682 q 182 635 220 661 q 124 595 145 609 q 74 559 103 581 q 10 512 44 538 q 31 516 21 514 q 51 520 41 518 q 75 522 61 522 q 102 511 90 522 q 128 416 128 490 l 128 95 q 163 0 128 26 q 222 -13 180 -13 q 315 19 267 -13 q 356 50 336 33 q 395 83 375 67 m 74 659 q 173 726 107 677 q 309 854 238 775 q 362 917 342 890 q 400 968 382 945 q 382 958 391 963 q 366 949 374 954 q 353 941 357 944 q 311 910 349 938 q 272 881 273 882 q 167 748 214 803 q 74 667 127 703 l 74 659 "},"":{"ha":391,"x_min":-22,"x_max":427,"o":"m 394 83 q 351 79 369 79 q 267 116 286 79 q 258 203 258 134 l 258 682 q 181 635 218 661 q 123 595 144 609 q 72 559 102 581 q 9 512 43 538 q 30 516 20 514 q 50 520 40 518 q 74 522 60 522 q 100 511 88 522 q 127 416 127 490 l 127 95 q 161 0 127 26 q 220 -13 178 -13 q 314 19 265 -13 q 354 50 335 33 q 394 83 374 67 m 427 830 q 411 847 423 833 q 382 878 399 861 q 347 916 366 896 q 313 953 328 936 q 286 981 297 970 q 272 991 275 991 q 211 952 269 991 q 147 901 170 924 l -22 741 q 61 799 -2 760 q 87 815 77 809 q 106 827 98 821 l 162 881 q 229 807 165 878 q 298 737 293 737 q 427 830 311 737 "},"":{"ha":391,"x_min":-70,"x_max":474,"o":"m 394 83 q 351 79 369 79 q 267 116 286 79 q 258 203 258 134 l 258 682 q 181 635 218 661 q 123 595 144 609 q 72 559 102 581 q 9 512 43 538 q 30 516 20 514 q 50 520 40 518 q 74 522 60 522 q 100 511 88 522 q 127 416 127 490 l 127 95 q 161 0 127 26 q 220 -13 178 -13 q 314 19 265 -13 q 354 50 335 33 q 394 83 374 67 m 474 838 l 372 933 l 239 841 l 342 745 l 474 838 m 165 838 l 62 933 l -70 841 l 33 745 l 165 838 "},"":{"ha":766,"x_min":51,"x_max":758,"o":"m 209 802 l 429 802 q 508 644 477 727 q 439 654 475 654 q 152 505 317 654 q 76 396 100 458 q 51 272 51 333 q 71 160 51 210 q 210 8 113 55 q 468 33 328 -50 q 559 99 504 54 q 642 183 614 144 q 700 368 700 267 q 612 802 700 617 l 626 802 q 712 860 645 802 q 758 894 748 892 l 561 894 q 474 1003 522 953 q 392 1077 425 1053 q 348 1108 358 1101 q 333 1118 338 1115 q 319 1121 327 1121 q 282 1097 311 1121 q 238 1057 270 1086 q 200 1027 206 1027 l 197 1028 q 358 894 290 969 l 341 894 q 209 802 321 894 m 306 564 q 494 477 421 564 q 568 260 568 391 q 545 142 568 191 q 445 75 513 75 q 252 167 327 75 q 200 262 218 208 q 182 382 182 315 q 208 500 182 449 q 306 564 240 564 "},"":{"ha":775,"x_min":-7,"x_max":781,"o":"m 129 46 q 180 -14 129 -14 q 266 23 212 -14 q 307 56 288 39 q 341 85 327 73 q 311 78 326 78 q 288 84 297 78 q 261 143 261 100 l 261 353 q 263 418 261 382 q 370 564 271 564 q 438 551 410 564 q 517 391 517 512 l 517 137 q 525 40 517 64 q 548 4 532 18 q 605 -10 565 -10 q 697 24 644 -10 q 781 92 720 39 q 729 81 756 81 q 661 117 682 81 q 650 186 650 136 l 650 522 q 604 621 650 580 q 498 659 559 659 q 261 547 388 659 q 252 627 261 606 q 230 654 245 644 q 184 664 215 664 q 113 648 153 664 q 39 591 91 640 q -7 559 10 566 q 59 570 22 570 q 117 543 96 570 q 130 482 130 528 l 129 46 m 700 892 q 667 871 684 884 q 561 822 600 822 q 448 864 507 822 q 405 893 427 880 q 354 906 384 906 q 295 899 324 906 q 73 726 168 864 q 225 814 184 814 q 296 792 265 814 q 323 772 311 783 q 359 746 335 762 q 425 730 383 730 q 700 892 559 730 "},"":{"ha":747,"x_min":50,"x_max":699,"o":"m 625 586 q 543 649 591 625 q 442 672 495 672 q 342 655 389 672 q 107 459 193 604 q 50 269 50 363 q 125 75 50 157 q 313 -12 202 -12 q 499 50 407 -12 q 579 118 543 79 q 642 202 615 157 q 684 295 669 247 q 699 395 699 344 q 679 496 699 446 q 643 566 660 547 q 625 586 625 586 m 304 581 q 493 489 420 581 q 566 267 566 397 q 544 148 566 199 q 444 79 513 79 q 250 178 325 79 q 198 278 216 222 q 181 399 181 334 q 205 515 181 464 q 304 581 237 581 m 507 833 q 408 910 460 859 q 314 1031 355 962 q 308 1044 309 1040 q 302 1047 307 1047 q 226 999 298 1047 q 172 955 172 962 l 184 935 q 260 836 218 882 q 365 747 301 789 q 376 741 374 741 q 441 781 387 741 q 481 812 463 798 q 507 833 500 827 "},"":{"ha":747,"x_min":50,"x_max":699,"o":"m 625 586 q 543 649 591 625 q 442 672 495 672 q 342 655 389 672 q 107 459 193 604 q 50 269 50 363 q 125 75 50 157 q 313 -12 202 -12 q 499 50 407 -12 q 579 118 543 79 q 642 202 615 157 q 684 295 669 247 q 699 395 699 344 q 679 496 699 446 q 643 566 660 547 q 625 586 625 586 m 304 581 q 493 489 420 581 q 566 267 566 397 q 544 148 566 199 q 444 79 513 79 q 250 178 325 79 q 198 278 216 222 q 181 399 181 334 q 205 515 181 464 q 304 581 237 581 m 245 691 q 343 758 278 709 q 480 886 409 807 q 533 949 513 922 q 571 1000 553 977 q 553 990 562 995 q 536 981 545 985 q 524 973 528 976 q 481 942 519 970 q 443 913 444 914 q 338 780 385 835 q 245 699 298 734 l 245 691 "},"":{"ha":747,"x_min":50,"x_max":699,"o":"m 625 586 q 543 649 591 625 q 442 672 495 672 q 342 655 389 672 q 107 459 193 604 q 50 269 50 363 q 125 75 50 157 q 313 -12 202 -12 q 499 50 407 -12 q 579 118 543 79 q 642 202 615 157 q 684 295 669 247 q 699 395 699 344 q 679 496 699 446 q 643 566 660 547 q 625 586 625 586 m 304 581 q 493 489 420 581 q 566 267 566 397 q 544 148 566 199 q 444 79 513 79 q 250 178 325 79 q 198 278 216 222 q 181 399 181 334 q 205 515 181 464 q 304 581 237 581 m 632 838 q 616 855 629 842 q 588 886 604 869 q 552 924 571 904 q 518 961 534 944 q 492 989 503 978 q 477 1000 481 1000 q 416 960 474 1000 q 353 909 376 932 l 183 749 q 267 807 203 768 q 293 823 282 817 q 311 836 304 829 l 368 889 q 434 815 370 886 q 503 745 498 745 q 632 838 516 745 "},"":{"ha":747,"x_min":50,"x_max":699,"o":"m 625 586 q 543 649 591 625 q 442 672 495 672 q 342 655 389 672 q 107 459 193 604 q 50 269 50 363 q 125 75 50 157 q 313 -12 202 -12 q 499 50 407 -12 q 579 118 543 79 q 642 202 615 157 q 684 295 669 247 q 699 395 699 344 q 679 496 699 446 q 643 566 660 547 q 625 586 625 586 m 304 581 q 493 489 420 581 q 566 267 566 397 q 544 148 566 199 q 444 79 513 79 q 250 178 325 79 q 198 278 216 222 q 181 399 181 334 q 205 515 181 464 q 304 581 237 581 m 688 903 q 654 882 671 894 q 549 832 587 832 q 436 874 494 832 q 393 903 414 890 q 342 916 372 916 q 283 909 312 916 q 60 736 155 874 q 213 824 172 824 q 284 802 253 824 q 311 782 298 793 q 347 756 323 772 q 412 741 371 741 q 688 903 547 741 "},"":{"ha":747,"x_min":50,"x_max":699,"o":"m 625 586 q 543 649 591 625 q 442 672 495 672 q 342 655 389 672 q 107 459 193 604 q 50 269 50 363 q 125 75 50 157 q 313 -12 202 -12 q 499 50 407 -12 q 579 118 543 79 q 642 202 615 157 q 684 295 669 247 q 699 395 699 344 q 679 496 699 446 q 643 566 660 547 q 625 586 625 586 m 304 581 q 493 489 420 581 q 566 267 566 397 q 544 148 566 199 q 444 79 513 79 q 250 178 325 79 q 198 278 216 222 q 181 399 181 334 q 205 515 181 464 q 304 581 237 581 m 646 832 l 543 928 l 411 836 l 514 739 l 646 832 m 336 832 l 233 928 l 102 836 l 205 739 l 336 832 "},"":{"ha":716,"x_min":52,"x_max":673,"o":"m 463 565 l 393 678 l 261 586 l 332 473 l 463 565 m 673 417 l 183 417 q 97 358 165 417 q 52 325 61 326 l 541 325 q 585 348 555 325 q 630 386 597 358 q 673 417 662 414 m 463 165 l 393 279 l 261 186 l 332 73 l 463 165 "},"":{"ha":747,"x_min":50,"x_max":699,"o":"m 631 764 q 596 742 618 753 q 551 720 574 732 q 490 667 496 692 q 439 672 463 672 q 251 610 344 672 q 171 543 208 582 q 107 459 134 504 q 65 366 80 414 q 50 276 50 317 q 57 203 50 235 q 163 39 82 100 q 99 -58 154 24 q 170 -17 116 -42 q 216 9 199 -3 q 313 -12 261 -12 q 499 50 407 -12 q 579 118 543 79 q 642 202 615 157 q 684 295 669 247 q 699 403 699 343 q 666 525 699 463 q 577 629 632 591 q 631 764 606 698 m 300 127 q 505 475 425 319 q 566 264 566 389 q 544 148 566 199 q 444 79 513 79 q 300 127 363 79 m 249 179 q 181 399 181 270 q 206 515 181 465 q 304 581 238 581 q 437 541 376 581 q 249 179 352 356 "},"":{"ha":793,"x_min":-7,"x_max":803,"o":"m 454 562 q 485 568 470 568 q 510 561 500 568 q 534 492 534 542 l 534 134 q 513 117 525 127 q 420 79 465 79 q 289 130 328 79 q 253 273 253 176 q 254 526 254 526 q 254 571 254 571 q 180 665 254 665 q 127 655 153 665 q -7 562 76 635 q 41 572 18 572 q 110 530 91 572 q 120 450 120 509 l 120 221 q 155 54 120 115 q 272 -14 195 -14 q 534 98 387 -14 q 537 58 535 78 q 608 -11 546 -11 q 724 33 673 -11 q 763 68 745 51 q 803 94 781 85 q 745 83 774 83 q 684 103 702 83 q 665 164 665 123 l 665 595 q 614 660 665 660 q 454 562 564 660 m 505 765 q 405 843 458 791 q 311 963 352 894 q 305 976 306 972 q 300 979 304 979 q 223 931 295 979 q 170 887 170 895 l 182 867 q 257 768 216 814 q 362 679 298 721 q 373 673 371 673 q 439 713 385 673 q 478 745 460 730 q 505 765 497 760 "},"":{"ha":793,"x_min":-7,"x_max":803,"o":"m 454 562 q 485 568 470 568 q 510 561 500 568 q 534 492 534 542 l 534 134 q 513 117 525 127 q 420 79 465 79 q 289 130 328 79 q 253 273 253 176 q 254 526 254 526 q 254 571 254 571 q 180 665 254 665 q 127 655 153 665 q -7 562 76 635 q 41 572 18 572 q 110 530 91 572 q 120 450 120 509 l 120 221 q 155 54 120 115 q 272 -14 195 -14 q 534 98 387 -14 q 537 58 535 78 q 608 -11 546 -11 q 724 33 673 -11 q 763 68 745 51 q 803 94 781 85 q 745 83 774 83 q 684 103 702 83 q 665 164 665 123 l 665 595 q 614 660 665 660 q 454 562 564 660 m 371 654 q 470 722 404 673 q 606 849 535 770 q 659 912 639 885 q 697 964 679 940 q 680 954 688 958 q 663 944 671 949 q 650 936 654 939 q 608 905 646 933 q 569 876 570 878 q 464 743 511 798 q 371 663 425 698 l 371 654 "},"":{"ha":793,"x_min":-7,"x_max":803,"o":"m 454 562 q 485 568 470 568 q 510 561 500 568 q 534 492 534 542 l 534 134 q 513 117 525 127 q 420 79 465 79 q 289 130 328 79 q 253 273 253 176 q 254 526 254 526 q 254 571 254 571 q 180 665 254 665 q 127 655 153 665 q -7 562 76 635 q 41 572 18 572 q 110 530 91 572 q 120 450 120 509 l 120 221 q 155 54 120 115 q 272 -14 195 -14 q 534 98 387 -14 q 537 58 535 78 q 608 -11 546 -11 q 724 33 673 -11 q 763 68 745 51 q 803 94 781 85 q 745 83 774 83 q 684 103 702 83 q 665 164 665 123 l 665 595 q 614 660 665 660 q 454 562 564 660 m 656 829 q 641 846 653 833 q 612 878 629 860 q 577 915 595 895 q 543 952 558 935 q 516 980 527 969 q 502 991 505 991 q 441 951 498 991 q 377 901 400 924 l 208 740 q 291 798 228 759 q 317 814 307 808 q 336 827 328 820 l 392 880 q 459 807 395 877 q 528 736 523 736 q 656 829 541 736 "},"":{"ha":793,"x_min":-7,"x_max":803,"o":"m 454 562 q 485 568 470 568 q 510 561 500 568 q 534 492 534 542 l 534 134 q 513 117 525 127 q 420 79 465 79 q 289 130 328 79 q 253 273 253 176 q 254 526 254 526 q 254 571 254 571 q 180 665 254 665 q 127 655 153 665 q -7 562 76 635 q 41 572 18 572 q 110 530 91 572 q 120 450 120 509 l 120 221 q 155 54 120 115 q 272 -14 195 -14 q 534 98 387 -14 q 537 58 535 78 q 608 -11 546 -11 q 724 33 673 -11 q 763 68 745 51 q 803 94 781 85 q 745 83 774 83 q 684 103 702 83 q 665 164 665 123 l 665 595 q 614 660 665 660 q 454 562 564 660 m 670 828 l 568 924 l 435 831 l 538 735 l 670 828 m 361 828 l 258 924 l 126 831 l 229 735 l 361 828 "},"":{"ha":772,"x_min":-4,"x_max":692,"o":"m 537 483 l 537 144 q 487 98 519 117 q 422 80 456 80 q 290 132 331 80 q 256 274 256 178 l 256 555 q 245 631 256 606 q 222 656 237 646 q 181 666 208 666 q 130 656 155 666 q -4 563 77 635 q 44 572 19 572 q 123 435 123 572 l 123 163 q 158 38 123 83 q 275 -12 197 -12 q 537 103 386 -12 q 529 -66 534 -16 q 513 -159 524 -113 q 481 -241 502 -205 q 427 -299 460 -277 q 352 -321 394 -321 q 270 -309 309 -321 q 234 -291 250 -302 q 218 -263 218 -279 q 235 -234 218 -248 q 183 -269 224 -243 q 150 -289 167 -278 q 119 -311 133 -300 q 97 -333 106 -322 q 88 -358 88 -345 q 102 -382 88 -371 q 208 -412 141 -412 q 351 -385 287 -412 q 557 -205 479 -332 q 669 205 669 -22 l 669 605 q 656 645 669 629 q 621 661 644 661 q 566 645 599 661 q 457 563 534 629 q 488 570 472 570 q 537 483 537 570 m 366 616 q 465 683 399 634 q 602 810 530 732 q 654 874 634 846 q 692 925 674 901 q 675 915 683 920 q 658 905 667 910 q 645 898 649 901 q 603 867 641 895 q 564 838 565 839 q 459 705 507 760 q 366 624 420 659 l 366 616 "},"":{"ha":746,"x_min":-25,"x_max":693,"o":"m 79 -412 l 226 -412 q 311 -354 244 -412 q 357 -320 347 -322 l 191 -320 q 239 -181 239 -279 l 239 -11 q 407 16 308 -26 q 633 178 547 76 q 693 393 693 252 q 637 594 693 519 q 563 655 608 633 q 459 678 517 678 q 337 644 400 678 q 239 578 308 628 l 239 840 q 237 886 239 861 q 171 985 231 985 q -25 878 94 985 q 45 895 12 895 q 79 882 65 895 q 108 774 108 854 l 108 -264 q 79 -412 108 -361 m 239 175 l 239 524 q 330 586 273 586 q 510 490 450 586 q 550 391 538 446 q 562 288 562 336 q 557 202 562 239 q 416 76 541 76 q 239 175 298 76 "},"":{"ha":772,"x_min":-4,"x_max":669,"o":"m 537 483 l 537 144 q 487 98 519 117 q 422 80 456 80 q 290 132 331 80 q 256 274 256 178 l 256 555 q 245 631 256 606 q 222 656 237 646 q 181 666 208 666 q 130 656 155 666 q -4 563 77 635 q 44 572 19 572 q 123 435 123 572 l 123 163 q 158 38 123 83 q 275 -12 197 -12 q 537 103 386 -12 q 529 -66 534 -16 q 513 -159 524 -113 q 481 -241 502 -205 q 427 -299 460 -277 q 352 -321 394 -321 q 270 -309 309 -321 q 234 -291 250 -302 q 218 -263 218 -279 q 235 -234 218 -248 q 183 -269 224 -243 q 150 -289 167 -278 q 119 -311 133 -300 q 97 -333 106 -322 q 88 -358 88 -345 q 102 -382 88 -371 q 208 -412 141 -412 q 351 -385 287 -412 q 557 -205 479 -332 q 669 205 669 -22 l 669 605 q 656 645 669 629 q 621 661 644 661 q 566 645 599 661 q 457 563 534 629 q 488 570 472 570 q 537 483 537 570 m 638 826 l 536 922 l 404 829 l 507 733 l 638 826 m 329 826 l 226 922 l 94 829 l 197 733 l 329 826 "},"":{"ha":951,"x_min":-23,"x_max":985,"o":"m 110 92 q 127 111 110 91 q 140 125 134 119 q 289 359 212 206 q 331 359 307 359 q 579 397 522 357 q 638 202 605 317 q 695 35 671 87 q 823 3 728 -39 q 852 18 838 9 q 879 34 865 26 q 941 80 892 43 q 985 113 960 95 q 944 94 970 104 q 895 83 918 83 q 831 115 851 83 q 817 149 823 130 q 778 265 811 168 q 680 580 745 363 q 621 779 650 680 q 562 976 591 879 l 526 976 q 339 958 397 976 q 182 855 276 937 q 378 884 252 884 l 430 884 q 422 867 425 877 q 405 820 420 858 q 359 715 389 782 q 301 583 330 648 q 245 452 272 517 q 188 324 218 387 q 124 199 159 260 q 61 100 90 138 q 14 42 32 61 q -13 12 -3 22 q -22 1 -22 2 q -23 0 -22 1 l 3 0 q 118 6 76 0 q 174 19 146 10 q 228 43 201 27 q 301 94 256 58 q 347 129 322 110 q 289 105 330 118 q 164 92 249 92 q 110 92 115 92 m 342 454 q 332 452 340 454 q 469 757 401 603 q 562 454 530 553 q 476 451 518 451 l 342 454 m 786 1130 l 296 1130 q 265 1116 284 1130 q 209 1069 245 1101 q 165 1037 172 1038 l 654 1037 q 699 1061 669 1037 q 725 1083 711 1071 q 758 1112 739 1095 q 786 1130 777 1128 "},"":{"ha":631,"x_min":5,"x_max":626,"o":"m 511 201 l 511 477 q 481 617 511 568 q 435 662 465 645 q 348 679 406 679 q 219 639 290 679 q 110 557 184 619 q 235 585 164 585 q 309 567 277 585 q 359 511 340 549 q 379 366 379 473 l 379 336 q 229 307 288 332 q 95 222 151 274 q 43 161 64 195 q 23 94 23 127 q 35 42 23 61 q 155 -10 68 -10 q 378 75 256 -10 q 380 45 378 60 q 433 -12 383 -12 q 531 28 482 -12 q 570 63 551 45 q 614 92 589 81 q 566 81 589 81 q 539 86 551 81 q 509 153 509 100 l 511 201 m 192 103 q 166 134 176 115 q 157 180 157 153 q 166 235 157 206 q 269 243 210 243 l 379 243 l 379 101 q 294 81 337 81 q 230 86 252 81 q 200 97 208 92 q 192 103 192 103 m 626 847 l 136 847 q 105 833 124 847 q 48 787 85 819 q 5 754 12 755 l 494 754 q 538 778 509 754 q 565 800 551 788 q 598 829 578 812 q 626 847 617 846 "},"":{"ha":951,"x_min":-23,"x_max":985,"o":"m 110 92 q 127 111 110 91 q 140 125 134 119 q 289 359 212 206 q 331 359 307 359 q 579 397 522 357 q 638 202 605 317 q 695 35 671 87 q 823 3 728 -39 q 852 18 838 9 q 879 34 865 26 q 941 80 892 43 q 985 113 960 95 q 944 94 970 104 q 895 83 918 83 q 831 115 851 83 q 817 149 823 130 q 778 265 811 168 q 680 580 745 363 q 621 779 650 680 q 562 976 591 879 l 526 976 q 339 958 397 976 q 182 855 276 937 q 378 884 252 884 l 430 884 q 422 867 425 877 q 405 820 420 858 q 359 715 389 782 q 301 583 330 648 q 245 452 272 517 q 188 324 218 387 q 124 199 159 260 q 61 100 90 138 q 14 42 32 61 q -13 12 -3 22 q -22 1 -22 2 q -23 0 -22 1 l 3 0 q 118 6 76 0 q 174 19 146 10 q 228 43 201 27 q 301 94 256 58 q 347 129 322 110 q 289 105 330 118 q 164 92 249 92 q 110 92 115 92 m 342 454 q 332 452 340 454 q 469 757 401 603 q 562 454 530 553 q 476 451 518 451 l 342 454 m 736 1285 q 710 1266 730 1278 q 666 1241 689 1255 q 624 1215 643 1228 q 602 1186 606 1202 q 584 1149 599 1171 q 563 1127 576 1137 q 525 1118 550 1118 q 471 1134 500 1118 q 347 1285 391 1177 q 311 1263 346 1282 q 280 1244 297 1254 q 249 1225 263 1234 q 224 1207 234 1215 q 215 1195 215 1198 q 218 1187 215 1192 q 311 1065 255 1106 q 364 1038 336 1048 q 423 1027 393 1027 q 506 1044 454 1027 q 623 1112 557 1060 q 736 1285 734 1198 "},"":{"ha":631,"x_min":23,"x_max":614,"o":"m 511 201 l 511 477 q 481 617 511 568 q 435 662 465 645 q 348 679 406 679 q 219 639 290 679 q 110 557 184 619 q 235 585 164 585 q 309 567 277 585 q 359 511 340 549 q 379 366 379 473 l 379 336 q 229 307 288 332 q 95 222 151 274 q 43 161 64 195 q 23 94 23 127 q 35 42 23 61 q 155 -10 68 -10 q 378 75 256 -10 q 380 45 378 60 q 433 -12 383 -12 q 531 28 482 -12 q 570 63 551 45 q 614 92 589 81 q 566 81 589 81 q 539 86 551 81 q 509 153 509 100 l 511 201 m 192 103 q 166 134 176 115 q 157 180 157 153 q 166 235 157 206 q 269 243 210 243 l 379 243 l 379 101 q 294 81 337 81 q 230 86 252 81 q 200 97 208 92 q 192 103 192 103 m 576 989 q 550 970 570 982 q 506 946 529 959 q 464 920 483 932 q 442 891 446 907 q 424 853 439 875 q 403 831 416 841 q 365 822 390 822 q 311 838 340 822 q 186 989 231 882 q 151 967 186 987 q 120 948 137 958 q 89 929 103 939 q 64 911 74 920 q 55 899 55 903 q 58 891 55 896 q 151 770 95 810 q 204 742 176 752 q 263 732 233 732 q 346 748 294 732 q 463 816 397 764 q 576 989 574 902 "},"":{"ha":951,"x_min":-23,"x_max":985,"o":"m 110 92 q 127 111 110 91 q 140 125 134 119 q 289 359 212 206 q 331 359 307 359 q 579 397 522 357 q 630 230 605 317 q 673 92 655 144 q 702 21 692 40 q 733 -6 713 2 q 612 -198 612 -92 q 646 -281 612 -245 q 726 -319 681 -319 q 853 -270 776 -319 q 985 -172 985 -186 l 985 -172 q 956 -188 970 -178 q 861 -227 895 -227 q 776 -190 812 -227 q 750 -151 760 -173 q 740 -94 740 -129 q 772 -12 740 -60 q 983 112 842 -7 q 955 97 981 111 q 895 83 929 83 q 831 115 851 83 q 817 149 823 130 q 778 265 811 168 q 680 580 745 363 q 621 779 650 680 q 562 976 591 879 l 526 976 q 339 958 397 976 q 182 855 276 937 q 378 884 252 884 l 430 884 q 422 867 425 877 q 405 820 420 858 q 359 715 389 782 q 301 583 330 648 q 245 452 272 517 q 188 324 218 387 q 124 199 159 260 q 61 100 90 138 q 6 33 32 61 q -23 0 -20 5 l 3 0 q 118 6 76 0 q 184 22 146 10 q 271 71 222 34 q 297 91 284 81 q 321 109 311 100 q 338 122 332 117 q 347 128 345 127 l 334 122 q 300 110 322 116 q 245 98 278 103 q 163 92 212 92 q 110 92 115 92 m 342 454 q 332 452 340 454 q 469 757 401 603 q 562 454 530 553 q 476 451 518 451 l 342 454 m 347 128 l 347 129 l 347 128 m 983 112 l 985 113 l 983 112 "},"":{"ha":631,"x_min":23,"x_max":658,"o":"m 511 201 l 511 477 q 481 617 511 568 q 435 662 465 645 q 348 679 406 679 q 219 639 290 679 q 110 557 184 619 q 235 585 164 585 q 309 567 277 585 q 359 511 340 549 q 379 366 379 473 l 379 336 q 229 307 288 332 q 95 222 151 274 q 43 161 64 195 q 23 94 23 127 q 35 42 23 61 q 155 -10 68 -10 q 378 75 256 -10 q 406 -6 378 7 q 285 -198 285 -94 q 319 -281 285 -245 q 399 -319 354 -319 q 526 -270 449 -319 q 658 -172 658 -186 l 658 -172 q 629 -188 644 -178 q 534 -227 568 -227 q 449 -190 485 -227 q 423 -151 433 -173 q 413 -94 413 -129 q 446 -12 413 -58 q 534 31 489 -7 q 570 63 552 47 q 611 90 588 79 q 566 81 589 81 q 539 86 551 81 q 509 153 509 100 l 511 201 m 192 103 q 166 134 176 115 q 157 180 157 153 q 166 235 157 206 q 269 243 210 243 l 379 243 l 379 101 q 294 81 337 81 q 230 86 252 81 q 200 97 208 92 q 192 103 192 103 m 614 92 q 611 90 612 90 q 614 92 612 90 "},"":{"ha":943,"x_min":60,"x_max":924,"o":"m 848 990 q 726 1002 798 1002 q 470 951 597 1002 q 351 890 408 926 q 244 810 294 854 q 157 712 195 765 q 89 592 118 659 q 60 427 60 524 q 161 109 60 237 q 453 -29 271 -29 q 862 119 665 -29 q 879 134 872 127 q 889 143 884 138 q 591 66 713 66 q 296 207 408 66 q 191 529 191 338 q 296 815 191 717 q 420 886 347 863 q 593 909 493 909 q 747 888 694 909 q 773 879 770 880 q 780 876 777 878 q 787 872 784 874 q 790 866 790 869 q 772 848 790 862 q 762 838 763 840 q 812 868 770 840 q 850 894 830 880 q 886 921 869 908 q 913 943 902 933 q 924 959 924 954 q 910 971 924 965 q 872 984 897 977 q 848 990 848 990 m 434 996 q 533 1063 467 1014 q 669 1190 598 1112 q 722 1254 702 1226 q 760 1305 742 1281 q 743 1295 751 1299 q 726 1285 734 1290 q 713 1277 717 1280 q 671 1246 709 1274 q 632 1217 633 1219 q 527 1084 574 1139 q 434 1004 488 1039 l 434 996 "},"":{"ha":642,"x_min":49,"x_max":631,"o":"m 486 525 q 532 547 496 525 q 631 635 631 611 q 625 646 631 642 q 477 683 576 683 q 384 666 435 683 q 117 467 218 613 q 49 267 49 366 q 119 68 49 145 q 201 10 153 31 q 300 -11 250 -11 q 392 -1 351 -11 q 608 122 523 30 q 453 81 535 81 q 252 160 323 81 q 200 251 218 198 q 182 384 182 303 q 217 522 182 465 q 270 573 237 554 q 334 593 302 593 q 401 586 366 593 q 435 579 417 583 q 467 569 452 574 q 491 558 481 564 q 500 545 500 552 q 486 525 500 538 m 273 686 q 371 753 306 705 q 508 881 437 802 q 561 944 541 917 q 599 996 581 972 q 581 985 589 990 q 564 976 573 981 q 551 968 555 971 q 509 937 547 965 q 471 908 471 909 q 366 775 413 830 q 273 694 326 730 l 273 686 "},"":{"ha":943,"x_min":60,"x_max":924,"o":"m 848 990 q 726 1002 798 1002 q 470 951 597 1002 q 351 890 408 926 q 244 810 294 854 q 157 712 195 765 q 89 592 118 659 q 60 427 60 524 q 161 109 60 237 q 453 -29 271 -29 q 862 119 665 -29 q 879 134 872 127 q 889 143 884 138 q 591 66 713 66 q 296 207 408 66 q 191 529 191 338 q 296 815 191 717 q 420 886 347 863 q 593 909 493 909 q 747 888 694 909 q 773 879 770 880 q 780 876 777 878 q 787 872 784 874 q 790 866 790 869 q 772 848 790 862 q 762 838 763 840 q 812 868 770 840 q 850 894 830 880 q 886 921 869 908 q 913 943 902 933 q 924 959 924 954 q 910 971 924 965 q 872 984 897 977 q 848 990 848 990 m 764 1145 q 749 1162 761 1148 q 720 1193 736 1175 q 685 1231 703 1211 q 650 1267 666 1251 q 624 1295 635 1284 q 610 1306 613 1306 q 549 1267 606 1306 q 485 1216 508 1239 l 315 1055 q 399 1114 336 1074 q 425 1129 414 1124 q 444 1142 436 1135 l 500 1196 q 567 1122 503 1192 q 635 1052 631 1052 q 764 1145 648 1052 "},"":{"ha":642,"x_min":49,"x_max":631,"o":"m 486 525 q 532 547 496 525 q 631 635 631 611 q 625 646 631 642 q 477 683 576 683 q 384 666 435 683 q 117 467 218 613 q 49 267 49 366 q 119 68 49 145 q 201 10 153 31 q 300 -11 250 -11 q 392 -1 351 -11 q 608 122 523 30 q 453 81 535 81 q 252 160 323 81 q 200 251 218 198 q 182 384 182 303 q 217 522 182 465 q 270 573 237 554 q 334 593 302 593 q 401 586 366 593 q 435 579 417 583 q 467 569 452 574 q 491 558 481 564 q 500 545 500 552 q 486 525 500 538 m 545 812 q 530 829 542 816 q 501 861 517 843 q 466 898 484 878 q 431 935 447 918 q 405 963 416 952 q 391 974 394 974 q 330 935 387 974 q 266 884 289 907 l 96 723 q 180 781 117 742 q 206 797 195 791 q 224 810 217 803 l 281 863 q 348 790 283 860 q 416 720 412 720 q 545 812 429 720 "},"":{"ha":943,"x_min":60,"x_max":924,"o":"m 848 990 q 726 1002 798 1002 q 470 951 597 1002 q 351 890 408 926 q 244 810 294 854 q 157 712 195 765 q 89 592 118 659 q 60 427 60 524 q 161 109 60 237 q 453 -29 271 -29 q 862 119 665 -29 q 879 134 872 127 q 889 143 884 138 q 591 66 713 66 q 296 207 408 66 q 191 529 191 338 q 296 815 191 717 q 420 886 347 863 q 593 909 493 909 q 747 888 694 909 q 773 879 770 880 q 780 876 777 878 q 787 872 784 874 q 790 866 790 869 q 772 848 790 862 q 762 838 763 840 q 812 868 770 840 q 850 894 830 880 q 886 921 869 908 q 913 943 902 933 q 924 959 924 954 q 910 971 924 965 q 872 984 897 977 q 848 990 848 990 m 589 1099 l 486 1194 l 354 1102 l 457 1006 l 589 1099 "},"":{"ha":642,"x_min":49,"x_max":631,"o":"m 486 525 q 532 547 496 525 q 631 635 631 611 q 625 646 631 642 q 477 683 576 683 q 384 666 435 683 q 117 467 218 613 q 49 267 49 366 q 119 68 49 145 q 201 10 153 31 q 300 -11 250 -11 q 392 -1 351 -11 q 608 122 523 30 q 453 81 535 81 q 252 160 323 81 q 200 251 218 198 q 182 384 182 303 q 217 522 182 465 q 270 573 237 554 q 334 593 302 593 q 401 586 366 593 q 435 579 417 583 q 467 569 452 574 q 491 558 481 564 q 500 545 500 552 q 486 525 500 538 m 438 792 l 335 888 l 203 795 l 307 699 l 438 792 "},"":{"ha":943,"x_min":60,"x_max":924,"o":"m 848 990 q 726 1002 798 1002 q 470 951 597 1002 q 351 890 408 926 q 244 810 294 854 q 157 712 195 765 q 89 592 118 659 q 60 427 60 524 q 161 109 60 237 q 453 -29 271 -29 q 862 119 665 -29 q 879 134 872 127 q 889 143 884 138 q 591 66 713 66 q 296 207 408 66 q 191 529 191 338 q 296 815 191 717 q 420 886 347 863 q 593 909 493 909 q 747 888 694 909 q 773 879 770 880 q 780 876 777 878 q 787 872 784 874 q 790 866 790 869 q 772 848 790 862 q 762 838 763 840 q 812 868 770 840 q 850 894 830 880 q 886 921 869 908 q 913 943 902 933 q 924 959 924 954 q 910 971 924 965 q 872 984 897 977 q 848 990 848 990 m 247 1147 q 262 1130 250 1143 q 291 1099 275 1117 q 327 1061 308 1081 q 361 1024 345 1041 q 387 996 376 1007 q 400 985 398 985 q 429 1001 402 985 q 526 1076 456 1017 l 696 1237 q 612 1177 675 1217 q 586 1162 597 1168 q 568 1149 575 1156 l 511 1096 q 445 1170 509 1099 q 376 1240 380 1240 q 247 1147 363 1240 "},"":{"ha":642,"x_min":49,"x_max":631,"o":"m 486 525 q 532 547 496 525 q 631 635 631 611 q 625 646 631 642 q 477 683 576 683 q 384 666 435 683 q 117 467 218 613 q 49 267 49 366 q 119 68 49 145 q 201 10 153 31 q 300 -11 250 -11 q 392 -1 351 -11 q 608 122 523 30 q 453 81 535 81 q 252 160 323 81 q 200 251 218 198 q 182 384 182 303 q 217 522 182 465 q 270 573 237 554 q 334 593 302 593 q 401 586 366 593 q 435 579 417 583 q 467 569 452 574 q 491 558 481 564 q 500 545 500 552 q 486 525 500 538 m 96 841 q 112 824 100 838 q 141 793 124 811 q 176 755 157 775 q 210 718 195 735 q 237 690 226 701 q 250 680 248 680 q 278 695 252 680 q 376 770 305 711 l 545 931 q 462 871 525 911 q 435 856 446 862 q 417 844 425 850 l 361 790 q 294 864 358 793 q 225 934 230 934 q 96 841 212 934 "},"":{"ha":1053,"x_min":20,"x_max":989,"o":"m 989 532 q 824 875 989 760 q 453 977 678 977 l 152 976 q 66 918 134 976 q 20 884 31 886 l 170 884 l 170 193 q 118 0 170 54 l 336 0 q 644 61 498 0 q 779 136 716 91 q 889 241 842 181 q 962 374 935 300 q 989 532 989 448 m 834 280 q 484 90 766 90 l 258 90 q 281 125 272 111 q 301 230 301 161 l 301 884 q 595 845 478 884 q 705 790 656 824 q 788 706 754 756 q 840 589 822 656 q 858 434 858 522 q 834 280 858 345 m 302 1190 q 317 1173 305 1186 q 346 1142 330 1160 q 381 1104 363 1124 q 416 1067 400 1084 q 442 1039 431 1050 q 455 1028 453 1028 q 484 1044 457 1028 q 581 1118 511 1059 l 751 1280 q 667 1220 730 1260 q 641 1205 652 1211 q 623 1192 630 1199 l 566 1139 q 499 1212 564 1142 q 431 1282 435 1282 q 302 1190 418 1282 "},"":{"ha":894,"x_min":52,"x_max":890,"o":"m 276 617 q 117 472 177 562 q 52 273 52 377 q 113 69 52 145 q 302 -14 178 -14 q 526 90 387 -14 q 539 16 526 35 q 564 -4 548 3 q 616 -11 580 -11 q 701 22 653 -11 q 742 53 722 36 q 781 85 761 70 q 741 81 761 81 q 670 115 690 81 q 659 188 659 133 l 659 1158 q 409 987 579 1117 q 471 998 450 998 q 500 987 488 998 q 527 890 527 963 l 527 668 q 464 673 500 673 q 376 658 428 673 q 276 617 323 644 m 527 483 l 527 147 q 477 94 527 122 q 425 78 452 78 q 239 164 302 78 q 196 257 210 204 q 182 387 182 309 q 213 516 182 465 q 262 564 231 546 q 346 582 293 582 q 448 557 399 582 q 527 483 496 532 m 784 833 q 815 853 790 839 q 836 868 829 862 q 885 948 869 903 q 890 1028 900 993 q 865 1087 881 1064 q 834 1133 848 1110 q 772 1095 833 1135 q 728 1060 726 1065 l 785 969 q 788 970 785 968 q 828 980 818 989 q 840 949 840 970 q 784 833 840 889 "},"":{"ha":1054,"x_min":21,"x_max":989,"o":"m 989 532 q 825 875 989 760 q 454 977 679 977 l 153 976 q 67 918 134 976 q 21 884 32 886 l 170 884 l 170 512 l 153 512 q 121 498 140 512 q 65 452 102 484 q 21 420 29 420 l 170 420 l 170 193 q 119 0 170 54 l 337 0 q 644 61 499 0 q 780 136 717 91 q 889 241 843 181 q 963 374 936 300 q 989 532 989 448 m 836 280 q 484 90 767 90 l 258 90 q 281 125 273 111 q 302 230 302 161 l 302 420 l 375 420 q 462 479 393 420 q 507 512 498 511 l 302 512 l 302 884 q 595 845 479 884 q 706 790 657 824 q 789 706 755 756 q 841 589 823 656 q 859 434 859 522 q 836 280 859 345 "},"":{"ha":796,"x_min":52,"x_max":797,"o":"m 527 903 l 517 903 q 485 888 505 903 q 430 843 466 874 q 385 810 393 811 l 527 810 l 527 668 q 480 673 500 673 q 276 617 376 673 q 117 472 177 562 q 52 273 52 377 q 113 69 52 145 q 302 -14 178 -14 q 526 90 387 -14 q 539 16 526 35 q 564 -4 548 3 q 616 -11 580 -11 q 701 22 653 -11 q 742 53 722 36 q 781 85 761 70 q 741 81 761 81 q 670 115 690 81 q 659 188 659 133 l 659 810 l 665 810 q 752 870 684 810 q 797 903 788 902 l 659 903 l 659 1158 q 409 987 579 1117 q 467 998 450 998 q 527 903 527 998 m 527 483 l 527 147 q 477 94 527 122 q 425 78 452 78 q 239 164 302 78 q 196 257 210 204 q 182 387 182 309 q 213 516 182 465 q 262 564 231 546 q 346 582 293 582 q 448 557 399 582 q 527 483 496 532 "},"":{"ha":768,"x_min":38,"x_max":750,"o":"m 38 884 l 165 884 l 165 536 q 70 463 129 510 l 165 463 l 165 162 q 104 0 165 83 l 536 0 q 602 26 553 0 q 750 127 715 86 l 708 110 q 628 92 667 92 l 251 92 q 274 118 265 99 q 297 241 297 166 l 297 463 l 494 463 q 564 508 511 463 q 602 539 585 525 q 626 555 618 554 l 297 555 l 297 884 l 598 884 q 630 898 610 884 q 686 944 649 912 q 730 976 722 975 l 170 976 q 38 884 151 976 m 694 1131 l 205 1131 q 173 1117 193 1131 q 117 1071 154 1103 q 73 1038 80 1039 l 563 1038 q 607 1062 577 1038 q 633 1084 620 1072 q 666 1113 647 1096 q 694 1131 686 1130 "},"":{"ha":593,"x_min":-14,"x_max":608,"o":"m 566 125 q 415 82 488 82 q 273 126 328 82 q 197 253 218 171 q 321 330 272 296 q 390 381 357 353 q 450 438 424 408 q 492 499 476 468 q 509 568 509 531 q 483 635 509 606 q 414 665 455 665 q 248 600 336 665 q 109 448 165 538 q 50 279 50 355 q 100 84 50 164 q 168 17 127 43 q 256 -9 210 -9 q 335 -4 303 -9 q 566 125 473 22 m 361 397 q 190 286 309 319 q 184 359 184 322 q 287 570 184 570 q 355 536 329 570 q 373 502 367 521 q 379 454 379 482 q 361 397 379 427 m 608 815 l 118 815 q 86 801 106 815 q 30 755 67 787 q -14 722 -7 723 l 476 722 q 520 746 490 722 q 547 768 533 756 q 579 797 560 780 q 608 815 599 814 "},"":{"ha":768,"x_min":38,"x_max":750,"o":"m 38 884 l 165 884 l 165 536 q 70 463 129 510 l 165 463 l 165 162 q 104 0 165 83 l 536 0 q 602 26 553 0 q 750 127 715 86 l 708 110 q 628 92 667 92 l 251 92 q 274 118 265 99 q 297 241 297 166 l 297 463 l 494 463 q 564 508 511 463 q 602 539 585 525 q 626 555 618 554 l 297 555 l 297 884 l 598 884 q 630 898 610 884 q 686 944 649 912 q 730 976 722 975 l 170 976 q 38 884 151 976 m 644 1291 q 618 1272 639 1283 q 574 1247 597 1260 q 533 1221 551 1234 q 511 1192 514 1208 q 492 1154 507 1176 q 471 1133 484 1142 q 434 1123 458 1123 q 380 1139 409 1123 q 255 1291 300 1183 q 220 1268 254 1288 q 189 1250 205 1259 q 157 1230 172 1240 q 133 1212 142 1221 q 123 1200 123 1204 q 126 1192 123 1197 q 220 1071 163 1112 q 273 1043 244 1053 q 332 1033 301 1033 q 414 1049 362 1033 q 532 1117 466 1065 q 644 1291 642 1203 "},"":{"ha":593,"x_min":36,"x_max":566,"o":"m 566 125 q 415 82 488 82 q 273 126 328 82 q 197 253 218 171 q 321 330 272 296 q 390 381 357 353 q 450 438 424 408 q 492 499 476 468 q 509 568 509 531 q 483 635 509 606 q 414 665 455 665 q 248 600 336 665 q 109 448 165 538 q 50 279 50 355 q 100 84 50 164 q 168 17 127 43 q 256 -9 210 -9 q 335 -4 303 -9 q 566 125 473 22 m 361 397 q 190 286 309 319 q 184 359 184 322 q 287 570 184 570 q 355 536 329 570 q 373 502 367 521 q 379 454 379 482 q 361 397 379 427 m 557 953 q 531 934 551 945 q 487 909 510 922 q 445 883 464 896 q 423 854 427 870 q 405 817 420 838 q 384 795 397 804 q 346 785 371 785 q 292 802 321 785 q 168 953 212 845 q 132 930 167 950 q 101 912 118 922 q 70 892 84 902 q 45 874 55 883 q 36 863 36 866 q 39 854 36 859 q 132 733 76 774 q 185 705 157 715 q 244 695 214 695 q 327 711 275 695 q 444 779 378 728 q 557 953 555 865 "},"":{"ha":768,"x_min":38,"x_max":750,"o":"m 38 884 l 165 884 l 165 536 q 70 463 129 510 l 165 463 l 165 162 q 104 0 165 83 l 536 0 q 602 26 553 0 q 750 127 715 86 l 708 110 q 628 92 667 92 l 251 92 q 274 118 265 99 q 297 241 297 166 l 297 463 l 494 463 q 564 508 511 463 q 602 539 585 525 q 626 555 618 554 l 297 555 l 297 884 l 598 884 q 630 898 610 884 q 686 944 649 912 q 730 976 722 975 l 170 976 q 38 884 151 976 m 501 1118 l 398 1214 l 267 1122 l 370 1025 l 501 1118 "},"":{"ha":593,"x_min":50,"x_max":566,"o":"m 566 125 q 415 82 488 82 q 273 126 328 82 q 197 253 218 171 q 321 330 272 296 q 390 381 357 353 q 450 438 424 408 q 492 499 476 468 q 509 568 509 531 q 483 635 509 606 q 414 665 455 665 q 248 600 336 665 q 109 448 165 538 q 50 279 50 355 q 100 84 50 164 q 168 17 127 43 q 256 -9 210 -9 q 335 -4 303 -9 q 566 125 473 22 m 361 397 q 190 286 309 319 q 184 359 184 322 q 287 570 184 570 q 355 536 329 570 q 373 502 367 521 q 379 454 379 482 q 361 397 379 427 m 414 792 l 311 888 l 179 795 l 282 699 l 414 792 "},"":{"ha":768,"x_min":38,"x_max":751,"o":"m 38 884 l 165 884 l 165 536 q 70 463 129 510 l 165 463 l 165 162 q 104 0 165 83 l 509 0 q 416 -85 452 -37 q 388 -139 399 -111 q 378 -206 378 -168 q 412 -281 378 -245 q 492 -319 447 -319 q 618 -270 542 -319 q 751 -172 751 -186 l 751 -172 q 722 -188 736 -178 q 627 -227 661 -227 q 543 -190 578 -227 q 506 -105 506 -153 q 549 2 506 -52 q 618 34 570 8 q 750 127 720 90 l 708 110 q 628 92 667 92 l 251 92 q 274 118 265 99 q 297 241 297 166 l 297 463 l 494 463 q 564 508 511 463 q 602 539 585 525 q 626 555 618 554 l 297 555 l 297 884 l 598 884 q 630 898 610 884 q 686 944 649 912 q 730 976 722 975 l 170 976 q 38 884 151 976 "},"":{"ha":593,"x_min":50,"x_max":566,"o":"m 313 -7 q 228 -90 260 -44 q 202 -142 212 -115 q 193 -207 193 -169 q 227 -281 193 -245 q 307 -319 262 -319 q 434 -270 357 -319 q 566 -172 566 -186 l 566 -172 q 536 -188 551 -178 q 441 -227 475 -227 q 357 -190 393 -227 q 321 -105 321 -153 q 364 3 321 -54 q 468 46 412 15 q 566 125 524 78 q 415 82 488 82 q 273 126 328 82 q 197 253 218 171 q 321 330 272 296 q 390 381 357 353 q 450 438 424 408 q 492 499 476 468 q 509 568 509 531 q 483 635 509 606 q 414 665 455 665 q 248 600 336 665 q 109 448 165 538 q 50 279 50 355 q 100 84 50 164 q 269 -9 160 -9 q 313 -7 292 -9 m 361 397 q 190 286 309 319 q 184 359 184 322 q 287 570 184 570 q 355 536 329 570 q 373 502 367 521 q 379 454 379 482 q 361 397 379 427 "},"":{"ha":768,"x_min":38,"x_max":750,"o":"m 38 884 l 165 884 l 165 536 q 70 463 129 510 l 165 463 l 165 162 q 104 0 165 83 l 536 0 q 602 26 553 0 q 750 127 715 86 l 708 110 q 628 92 667 92 l 251 92 q 274 118 265 99 q 297 241 297 166 l 297 463 l 494 463 q 564 508 511 463 q 602 539 585 525 q 626 555 618 554 l 297 555 l 297 884 l 598 884 q 630 898 610 884 q 686 944 649 912 q 730 976 722 975 l 170 976 q 38 884 151 976 m 159 1190 q 175 1173 163 1186 q 204 1142 187 1160 q 239 1104 220 1124 q 273 1067 258 1084 q 300 1039 289 1050 q 313 1028 311 1028 q 341 1044 315 1028 q 439 1118 368 1059 l 608 1280 q 525 1220 588 1260 q 498 1205 509 1211 q 480 1192 488 1199 l 424 1139 q 357 1212 421 1142 q 288 1282 293 1282 q 159 1190 275 1282 "},"":{"ha":593,"x_min":50,"x_max":566,"o":"m 566 125 q 415 82 488 82 q 273 126 328 82 q 197 253 218 171 q 321 330 272 296 q 390 381 357 353 q 450 438 424 408 q 492 499 476 468 q 509 568 509 531 q 483 635 509 606 q 414 665 455 665 q 248 600 336 665 q 109 448 165 538 q 50 279 50 355 q 100 84 50 164 q 168 17 127 43 q 256 -9 210 -9 q 335 -4 303 -9 q 566 125 473 22 m 361 397 q 190 286 309 319 q 184 359 184 322 q 287 570 184 570 q 355 536 329 570 q 373 502 367 521 q 379 454 379 482 q 361 397 379 427 m 72 831 q 87 815 75 828 q 116 784 100 802 q 152 746 133 766 q 186 709 170 726 q 212 681 201 692 q 225 670 223 670 q 254 686 227 670 q 351 760 281 701 l 521 922 q 437 862 500 902 q 411 847 422 852 q 393 834 400 841 l 336 781 q 270 854 334 784 q 201 924 205 924 q 72 831 188 924 "},"":{"ha":1110,"x_min":62,"x_max":1084,"o":"m 1084 515 l 807 515 q 701 444 789 515 l 675 422 l 870 422 l 870 127 q 818 98 850 109 q 616 68 730 68 q 309 201 427 68 q 195 519 195 328 q 281 818 195 718 q 395 897 326 869 q 577 924 465 924 q 788 899 689 924 q 881 849 881 876 q 869 831 881 842 q 861 824 865 827 q 856 819 857 821 q 903 848 867 823 q 941 873 921 859 q 977 899 960 886 q 1004 921 994 911 q 1015 937 1015 931 q 1008 947 1015 942 q 932 980 978 966 q 701 1015 815 1015 q 366 918 534 1015 q 117 677 198 821 q 62 432 62 583 q 180 103 62 228 q 322 8 239 43 q 520 -26 405 -26 q 779 45 635 -26 q 1000 215 922 115 l 1000 450 q 1049 490 1020 468 q 1084 515 1078 513 m 779 1153 q 764 1170 776 1156 q 735 1201 751 1183 q 700 1239 718 1219 q 665 1276 681 1259 q 639 1303 650 1293 q 625 1314 628 1314 q 564 1275 621 1314 q 500 1224 523 1247 l 330 1063 q 414 1122 351 1082 q 440 1138 429 1132 q 458 1150 451 1143 l 515 1204 q 582 1130 517 1200 q 650 1060 646 1060 q 779 1153 663 1060 "},"":{"ha":659,"x_min":-2,"x_max":700,"o":"m 640 659 l 443 664 q 271 623 359 664 q 121 511 177 578 q 57 349 57 435 q 105 202 57 264 q 163 154 129 172 q 233 135 197 135 q 298 144 269 135 q 260 117 284 133 q 161 5 161 51 q 241 -73 161 -40 q 198 -99 223 -85 q 146 -127 173 -112 q 92 -160 119 -142 q 45 -199 66 -178 q 11 -247 24 -221 q -2 -307 -2 -273 q 45 -369 -2 -342 q 92 -389 66 -381 q 146 -402 119 -397 q 199 -410 174 -408 q 261 -412 225 -412 q 350 -402 296 -412 q 623 -288 517 -371 q 692 -185 692 -233 q 626 -91 692 -138 q 560 -53 597 -70 q 488 -21 524 -35 q 422 5 453 -6 q 367 25 391 16 q 319 53 342 35 q 299 75 307 62 q 292 106 292 88 q 314 142 292 124 q 371 182 337 161 q 446 229 406 203 q 520 289 486 254 q 577 369 554 323 q 600 473 600 414 q 574 581 600 531 q 647 616 604 588 q 700 673 699 650 q 640 659 677 659 m 207 545 q 304 571 225 571 q 426 516 384 571 q 468 364 468 460 q 450 277 468 314 q 375 226 427 226 q 234 290 284 226 q 200 358 211 319 q 189 458 189 397 q 198 531 189 518 q 207 545 207 545 m 526 -299 q 480 -314 509 -309 q 419 -319 452 -319 q 321 -305 387 -319 q 134 -226 134 -266 q 184 -131 134 -173 q 271 -84 209 -111 q 466 -155 426 -136 q 532 -196 507 -174 q 557 -240 557 -218 q 550 -275 557 -262 q 534 -294 543 -289 q 526 -299 526 -299 m 553 805 q 538 822 550 808 q 509 853 526 836 q 474 891 492 871 q 439 928 455 911 q 413 956 424 945 q 399 966 402 966 q 338 927 395 966 q 274 876 297 899 l 104 715 q 188 774 125 734 q 214 790 203 784 q 233 802 225 795 l 289 856 q 356 782 292 852 q 425 712 420 712 q 553 805 437 712 "},"":{"ha":1110,"x_min":62,"x_max":1084,"o":"m 1084 515 l 807 515 q 701 444 789 515 l 675 422 l 870 422 l 870 127 q 818 98 850 109 q 616 68 730 68 q 309 201 427 68 q 195 519 195 328 q 281 818 195 718 q 395 897 326 869 q 577 924 465 924 q 788 899 689 924 q 881 849 881 876 q 869 831 881 842 q 861 824 865 827 q 856 819 857 821 q 903 848 867 823 q 941 873 921 859 q 977 899 960 886 q 1004 921 994 911 q 1015 937 1015 931 q 1008 947 1015 942 q 932 980 978 966 q 701 1015 815 1015 q 366 918 534 1015 q 117 677 198 821 q 62 432 62 583 q 180 103 62 228 q 322 8 239 43 q 520 -26 405 -26 q 779 45 635 -26 q 1000 215 922 115 l 1000 450 q 1049 490 1020 468 q 1084 515 1078 513 m 815 1302 q 789 1283 810 1295 q 745 1258 768 1272 q 704 1232 722 1245 q 682 1203 685 1219 q 663 1166 678 1187 q 642 1144 655 1154 q 605 1135 629 1135 q 551 1151 580 1135 q 426 1302 471 1194 q 391 1280 425 1299 q 359 1261 376 1271 q 328 1242 342 1251 q 304 1224 313 1232 q 294 1212 294 1215 q 297 1204 294 1208 q 391 1082 334 1123 q 444 1055 415 1065 q 503 1044 472 1044 q 585 1061 533 1044 q 703 1128 637 1077 q 815 1302 813 1215 "},"":{"ha":659,"x_min":-2,"x_max":700,"o":"m 640 659 l 443 664 q 271 623 359 664 q 121 511 177 578 q 57 349 57 435 q 105 202 57 264 q 163 154 129 172 q 233 135 197 135 q 298 144 269 135 q 260 117 284 133 q 161 5 161 51 q 241 -73 161 -40 q 198 -99 223 -85 q 146 -127 173 -112 q 92 -160 119 -142 q 45 -199 66 -178 q 11 -247 24 -221 q -2 -307 -2 -273 q 45 -369 -2 -342 q 92 -389 66 -381 q 146 -402 119 -397 q 199 -410 174 -408 q 261 -412 225 -412 q 350 -402 296 -412 q 623 -288 517 -371 q 692 -185 692 -233 q 626 -91 692 -138 q 560 -53 597 -70 q 488 -21 524 -35 q 422 5 453 -6 q 367 25 391 16 q 319 53 342 35 q 299 75 307 62 q 292 106 292 88 q 314 142 292 124 q 371 182 337 161 q 446 229 406 203 q 520 289 486 254 q 577 369 554 323 q 600 473 600 414 q 574 581 600 531 q 647 616 604 588 q 700 673 699 650 q 640 659 677 659 m 207 545 q 304 571 225 571 q 426 516 384 571 q 468 364 468 460 q 450 277 468 314 q 375 226 427 226 q 234 290 284 226 q 200 358 211 319 q 189 458 189 397 q 198 531 189 518 q 207 545 207 545 m 526 -299 q 480 -314 509 -309 q 419 -319 452 -319 q 321 -305 387 -319 q 134 -226 134 -266 q 184 -131 134 -173 q 271 -84 209 -111 q 466 -155 426 -136 q 532 -196 507 -174 q 557 -240 557 -218 q 550 -275 557 -262 q 534 -294 543 -289 q 526 -299 526 -299 m 589 955 q 563 936 584 947 q 519 911 543 924 q 478 885 496 898 q 456 856 459 872 q 437 819 452 840 q 416 797 429 806 q 379 787 404 787 q 325 804 354 787 q 200 955 245 847 q 165 932 199 952 q 134 914 151 924 q 102 895 117 904 q 78 877 87 885 q 68 865 68 868 q 71 857 68 861 q 165 735 109 776 q 218 707 189 718 q 277 697 246 697 q 359 713 307 697 q 477 781 411 730 q 589 955 587 867 "},"":{"ha":1110,"x_min":62,"x_max":1084,"o":"m 1084 515 l 807 515 q 701 444 789 515 l 675 422 l 870 422 l 870 127 q 818 98 850 109 q 616 68 730 68 q 309 201 427 68 q 195 519 195 328 q 281 818 195 718 q 395 897 326 869 q 577 924 465 924 q 788 899 689 924 q 881 849 881 876 q 869 831 881 842 q 861 824 865 827 q 856 819 857 821 q 903 848 867 823 q 941 873 921 859 q 977 899 960 886 q 1004 921 994 911 q 1015 937 1015 931 q 1008 947 1015 942 q 932 980 978 966 q 701 1015 815 1015 q 366 918 534 1015 q 117 677 198 821 q 62 432 62 583 q 180 103 62 228 q 322 8 239 43 q 520 -26 405 -26 q 779 45 635 -26 q 1000 215 922 115 l 1000 450 q 1049 490 1020 468 q 1084 515 1078 513 m 672 1138 l 569 1234 l 437 1141 l 541 1045 l 672 1138 "},"":{"ha":659,"x_min":-2,"x_max":700,"o":"m 640 659 l 443 664 q 271 623 359 664 q 121 511 177 578 q 57 349 57 435 q 105 202 57 264 q 163 154 129 172 q 233 135 197 135 q 298 144 269 135 q 260 117 284 133 q 161 5 161 51 q 241 -73 161 -40 q 198 -99 223 -85 q 146 -127 173 -112 q 92 -160 119 -142 q 45 -199 66 -178 q 11 -247 24 -221 q -2 -307 -2 -273 q 45 -369 -2 -342 q 92 -389 66 -381 q 146 -402 119 -397 q 199 -410 174 -408 q 261 -412 225 -412 q 350 -402 296 -412 q 623 -288 517 -371 q 692 -185 692 -233 q 626 -91 692 -138 q 560 -53 597 -70 q 488 -21 524 -35 q 422 5 453 -6 q 367 25 391 16 q 319 53 342 35 q 299 75 307 62 q 292 106 292 88 q 314 142 292 124 q 371 182 337 161 q 446 229 406 203 q 520 289 486 254 q 577 369 554 323 q 600 473 600 414 q 574 581 600 531 q 647 616 604 588 q 700 673 699 650 q 640 659 677 659 m 207 545 q 304 571 225 571 q 426 516 384 571 q 468 364 468 460 q 450 277 468 314 q 375 226 427 226 q 234 290 284 226 q 200 358 211 319 q 189 458 189 397 q 198 531 189 518 q 207 545 207 545 m 526 -299 q 480 -314 509 -309 q 419 -319 452 -319 q 321 -305 387 -319 q 134 -226 134 -266 q 184 -131 134 -173 q 271 -84 209 -111 q 466 -155 426 -136 q 532 -196 507 -174 q 557 -240 557 -218 q 550 -275 557 -262 q 534 -294 543 -289 q 526 -299 526 -299 m 446 797 l 343 892 l 212 800 l 315 704 l 446 797 "},"":{"ha":1110,"x_min":62,"x_max":1084,"o":"m 1084 515 l 807 515 q 701 444 789 515 l 675 422 l 870 422 l 870 127 q 818 98 850 109 q 616 68 730 68 q 309 201 427 68 q 195 519 195 328 q 281 818 195 718 q 395 897 326 869 q 577 924 465 924 q 788 899 689 924 q 881 849 881 876 q 869 831 881 842 q 861 824 865 827 q 856 819 857 821 q 903 848 867 823 q 941 873 921 859 q 977 899 960 886 q 1004 921 994 911 q 1015 937 1015 931 q 1008 947 1015 942 q 932 980 978 966 q 701 1015 815 1015 q 366 918 534 1015 q 117 677 198 821 q 62 432 62 583 q 180 103 62 228 q 322 8 239 43 q 520 -26 405 -26 q 779 45 635 -26 q 1000 215 922 115 l 1000 450 q 1049 490 1020 468 q 1084 515 1078 513 m 525 -371 q 556 -351 531 -366 q 576 -336 570 -342 q 625 -257 610 -302 q 631 -176 640 -212 q 605 -117 621 -140 q 575 -71 589 -94 q 547 -88 574 -71 q 520 -105 534 -96 q 494 -123 506 -115 q 475 -138 483 -132 q 469 -145 468 -144 l 526 -235 q 529 -235 526 -236 q 570 -224 559 -216 q 581 -256 581 -234 q 525 -371 581 -315 "},"":{"ha":659,"x_min":-2,"x_max":700,"o":"m 640 659 l 443 664 q 271 623 359 664 q 121 511 177 578 q 57 349 57 435 q 105 202 57 264 q 163 154 129 172 q 233 135 197 135 q 298 144 269 135 q 260 117 284 133 q 161 5 161 51 q 241 -73 161 -40 q 198 -99 223 -85 q 146 -127 173 -112 q 92 -160 119 -142 q 45 -199 66 -178 q 11 -247 24 -221 q -2 -307 -2 -273 q 45 -369 -2 -342 q 92 -389 66 -381 q 146 -402 119 -397 q 199 -410 174 -408 q 261 -412 225 -412 q 350 -402 296 -412 q 623 -288 517 -371 q 692 -185 692 -233 q 626 -91 692 -138 q 560 -53 597 -70 q 488 -21 524 -35 q 422 5 453 -6 q 367 25 391 16 q 319 53 342 35 q 299 75 307 62 q 292 106 292 88 q 314 142 292 124 q 371 182 337 161 q 446 229 406 203 q 520 289 486 254 q 577 369 554 323 q 600 473 600 414 q 574 581 600 531 q 647 616 604 588 q 700 673 699 650 q 640 659 677 659 m 207 545 q 304 571 225 571 q 426 516 384 571 q 468 364 468 460 q 450 277 468 314 q 375 226 427 226 q 234 290 284 226 q 200 358 211 319 q 189 458 189 397 q 198 531 189 518 q 207 545 207 545 m 526 -299 q 480 -314 509 -309 q 419 -319 452 -319 q 321 -305 387 -319 q 134 -226 134 -266 q 184 -131 134 -173 q 271 -84 209 -111 q 466 -155 426 -136 q 532 -196 507 -174 q 557 -240 557 -218 q 550 -275 557 -262 q 534 -294 543 -289 q 526 -299 526 -299 m 359 1001 q 336 985 355 996 q 260 887 282 954 q 254 806 244 842 q 279 747 263 770 q 310 701 296 724 q 338 718 310 699 q 385 748 351 726 q 416 775 418 770 l 359 865 q 356 863 358 865 q 315 854 328 844 q 304 886 304 864 q 359 1001 304 946 "},"":{"ha":1129,"x_min":40,"x_max":1105,"o":"m 1105 92 l 888 92 q 930 176 920 139 q 936 263 936 199 l 936 884 l 972 884 q 1017 907 986 884 q 1063 947 1030 918 q 1105 976 1097 976 l 809 976 q 703 905 789 976 l 677 884 l 804 884 l 804 555 l 299 555 l 299 884 l 336 884 q 380 907 349 884 q 427 947 393 918 q 468 976 460 976 l 172 976 q 66 905 153 976 l 40 884 l 167 884 l 167 162 q 164 108 167 132 q 106 0 156 39 l 336 0 q 380 24 349 0 q 426 62 393 34 q 468 92 458 91 l 250 92 q 293 176 283 140 q 299 263 299 199 l 299 463 l 804 463 l 804 162 q 789 64 804 102 q 743 0 779 40 l 972 0 q 1061 60 991 0 q 1105 92 1097 92 m 789 1118 q 773 1135 785 1122 q 744 1166 761 1149 q 709 1204 728 1184 q 675 1241 690 1224 q 648 1269 659 1258 q 634 1280 637 1280 q 573 1240 631 1280 q 509 1190 532 1213 l 340 1029 q 423 1087 360 1048 q 450 1103 439 1097 q 468 1116 460 1109 l 524 1169 q 591 1096 527 1166 q 660 1025 655 1025 q 789 1118 673 1025 "},"":{"ha":754,"x_min":-14,"x_max":756,"o":"m 236 148 l 236 353 q 239 420 236 384 q 356 564 251 564 q 464 530 435 564 q 496 391 496 494 l 496 87 q 502 39 496 61 q 524 3 508 18 q 570 -11 541 -11 q 625 -3 600 -11 q 756 92 700 20 q 697 75 718 75 q 671 77 684 75 q 628 176 628 87 l 628 522 q 580 621 628 581 q 531 649 558 639 q 473 659 503 659 q 410 648 442 659 q 236 547 321 621 l 236 1168 q -14 998 69 1063 q 50 1008 21 1008 q 79 997 68 1008 q 104 901 104 973 l 104 127 q 115 41 104 75 q 136 5 123 20 q 180 -11 149 -9 q 237 3 210 -13 q 317 92 290 33 q 275 80 289 80 q 236 148 236 80 m 589 794 q 576 808 586 797 q 552 833 566 819 q 523 864 538 848 q 495 895 508 881 q 473 918 482 909 q 461 926 464 926 q 411 894 459 926 q 359 852 378 871 l 219 720 q 288 768 236 736 q 309 781 301 777 q 325 792 318 786 l 371 836 q 426 775 373 833 q 483 718 479 718 q 589 794 493 718 "},"":{"ha":1129,"x_min":25,"x_max":1105,"o":"m 1105 92 l 888 92 q 930 176 920 139 q 936 263 936 199 l 936 634 l 948 634 q 980 648 960 634 q 1035 694 999 663 q 1080 726 1072 726 l 936 726 l 936 884 l 972 884 q 1017 907 986 884 q 1063 947 1030 918 q 1105 976 1097 976 l 809 976 q 703 905 789 976 l 677 884 l 804 884 l 804 726 l 299 726 l 299 884 l 336 884 q 380 907 349 884 q 427 947 393 918 q 468 976 460 976 l 172 976 q 66 905 153 976 l 40 884 l 167 884 l 167 726 l 157 726 q 125 712 144 726 q 70 666 106 698 q 25 634 33 635 l 167 634 l 167 162 q 164 108 167 132 q 106 0 156 39 l 336 0 q 380 24 349 0 q 426 62 393 34 q 468 92 458 91 l 250 92 q 293 176 283 140 q 299 263 299 199 l 299 463 l 804 463 l 804 162 q 789 64 804 102 q 743 0 779 40 l 972 0 q 1061 60 991 0 q 1105 92 1097 92 m 804 555 l 299 555 l 299 634 l 804 634 l 804 555 "},"":{"ha":754,"x_min":-14,"x_max":756,"o":"m 236 148 l 236 353 q 239 420 236 384 q 356 564 251 564 q 464 530 435 564 q 496 391 496 494 l 496 87 q 502 39 496 61 q 524 3 508 18 q 570 -11 541 -11 q 625 -3 600 -11 q 756 92 700 20 q 697 75 718 75 q 671 77 684 75 q 628 176 628 87 l 628 522 q 580 621 628 581 q 531 649 558 639 q 473 659 503 659 q 410 648 442 659 q 236 547 321 621 l 236 726 q 305 783 255 739 q 338 805 330 804 l 236 805 l 236 1168 q -14 998 69 1063 q 50 1008 21 1008 q 79 997 68 1008 q 104 901 104 973 l 104 794 q 32 735 89 785 q -1 713 6 713 l 104 713 l 104 127 q 115 41 104 75 q 136 5 123 20 q 180 -11 149 -9 q 237 3 210 -13 q 317 92 290 33 q 275 80 289 80 q 236 148 236 80 "},"":{"ha":497,"x_min":-64,"x_max":563,"o":"m 40 884 l 167 884 l 167 162 q 151 61 167 101 q 106 0 142 36 l 336 0 q 380 24 349 0 q 426 62 393 34 q 468 92 458 91 l 250 92 q 299 263 299 146 l 299 884 l 349 884 q 393 907 363 884 q 439 946 407 918 q 481 976 472 975 l 172 976 q 40 884 153 976 m 563 1201 q 530 1180 547 1192 q 424 1131 463 1131 q 311 1173 370 1131 q 268 1201 290 1188 q 217 1215 247 1215 q 158 1207 187 1215 q -64 1035 31 1173 q 88 1122 47 1122 q 159 1101 128 1122 q 186 1081 174 1091 q 222 1055 198 1070 q 288 1039 246 1039 q 563 1201 422 1039 "},"":{"ha":392,"x_min":-117,"x_max":511,"o":"m 394 83 q 351 79 369 79 q 267 116 286 79 q 258 203 258 134 l 258 682 q 181 635 218 661 q 123 595 144 609 q 72 559 102 581 q 9 512 43 538 q 30 516 20 514 q 50 520 40 518 q 74 522 60 522 q 100 511 88 522 q 127 416 127 490 l 127 95 q 161 0 127 26 q 220 -13 178 -13 q 314 19 265 -13 q 354 50 335 33 q 394 83 374 67 m 511 905 q 477 884 494 897 q 372 835 410 835 q 259 877 317 835 q 216 906 237 892 q 165 919 195 919 q 106 911 135 919 q -117 739 -22 877 q 36 827 -5 827 q 107 805 76 827 q 134 785 121 795 q 170 759 146 774 q 235 743 194 743 q 511 905 370 743 "},"":{"ha":497,"x_min":-61,"x_max":560,"o":"m 40 884 l 167 884 l 167 162 q 151 61 167 101 q 106 0 142 36 l 336 0 q 380 24 349 0 q 426 62 393 34 q 468 92 458 91 l 250 92 q 299 263 299 146 l 299 884 l 349 884 q 393 907 363 884 q 439 946 407 918 q 481 976 472 975 l 172 976 q 40 884 153 976 m 560 1139 l 71 1139 q 39 1125 58 1139 q -17 1079 20 1111 q -61 1046 -54 1047 l 429 1046 q 473 1070 443 1046 q 499 1092 486 1080 q 532 1121 513 1104 q 560 1139 551 1138 "},"":{"ha":392,"x_min":-114,"x_max":507,"o":"m 394 83 q 351 79 369 79 q 267 116 286 79 q 258 203 258 134 l 258 682 q 181 635 218 661 q 123 595 144 609 q 72 559 102 581 q 9 512 43 538 q 30 516 20 514 q 50 520 40 518 q 74 522 60 522 q 100 511 88 522 q 127 416 127 490 l 127 95 q 161 0 127 26 q 220 -13 178 -13 q 314 19 265 -13 q 354 50 335 33 q 394 83 374 67 m 507 844 l 18 844 q -14 830 5 844 q -70 784 -33 816 q -114 751 -107 752 l 376 751 q 420 775 390 751 q 446 797 433 785 q 479 826 460 809 q 507 844 498 843 "},"":{"ha":497,"x_min":-11,"x_max":510,"o":"m 40 884 l 167 884 l 167 162 q 151 61 167 101 q 106 0 142 36 l 336 0 q 380 24 349 0 q 426 62 393 34 q 468 92 458 91 l 250 92 q 299 263 299 146 l 299 884 l 349 884 q 393 907 363 884 q 439 946 407 918 q 481 976 472 975 l 172 976 q 40 884 153 976 m 510 1293 q 484 1274 505 1286 q 440 1250 463 1263 q 398 1223 417 1236 q 376 1195 380 1211 q 358 1157 373 1179 q 337 1135 350 1145 q 299 1126 324 1126 q 245 1142 275 1126 q 121 1293 165 1185 q 85 1271 120 1291 q 54 1252 71 1262 q 23 1233 37 1242 q -1 1215 8 1223 q -11 1203 -11 1206 q -8 1195 -11 1200 q 85 1074 29 1114 q 138 1046 110 1056 q 197 1036 167 1036 q 280 1052 228 1036 q 397 1120 332 1068 q 510 1293 508 1206 "},"":{"ha":392,"x_min":-64,"x_max":457,"o":"m 394 83 q 351 79 369 79 q 267 116 286 79 q 258 203 258 134 l 258 682 q 181 635 218 661 q 123 595 144 609 q 72 559 102 581 q 9 512 43 538 q 30 516 20 514 q 50 520 40 518 q 74 522 60 522 q 100 511 88 522 q 127 416 127 490 l 127 95 q 161 0 127 26 q 220 -13 178 -13 q 314 19 265 -13 q 354 50 335 33 q 394 83 374 67 m 457 989 q 431 970 452 982 q 387 946 410 959 q 346 920 364 932 q 323 891 327 907 q 305 853 320 875 q 284 831 297 841 q 247 822 271 822 q 193 838 222 822 q 68 989 113 882 q 33 967 67 987 q 1 948 18 958 q -30 929 -16 939 q -54 911 -45 920 q -64 899 -64 903 q -61 891 -64 896 q 33 770 -24 810 q 85 742 57 752 q 144 732 114 732 q 227 748 175 732 q 345 816 279 764 q 457 989 455 902 "},"":{"ha":497,"x_min":40,"x_max":481,"o":"m 277 0 l 336 0 q 380 24 349 0 q 426 62 393 34 q 468 92 458 91 l 250 92 q 299 263 299 146 l 299 884 l 349 884 q 393 907 363 884 q 439 946 407 918 q 481 976 472 975 l 172 976 q 40 884 153 976 l 167 884 l 167 162 q 151 61 167 101 q 106 0 142 36 l 239 0 q 146 -85 182 -37 q 118 -139 129 -111 q 108 -206 108 -168 q 142 -281 108 -245 q 222 -319 177 -319 q 349 -270 272 -319 q 481 -172 481 -186 l 481 -172 q 452 -188 467 -178 q 357 -227 391 -227 q 273 -190 308 -227 q 236 -105 236 -153 q 277 0 236 -54 "},"":{"ha":392,"x_min":9,"x_max":469,"o":"m 469 -172 l 469 -172 q 440 -188 455 -178 q 345 -227 379 -227 q 260 -190 296 -227 q 224 -105 224 -153 q 260 -7 224 -57 q 330 31 293 3 q 362 57 347 43 q 394 83 378 71 q 351 79 369 79 q 267 116 286 79 q 258 203 258 134 l 258 682 q 181 635 218 661 q 123 595 144 609 q 72 559 102 581 q 9 512 43 538 q 30 516 20 514 q 50 520 40 518 q 74 522 60 522 q 100 511 88 522 q 127 416 127 490 l 127 95 q 157 3 127 31 q 209 -13 172 -11 q 129 -95 159 -48 q 105 -144 114 -118 q 96 -208 96 -170 q 130 -281 96 -245 q 211 -319 165 -319 q 338 -270 260 -319 q 469 -172 469 -186 m 252 1151 l 121 1059 q 124 982 124 984 q 121 911 124 979 q 231 985 193 958 q 248 999 240 991 q 256 1038 256 1006 l 256 1074 l 252 1151 "},"":{"ha":497,"x_min":40,"x_max":481,"o":"m 40 884 l 167 884 l 167 162 q 151 61 167 101 q 106 0 142 36 l 336 0 q 380 24 349 0 q 426 62 393 34 q 468 92 458 91 l 250 92 q 299 263 299 146 l 299 884 l 349 884 q 393 907 363 884 q 439 946 407 918 q 481 976 472 975 l 172 976 q 40 884 153 976 m 366 1133 l 262 1228 l 131 1136 l 234 1040 l 366 1133 "},"":{"ha":392,"x_min":9,"x_max":394,"o":"m 394 83 q 351 79 369 79 q 267 116 286 79 q 258 203 258 134 l 258 682 q 181 635 218 661 q 123 595 144 609 q 72 559 102 581 q 9 512 43 538 q 30 516 20 514 q 50 520 40 518 q 74 522 60 522 q 100 511 88 522 q 127 416 127 490 l 127 95 q 161 0 127 26 q 220 -13 178 -13 q 314 19 265 -13 q 354 50 335 33 q 394 83 374 67 "},"":{"ha":979,"x_min":40,"x_max":977,"o":"m 40 884 l 167 884 l 167 162 q 151 61 167 101 q 106 0 142 36 l 336 0 q 380 24 349 0 q 426 62 393 34 q 468 92 458 91 l 250 92 q 299 263 299 146 l 299 884 l 349 884 q 393 907 363 884 q 439 946 407 918 q 481 976 472 975 l 172 976 q 40 884 153 976 m 977 976 l 667 976 q 602 936 653 976 q 563 905 581 920 q 536 884 544 890 l 663 884 l 663 58 q 654 -79 663 -23 q 638 -152 649 -117 q 609 -215 628 -187 q 563 -260 591 -243 q 495 -277 535 -277 q 399 -254 454 -277 q 343 -224 376 -243 q 310 -196 310 -204 q 345 -155 310 -179 q 291 -190 326 -165 q 181 -286 181 -266 q 219 -326 181 -304 q 280 -352 236 -335 q 359 -368 324 -368 q 584 -285 479 -368 q 737 -86 679 -209 q 794 151 794 33 l 794 884 l 845 884 q 876 897 857 884 q 929 942 894 911 q 977 976 964 972 "},"":{"ha":760,"x_min":9,"x_max":652,"o":"m 252 1151 l 121 1059 q 124 982 124 984 q 121 911 124 979 q 231 985 193 958 q 248 999 240 991 q 256 1038 256 1006 l 256 1074 l 252 1151 m 394 83 q 351 79 369 79 q 267 116 286 79 q 258 203 258 134 l 258 682 q 181 635 218 661 q 123 595 144 609 q 72 559 102 581 q 9 512 43 538 q 30 516 20 514 q 50 520 40 518 q 74 522 60 522 q 100 511 88 522 q 127 416 127 490 l 127 95 q 161 0 127 26 q 220 -13 178 -13 q 314 19 265 -13 q 354 50 335 33 q 394 83 374 67 m 646 1151 l 514 1059 q 516 974 516 1015 q 514 911 516 934 q 529 921 518 913 q 555 937 541 928 q 585 957 570 946 q 614 977 601 967 q 638 995 627 986 q 648 1034 648 1003 l 648 1078 q 646 1151 648 1107 m 433 -254 q 380 -289 422 -264 q 347 -309 363 -298 q 308 -338 330 -320 q 286 -376 286 -355 q 330 -409 286 -409 q 495 -338 419 -409 q 558 -263 530 -305 q 606 -174 586 -220 q 638 -72 625 -128 q 652 133 652 -15 l 652 682 q 402 512 485 577 q 466 522 442 522 q 496 510 484 522 q 520 410 520 486 l 520 15 q 518 -70 520 -26 q 458 -317 513 -226 l 457 -317 q 430 -309 443 -317 q 417 -284 417 -301 q 433 -254 417 -267 "},"":{"ha":481,"x_min":-316,"x_max":479,"o":"m 479 976 l 170 976 q 104 936 156 976 q 65 905 84 920 q 39 884 47 890 l 165 884 l 165 58 q 157 -79 165 -23 q 141 -152 152 -117 q 112 -215 131 -187 q 66 -260 94 -243 q -2 -277 38 -277 q -98 -254 -43 -277 q -154 -224 -121 -243 q -187 -196 -187 -204 q -152 -155 -187 -179 q -206 -190 -172 -165 q -316 -286 -316 -266 q -278 -326 -316 -304 q -217 -352 -261 -335 q -138 -368 -173 -368 q 87 -285 -18 -368 q 240 -86 182 -209 q 297 151 297 33 l 297 884 l 348 884 q 378 897 360 884 q 432 942 397 911 q 479 976 467 972 m 465 1120 q 450 1137 462 1124 q 421 1168 437 1151 q 386 1206 404 1186 q 351 1243 367 1226 q 325 1271 336 1260 q 311 1282 314 1282 q 250 1242 307 1282 q 186 1192 209 1215 l 16 1031 q 100 1089 37 1050 q 126 1105 115 1099 q 144 1118 137 1111 l 201 1171 q 268 1098 203 1168 q 336 1027 332 1027 q 465 1120 349 1027 "},"":{"ha":368,"x_min":-106,"x_max":409,"o":"m 41 -254 q -12 -289 30 -264 q -45 -309 -28 -298 q -84 -338 -62 -320 q -106 -376 -106 -355 q -62 -409 -106 -409 q 103 -338 27 -409 q 166 -263 138 -305 q 214 -174 194 -220 q 247 -72 233 -128 q 260 133 260 -15 l 260 682 q 10 512 93 577 q 74 522 50 522 q 104 510 92 522 q 128 410 128 486 l 128 15 q 126 -70 128 -26 q 66 -317 121 -226 l 65 -317 q 38 -309 51 -317 q 25 -284 25 -301 q 41 -254 25 -267 m 409 821 q 393 838 406 824 q 365 869 381 851 q 329 906 348 886 q 295 943 311 926 q 269 971 279 960 q 254 982 258 982 q 193 943 251 982 q 130 892 153 915 l -40 731 q 43 789 -20 750 q 70 805 59 800 q 88 818 81 811 l 144 871 q 211 798 147 868 q 280 728 275 728 q 409 821 293 728 "},"":{"ha":1105,"x_min":41,"x_max":1164,"o":"m 758 884 l 858 884 q 902 906 873 884 q 946 945 914 916 q 990 976 977 973 l 721 976 q 674 951 713 976 q 589 884 636 926 l 708 884 q 313 493 641 807 q 465 349 392 418 q 602 220 538 280 q 669 160 637 189 q 724 111 701 131 q 783 58 747 90 q 863 7 819 26 q 1004 16 921 -18 q 1046 36 1026 25 q 1097 67 1067 47 q 1164 123 1126 87 q 1062 91 1093 91 q 937 137 1002 91 q 454 589 854 196 q 758 884 673 793 m 107 0 l 337 0 q 381 24 351 0 q 427 62 395 34 q 469 92 460 91 l 252 92 q 294 176 285 140 q 300 263 300 199 l 300 884 l 351 884 q 382 898 363 884 q 438 944 401 912 q 482 976 475 975 l 173 976 q 68 905 154 976 l 41 884 l 168 884 l 168 236 q 107 0 168 63 m 523 -371 q 554 -351 529 -366 q 574 -336 568 -342 q 623 -257 608 -302 q 629 -176 638 -212 q 603 -117 619 -140 q 573 -71 587 -94 q 545 -88 572 -71 q 518 -105 532 -96 q 492 -123 504 -115 q 473 -138 481 -132 q 467 -145 466 -144 l 524 -235 q 527 -235 524 -236 q 568 -224 557 -216 q 578 -256 578 -234 q 523 -371 578 -315 "},"":{"ha":724,"x_min":-13,"x_max":745,"o":"m 105 907 l 105 83 q 162 -14 105 -14 q 245 23 195 -14 q 284 56 266 39 q 317 85 303 73 q 288 78 302 78 q 240 121 250 78 q 236 160 236 140 q 237 195 237 180 l 237 265 q 433 58 354 138 q 494 5 471 20 q 518 -7 505 -2 q 552 -12 530 -12 q 602 -1 573 -12 q 745 112 686 32 q 651 85 699 85 q 571 143 632 85 q 515 199 545 168 q 459 258 486 229 q 413 309 433 286 q 382 342 392 332 q 498 431 459 392 q 545 489 526 458 q 564 558 564 520 q 535 627 564 596 q 503 648 522 640 q 460 656 484 656 q 406 646 437 656 q 237 546 313 614 l 237 1168 q 109 1089 178 1137 q 46 1043 77 1066 q -13 998 15 1019 q 45 1008 28 1008 q 105 907 105 1008 m 332 564 q 403 538 373 564 q 425 509 416 526 q 433 464 433 492 q 412 408 433 437 q 237 284 361 334 l 237 319 q 332 564 237 564 m 332 -371 q 363 -351 338 -366 q 383 -336 377 -342 q 432 -257 417 -302 q 437 -176 447 -212 q 412 -117 428 -140 q 382 -71 396 -94 q 353 -88 381 -71 q 327 -105 341 -96 q 301 -123 313 -115 q 282 -138 290 -132 q 276 -145 275 -144 l 333 -235 q 336 -235 333 -236 q 376 -224 366 -216 q 387 -256 387 -234 q 332 -371 387 -315 "},"":{"ha":724,"x_min":-13,"x_max":745,"o":"m 105 425 l 105 83 q 162 -14 105 -14 q 245 23 195 -14 q 284 56 266 39 q 317 85 303 73 q 288 78 302 78 q 240 121 250 78 q 236 160 236 140 q 237 195 237 180 l 237 265 q 433 58 354 138 q 494 5 471 20 q 518 -7 505 -2 q 552 -12 530 -12 q 602 -1 573 -12 q 745 112 686 32 q 651 85 699 85 q 571 143 632 85 q 515 199 545 168 q 459 258 486 229 q 413 309 433 286 q 382 342 392 332 q 498 431 459 392 q 545 489 526 458 q 564 558 564 520 q 535 627 564 596 q 503 648 522 640 q 460 656 484 656 q 406 646 437 656 q 237 546 313 614 l 237 686 q 109 606 178 655 q 46 561 77 584 q -13 516 15 537 q 45 526 28 526 q 105 425 105 526 m 332 564 q 403 538 373 564 q 425 509 416 526 q 433 464 433 492 q 412 408 433 437 q 237 284 361 334 l 237 319 q 332 564 237 564 "},"":{"ha":760,"x_min":42,"x_max":755,"o":"m 301 208 l 301 884 l 351 884 q 396 907 365 884 q 442 947 409 918 q 483 976 475 976 l 174 976 q 68 905 155 976 l 42 884 l 169 884 l 169 162 q 150 61 169 104 q 101 0 139 37 l 541 0 q 582 5 562 0 q 755 129 674 29 q 713 105 741 118 q 630 92 685 92 l 248 92 q 301 208 301 133 m 217 1021 q 316 1088 250 1040 q 452 1216 381 1137 q 505 1279 485 1252 q 543 1331 525 1307 q 526 1320 534 1325 q 509 1311 517 1316 q 496 1303 500 1306 q 454 1272 492 1300 q 415 1243 416 1244 q 310 1110 357 1165 q 217 1029 271 1065 l 217 1021 "},"":{"ha":374,"x_min":-8,"x_max":377,"o":"m 377 84 q 335 80 357 80 q 250 117 267 80 q 242 158 242 134 q 241 210 241 182 l 241 1145 q 185 1117 222 1135 q 115 1081 149 1099 q -8 1000 90 1067 q 5 1001 -3 1000 q 34 1002 12 1002 q 68 990 50 1002 q 110 869 110 962 l 110 144 q 111 90 110 117 q 193 -14 118 -14 q 292 18 244 -14 q 334 49 314 31 q 377 84 355 66 m 24 1088 q 123 1155 58 1106 q 260 1282 189 1204 q 312 1346 292 1318 q 351 1397 332 1373 q 333 1387 341 1392 q 316 1377 325 1382 q 303 1370 307 1373 q 261 1339 299 1367 q 222 1310 223 1311 q 117 1177 165 1232 q 24 1096 78 1131 l 24 1088 "},"":{"ha":760,"x_min":42,"x_max":755,"o":"m 301 208 l 301 884 l 351 884 q 396 907 365 884 q 442 947 409 918 q 483 976 475 976 l 174 976 q 68 905 155 976 l 42 884 l 169 884 l 169 162 q 150 61 169 104 q 101 0 139 37 l 541 0 q 582 5 562 0 q 755 129 674 29 q 713 105 741 118 q 630 92 685 92 l 248 92 q 301 208 301 133 m 350 -371 q 381 -351 356 -366 q 401 -336 395 -342 q 450 -257 435 -302 q 456 -176 465 -212 q 430 -117 446 -140 q 400 -71 414 -94 q 372 -88 399 -71 q 345 -105 359 -96 q 319 -123 331 -115 q 300 -138 308 -132 q 294 -145 293 -144 l 351 -235 q 354 -235 351 -236 q 395 -224 384 -216 q 406 -256 406 -234 q 350 -371 406 -315 "},"":{"ha":374,"x_min":-8,"x_max":377,"o":"m 377 84 q 335 80 357 80 q 250 117 267 80 q 242 158 242 134 q 241 210 241 182 l 241 1145 q 185 1117 222 1135 q 115 1081 149 1099 q -8 1000 90 1067 q 5 1001 -3 1000 q 34 1002 12 1002 q 68 990 50 1002 q 110 869 110 962 l 110 144 q 111 90 110 117 q 193 -14 118 -14 q 292 18 244 -14 q 334 49 314 31 q 377 84 355 66 m 157 -371 q 189 -351 163 -366 q 209 -336 203 -342 q 258 -257 243 -302 q 263 -176 273 -212 q 238 -117 254 -140 q 208 -71 222 -94 q 179 -88 207 -71 q 153 -105 167 -96 q 127 -123 138 -115 q 108 -138 115 -132 q 102 -145 100 -144 l 159 -235 q 161 -235 159 -236 q 202 -224 191 -216 q 213 -256 213 -234 q 157 -371 213 -315 "},"":{"ha":760,"x_min":42,"x_max":755,"o":"m 301 208 l 301 884 l 351 884 q 396 907 365 884 q 442 947 409 918 q 483 976 475 976 l 174 976 q 68 905 155 976 l 42 884 l 169 884 l 169 162 q 150 61 169 104 q 101 0 139 37 l 541 0 q 582 5 562 0 q 755 129 674 29 q 713 105 741 118 q 630 92 685 92 l 248 92 q 301 208 301 133 m 549 859 q 581 878 555 864 q 601 893 595 887 q 650 973 635 928 q 656 1054 665 1018 q 630 1112 646 1089 q 600 1158 614 1135 q 537 1120 598 1160 q 494 1085 492 1090 l 551 994 q 553 995 551 994 q 593 1005 583 1014 q 605 974 605 996 q 549 859 605 914 "},"":{"ha":465,"x_min":-8,"x_max":463,"o":"m 377 84 q 335 80 357 80 q 250 117 267 80 q 242 158 242 134 q 241 210 241 182 l 241 1145 q 185 1117 222 1135 q 115 1081 149 1099 q -8 1000 90 1067 q 5 1001 -3 1000 q 34 1002 12 1002 q 68 990 50 1002 q 110 869 110 962 l 110 144 q 111 90 110 117 q 193 -14 118 -14 q 292 18 244 -14 q 334 49 314 31 q 377 84 355 66 m 356 833 q 387 853 362 839 q 408 868 401 862 q 457 948 441 903 q 463 1028 472 993 q 437 1087 453 1064 q 406 1133 420 1110 q 344 1095 405 1135 q 300 1060 298 1065 l 357 969 q 360 970 357 968 q 400 980 390 989 q 412 949 412 970 q 356 833 412 889 "},"":{"ha":791,"x_min":42,"x_max":755,"o":"m 301 208 l 301 884 l 351 884 q 396 907 365 884 q 442 947 409 918 q 483 976 475 976 l 174 976 q 68 905 155 976 l 42 884 l 169 884 l 169 162 q 150 61 169 104 q 101 0 139 37 l 541 0 q 582 5 562 0 q 755 129 674 29 q 713 105 741 118 q 630 92 685 92 l 248 92 q 301 208 301 133 m 753 479 l 682 592 l 551 500 l 622 387 l 753 479 "},"":{"ha":519,"x_min":-8,"x_max":517,"o":"m 377 84 q 335 80 357 80 q 250 117 267 80 q 242 158 242 134 q 241 210 241 182 l 241 1145 q 185 1117 222 1135 q 115 1081 149 1099 q -8 1000 90 1067 q 5 1001 -3 1000 q 34 1002 12 1002 q 68 990 50 1002 q 110 869 110 962 l 110 144 q 111 90 110 117 q 193 -14 118 -14 q 292 18 244 -14 q 334 49 314 31 q 377 84 355 66 m 517 479 l 446 592 l 315 500 l 386 387 l 517 479 "},"":{"ha":758,"x_min":40,"x_max":753,"o":"m 299 208 l 299 438 q 556 611 445 516 q 492 591 532 597 q 411 591 453 584 q 299 504 350 537 l 299 884 l 349 884 q 393 907 363 884 q 440 947 407 918 q 481 976 473 976 l 172 976 q 66 905 153 976 l 40 884 l 167 884 l 167 423 q 63 357 98 380 l 70 342 q 167 376 113 355 l 167 162 q 148 61 167 104 q 99 0 137 37 l 538 0 q 581 5 559 0 q 753 129 672 29 q 711 105 739 118 q 628 92 683 92 l 245 92 q 299 208 299 133 "},"":{"ha":416,"x_min":-20,"x_max":439,"o":"m -20 357 l -14 342 q 115 397 44 362 l 115 144 q 127 39 115 71 q 152 1 135 16 q 209 -14 168 -14 q 298 18 250 -14 q 340 49 319 31 q 382 84 360 66 q 340 80 362 80 q 255 117 272 80 q 247 158 248 134 q 247 210 247 182 l 247 471 q 439 611 354 538 q 375 591 414 597 q 293 591 335 584 l 247 551 l 247 1145 q 191 1117 227 1135 q 121 1081 155 1099 q -3 1000 95 1067 q 10 1001 3 1000 q 39 1002 18 1002 q 73 990 56 1002 q 115 869 115 962 l 115 448 l -20 357 "},"":{"ha":1237,"x_min":16,"x_max":1219,"o":"m 950 233 q 838 369 895 302 q 653 586 781 435 q 344 930 526 738 q 368 953 350 936 q 403 976 385 970 l 147 976 q 81 936 133 976 q 42 905 61 920 q 16 884 24 890 l 170 884 q 184 437 184 614 q 182 221 184 260 q 115 0 174 84 l 338 0 q 404 39 353 0 q 443 71 425 56 q 470 92 462 86 l 251 92 q 282 139 265 109 q 313 396 313 197 l 313 730 q 859 90 616 393 q 917 -23 909 28 q 975 20 956 4 q 1004 46 991 33 q 1023 70 1018 60 q 1031 104 1027 81 q 1034 124 1033 115 q 1037 140 1036 134 q 1090 668 1090 418 l 1093 819 q 1093 852 1093 836 q 1091 884 1093 868 q 1125 902 1108 888 q 1174 943 1143 916 q 1219 976 1204 971 l 964 976 q 898 936 949 976 q 859 905 878 920 q 832 884 840 890 l 953 884 q 966 575 966 736 q 950 233 966 413 m 612 919 q 711 986 646 937 q 848 1114 777 1035 q 900 1177 880 1149 q 939 1228 920 1204 q 921 1218 929 1223 q 904 1208 913 1213 q 891 1201 895 1204 q 849 1170 887 1198 q 810 1141 811 1142 q 705 1008 753 1063 q 612 927 666 962 l 612 919 "},"":{"ha":775,"x_min":-7,"x_max":781,"o":"m 129 46 q 180 -14 129 -14 q 266 23 212 -14 q 307 56 288 39 q 341 85 327 73 q 311 78 326 78 q 288 84 297 78 q 261 143 261 100 l 261 353 q 263 418 261 382 q 370 564 271 564 q 438 551 410 564 q 517 391 517 512 l 517 137 q 525 40 517 64 q 548 4 532 18 q 605 -10 565 -10 q 697 24 644 -10 q 781 92 720 39 q 729 81 756 81 q 661 117 682 81 q 650 186 650 136 l 650 522 q 604 621 650 580 q 498 659 559 659 q 261 547 388 659 q 252 627 261 606 q 230 654 245 644 q 184 664 215 664 q 113 648 153 664 q 39 591 91 640 q -7 559 10 566 q 59 570 22 570 q 117 543 96 570 q 130 482 130 528 l 129 46 m 368 692 q 466 760 401 711 q 603 887 532 808 q 655 950 635 923 q 694 1002 675 978 q 676 991 684 996 q 659 982 668 987 q 646 974 650 977 q 604 943 642 971 q 566 914 566 916 q 460 781 508 836 q 368 701 421 736 l 368 692 "},"":{"ha":1237,"x_min":16,"x_max":1219,"o":"m 950 233 q 838 369 895 302 q 653 586 781 435 q 344 930 526 738 q 368 953 350 936 q 403 976 385 970 l 147 976 q 81 936 133 976 q 42 905 61 920 q 16 884 24 890 l 170 884 q 184 437 184 614 q 182 221 184 260 q 115 0 174 84 l 338 0 q 404 39 353 0 q 443 71 425 56 q 470 92 462 86 l 251 92 q 282 139 265 109 q 313 396 313 197 l 313 730 q 859 90 616 393 q 917 -23 909 28 q 975 20 956 4 q 1004 46 991 33 q 1023 70 1018 60 q 1031 104 1027 81 q 1034 124 1033 115 q 1037 140 1036 134 q 1090 668 1090 418 l 1093 819 q 1093 852 1093 836 q 1091 884 1093 868 q 1125 902 1108 888 q 1174 943 1143 916 q 1219 976 1204 971 l 964 976 q 898 936 949 976 q 859 905 878 920 q 832 884 840 890 l 953 884 q 966 575 966 736 q 950 233 966 413 m 589 -371 q 620 -351 595 -366 q 640 -336 634 -342 q 689 -257 674 -302 q 694 -176 704 -212 q 669 -117 685 -140 q 639 -71 653 -94 q 610 -88 638 -71 q 584 -105 598 -96 q 558 -123 570 -115 q 539 -138 547 -132 q 533 -145 532 -144 l 590 -235 q 593 -235 590 -236 q 633 -224 623 -216 q 644 -256 644 -234 q 589 -371 644 -315 "},"":{"ha":775,"x_min":-7,"x_max":781,"o":"m 129 46 q 180 -14 129 -14 q 266 23 212 -14 q 307 56 288 39 q 341 85 327 73 q 311 78 326 78 q 288 84 297 78 q 261 143 261 100 l 261 353 q 263 418 261 382 q 370 564 271 564 q 438 551 410 564 q 517 391 517 512 l 517 137 q 525 40 517 64 q 548 4 532 18 q 605 -10 565 -10 q 697 24 644 -10 q 781 92 720 39 q 729 81 756 81 q 661 117 682 81 q 650 186 650 136 l 650 522 q 604 621 650 580 q 498 659 559 659 q 261 547 388 659 q 252 627 261 606 q 230 654 245 644 q 184 664 215 664 q 113 648 153 664 q 39 591 91 640 q -7 559 10 566 q 59 570 22 570 q 117 543 96 570 q 130 482 130 528 l 129 46 m 357 -371 q 389 -351 363 -366 q 409 -336 403 -342 q 458 -257 443 -302 q 463 -176 473 -212 q 438 -117 454 -140 q 408 -71 422 -94 q 379 -88 407 -71 q 353 -105 367 -96 q 327 -123 338 -115 q 308 -138 315 -132 q 302 -145 300 -144 l 359 -235 q 361 -235 359 -236 q 402 -224 391 -216 q 413 -256 413 -234 q 357 -371 413 -315 "},"":{"ha":1237,"x_min":16,"x_max":1219,"o":"m 950 233 q 838 369 895 302 q 653 586 781 435 q 344 930 526 738 q 368 953 350 936 q 403 976 385 970 l 147 976 q 81 936 133 976 q 42 905 61 920 q 16 884 24 890 l 170 884 q 184 437 184 614 q 182 221 184 260 q 115 0 174 84 l 338 0 q 404 39 353 0 q 443 71 425 56 q 470 92 462 86 l 251 92 q 282 139 265 109 q 313 396 313 197 l 313 730 q 859 90 616 393 q 917 -23 909 28 q 975 20 956 4 q 1004 46 991 33 q 1023 70 1018 60 q 1031 104 1027 81 q 1034 124 1033 115 q 1037 140 1036 134 q 1090 668 1090 418 l 1093 819 q 1093 852 1093 836 q 1091 884 1093 868 q 1125 902 1108 888 q 1174 943 1143 916 q 1219 976 1204 971 l 964 976 q 898 936 949 976 q 859 905 878 920 q 832 884 840 890 l 953 884 q 966 575 966 736 q 950 233 966 413 m 394 1130 q 410 1113 397 1126 q 438 1082 422 1100 q 474 1044 455 1064 q 508 1007 492 1024 q 534 979 524 990 q 547 968 545 968 q 576 984 549 968 q 673 1059 603 1000 l 843 1220 q 760 1160 823 1200 q 733 1145 744 1151 q 715 1133 722 1139 l 659 1079 q 592 1153 656 1082 q 523 1223 528 1223 q 394 1130 510 1223 "},"":{"ha":775,"x_min":-7,"x_max":781,"o":"m 129 46 q 180 -14 129 -14 q 266 23 212 -14 q 307 56 288 39 q 341 85 327 73 q 311 78 326 78 q 288 84 297 78 q 261 143 261 100 l 261 353 q 263 418 261 382 q 370 564 271 564 q 438 551 410 564 q 517 391 517 512 l 517 137 q 525 40 517 64 q 548 4 532 18 q 605 -10 565 -10 q 697 24 644 -10 q 781 92 720 39 q 729 81 756 81 q 661 117 682 81 q 650 186 650 136 l 650 522 q 604 621 650 580 q 498 659 559 659 q 261 547 388 659 q 252 627 261 606 q 230 654 245 644 q 184 664 215 664 q 113 648 153 664 q 39 591 91 640 q -7 559 10 566 q 59 570 22 570 q 117 543 96 570 q 130 482 130 528 l 129 46 m 163 875 q 178 858 166 871 q 207 827 191 845 q 242 789 224 809 q 277 752 261 769 q 303 724 292 735 q 316 713 314 713 q 345 729 318 713 q 442 804 372 745 l 612 965 q 528 905 591 945 q 502 890 513 896 q 484 878 491 884 l 427 824 q 360 898 425 827 q 292 968 296 968 q 163 875 279 968 "},"":{"ha":941,"x_min":1,"x_max":947,"o":"m 56 586 q 87 606 62 591 q 108 621 102 614 q 157 700 142 655 q 163 781 172 745 q 137 840 153 817 q 106 886 121 863 q 44 847 105 887 q 1 812 -1 817 l 58 722 q 60 722 58 721 q 100 732 90 741 q 112 701 112 723 q 56 586 112 642 m 295 46 q 347 -14 295 -14 q 432 23 378 -14 q 473 56 454 39 q 507 85 493 73 q 477 78 492 78 q 454 84 463 78 q 427 143 427 100 l 427 353 q 429 418 427 382 q 536 564 437 564 q 604 551 576 564 q 684 391 684 512 l 684 137 q 691 40 684 64 q 714 4 698 18 q 771 -10 731 -10 q 863 24 810 -10 q 947 92 886 39 q 895 81 922 81 q 827 117 848 81 q 817 186 817 136 l 817 522 q 770 621 817 580 q 665 659 725 659 q 427 547 554 659 q 418 627 427 606 q 396 654 412 644 q 350 664 381 664 q 279 648 319 664 q 205 591 257 640 q 159 559 176 566 q 225 570 188 570 q 283 543 262 570 q 296 482 296 528 l 295 46 "},"":{"ha":1237,"x_min":14,"x_max":1217,"o":"m 948 233 q 836 369 893 302 q 657 580 779 435 q 342 930 535 726 q 401 976 385 974 l 145 976 q 14 884 121 976 l 168 884 q 176 189 191 465 q 106 0 170 68 l 336 0 q 468 92 355 0 l 249 92 q 280 139 264 108 q 314 473 314 199 l 314 554 q 311 730 314 604 q 575 429 459 568 q 703 277 639 352 q 912 -8 912 33 q 842 -195 912 -119 q 763 -251 808 -231 q 644 -271 717 -271 q 517 -247 571 -271 q 479 -222 492 -235 q 466 -195 466 -209 q 501 -155 466 -181 q 359 -252 406 -194 q 342 -274 347 -269 q 338 -286 338 -279 q 378 -326 338 -305 q 441 -349 395 -334 q 522 -363 487 -363 q 741 -294 621 -363 q 940 -127 853 -229 q 1047 69 1029 -24 q 1095 648 1095 334 q 1089 884 1095 777 q 1175 945 1109 888 q 1217 976 1208 975 l 962 976 q 830 884 938 976 l 951 884 q 964 575 964 736 q 948 233 964 413 "},"":{"ha":775,"x_min":-7,"x_max":653,"o":"m 181 -14 q 266 23 213 -14 q 308 56 288 39 q 342 85 328 73 q 312 78 326 78 q 288 84 298 78 q 262 143 262 100 l 262 346 q 268 431 262 389 q 278 477 271 454 q 297 518 286 500 q 325 547 309 536 q 380 558 342 558 q 449 542 418 558 q 500 490 479 526 q 521 350 521 453 l 521 -112 q 459 -433 521 -322 q 431 -426 442 -433 q 421 -416 425 -422 q 418 -397 418 -410 q 433 -371 418 -385 q 347 -431 406 -395 q 322 -447 332 -441 q 305 -459 313 -452 q 292 -473 297 -465 q 286 -491 286 -481 q 290 -507 286 -501 q 333 -525 303 -525 q 435 -500 389 -525 q 577 -341 523 -452 q 653 -21 653 -185 l 653 482 q 617 604 653 561 q 570 638 599 626 q 507 650 542 650 q 439 640 472 650 q 262 540 341 612 q 253 620 262 598 q 231 647 246 637 q 185 657 216 657 q 115 642 154 657 q 39 585 94 633 q -7 553 12 560 q 52 564 22 564 q 121 516 103 564 q 130 430 130 494 l 130 46 q 181 -14 130 -14 "},"":{"ha":1191,"x_min":60,"x_max":1135,"o":"m 1135 566 q 998 883 1135 758 q 679 1006 865 1006 q 374 924 517 1006 q 149 708 233 843 q 60 406 60 567 q 186 69 60 193 q 524 -55 311 -55 q 821 39 675 -55 q 946 144 888 83 q 1045 274 1004 204 q 1111 419 1087 343 q 1135 566 1135 496 m 1002 457 q 924 157 1002 264 q 659 35 834 35 q 314 167 439 35 q 223 320 254 231 q 193 509 193 409 q 210 681 193 608 q 541 911 267 911 q 876 784 750 911 q 969 637 937 723 q 1002 457 1002 551 m 906 1145 l 416 1145 q 385 1131 404 1145 q 329 1085 366 1117 q 285 1053 292 1053 l 774 1053 q 819 1076 789 1053 q 845 1098 831 1086 q 878 1127 859 1110 q 906 1145 897 1144 "},"":{"ha":747,"x_min":50,"x_max":699,"o":"m 625 586 q 543 649 591 625 q 442 672 495 672 q 342 655 389 672 q 107 459 193 604 q 50 269 50 363 q 125 75 50 157 q 313 -12 202 -12 q 499 50 407 -12 q 579 118 543 79 q 642 202 615 157 q 684 295 669 247 q 699 395 699 344 q 679 496 699 446 q 643 566 660 547 q 625 586 625 586 m 304 581 q 493 489 420 581 q 566 267 566 397 q 544 148 566 199 q 444 79 513 79 q 250 178 325 79 q 198 278 216 222 q 181 399 181 334 q 205 515 181 464 q 304 581 237 581 m 684 813 l 195 813 q 163 799 182 813 q 107 753 144 785 q 63 720 70 721 l 553 720 q 597 744 567 720 q 623 766 610 754 q 656 795 637 778 q 684 813 675 812 "},"":{"ha":1191,"x_min":60,"x_max":1135,"o":"m 1135 566 q 998 883 1135 758 q 679 1006 865 1006 q 374 924 517 1006 q 149 708 233 843 q 60 406 60 567 q 186 69 60 193 q 524 -55 311 -55 q 821 39 675 -55 q 946 144 888 83 q 1045 274 1004 204 q 1111 419 1087 343 q 1135 566 1135 496 m 1002 457 q 924 157 1002 264 q 659 35 834 35 q 314 167 439 35 q 223 320 254 231 q 193 509 193 409 q 210 681 193 608 q 541 911 267 911 q 876 784 750 911 q 969 637 937 723 q 1002 457 1002 551 m 856 1305 q 830 1286 850 1298 q 786 1262 809 1275 q 744 1236 763 1249 q 722 1207 726 1223 q 704 1169 719 1191 q 683 1147 696 1157 q 645 1138 670 1138 q 591 1154 621 1138 q 467 1305 511 1198 q 431 1283 466 1303 q 400 1264 417 1274 q 369 1245 383 1255 q 345 1227 354 1236 q 335 1215 335 1219 q 338 1207 335 1212 q 431 1086 375 1126 q 484 1058 456 1068 q 543 1048 513 1048 q 626 1064 574 1048 q 743 1132 677 1080 q 856 1305 854 1218 "},"":{"ha":747,"x_min":50,"x_max":699,"o":"m 625 586 q 543 649 591 625 q 442 672 495 672 q 342 655 389 672 q 107 459 193 604 q 50 269 50 363 q 125 75 50 157 q 313 -12 202 -12 q 499 50 407 -12 q 579 118 543 79 q 642 202 615 157 q 684 295 669 247 q 699 395 699 344 q 679 496 699 446 q 643 566 660 547 q 625 586 625 586 m 304 581 q 493 489 420 581 q 566 267 566 397 q 544 148 566 199 q 444 79 513 79 q 250 178 325 79 q 198 278 216 222 q 181 399 181 334 q 205 515 181 464 q 304 581 237 581 m 634 967 q 608 948 629 960 q 564 923 587 937 q 523 897 541 910 q 500 868 504 884 q 482 831 497 852 q 461 809 474 819 q 424 800 448 800 q 370 816 399 800 q 245 967 290 859 q 210 945 244 964 q 178 926 195 936 q 147 907 161 916 q 123 889 132 897 q 113 877 113 880 q 116 869 113 873 q 210 747 153 788 q 262 720 234 730 q 321 709 291 709 q 404 726 352 709 q 522 793 456 742 q 634 967 632 880 "},"":{"ha":1191,"x_min":60,"x_max":1135,"o":"m 1135 566 q 998 883 1135 758 q 679 1006 865 1006 q 374 924 517 1006 q 149 708 233 843 q 60 406 60 567 q 186 69 60 193 q 524 -55 311 -55 q 821 39 675 -55 q 946 144 888 83 q 1045 274 1004 204 q 1111 419 1087 343 q 1135 566 1135 496 m 1002 457 q 924 157 1002 264 q 659 35 834 35 q 314 167 439 35 q 223 320 254 231 q 193 509 193 409 q 210 681 193 608 q 541 911 267 911 q 876 784 750 911 q 969 637 937 723 q 1002 457 1002 551 m 642 1044 q 740 1111 675 1062 q 877 1238 806 1160 q 929 1302 909 1274 q 968 1353 949 1329 q 950 1343 958 1348 q 933 1333 942 1338 q 920 1325 924 1329 q 878 1295 916 1322 q 840 1265 840 1267 q 734 1133 782 1187 q 642 1052 695 1087 l 642 1044 m 458 1044 q 557 1111 492 1062 q 694 1238 623 1160 q 746 1302 726 1274 q 785 1353 766 1329 q 767 1343 775 1348 q 750 1333 759 1338 q 737 1325 741 1329 q 695 1295 733 1322 q 656 1265 657 1267 q 551 1133 599 1187 q 458 1052 512 1087 l 458 1044 "},"":{"ha":747,"x_min":50,"x_max":720,"o":"m 625 586 q 543 649 591 625 q 442 672 495 672 q 342 655 389 672 q 107 459 193 604 q 50 269 50 363 q 125 75 50 157 q 313 -12 202 -12 q 499 50 407 -12 q 579 118 543 79 q 642 202 615 157 q 684 295 669 247 q 699 395 699 344 q 679 496 699 446 q 643 566 660 547 q 625 586 625 586 m 304 581 q 493 489 420 581 q 566 267 566 397 q 544 148 566 199 q 444 79 513 79 q 250 178 325 79 q 198 278 216 222 q 181 399 181 334 q 205 515 181 464 q 304 581 237 581 m 394 701 q 493 768 427 719 q 629 895 558 817 q 682 959 662 931 q 720 1010 702 986 q 703 1000 711 1004 q 686 990 694 995 q 673 982 677 985 q 631 951 669 979 q 592 922 593 924 q 487 789 534 844 q 394 709 448 744 l 394 701 m 211 701 q 310 768 244 719 q 446 895 375 817 q 499 959 479 931 q 537 1010 519 986 q 519 1000 528 1004 q 503 990 511 995 q 490 982 494 985 q 448 951 486 979 q 409 922 410 924 q 304 789 351 844 q 211 709 264 744 l 211 701 "},"":{"ha":1605,"x_min":60,"x_max":1588,"o":"m 935 931 q 669 1006 820 1006 q 374 924 517 1006 q 149 708 233 843 q 60 406 60 567 q 186 69 60 193 q 332 -23 246 9 q 505 -55 418 -55 q 660 -35 593 -55 q 1003 210 860 24 l 1003 162 q 942 0 1003 83 l 1374 0 q 1440 26 1391 0 q 1588 127 1554 87 l 1546 110 q 1466 92 1502 92 l 1088 92 q 1112 118 1103 99 q 1135 241 1135 166 l 1135 463 l 1332 463 q 1402 508 1349 463 q 1439 539 1423 525 q 1463 555 1456 554 l 1135 555 l 1135 884 l 1436 884 q 1467 898 1448 884 q 1523 944 1487 912 q 1568 976 1559 975 l 1008 976 q 935 931 992 976 m 907 463 l 1002 463 l 1002 447 q 924 157 1002 264 q 659 35 835 35 q 314 167 439 35 q 223 320 254 231 q 193 509 193 409 q 210 681 193 608 q 541 911 267 911 q 850 808 726 911 q 997 532 971 707 q 907 463 971 513 "},"":{"ha":1108,"x_min":50,"x_max":1082,"o":"m 713 253 q 838 330 789 296 q 906 381 873 353 q 966 438 940 408 q 1008 499 992 468 q 1025 568 1025 531 q 998 635 1025 606 q 969 656 986 648 q 925 665 951 665 q 864 652 898 665 q 672 513 761 617 q 581 627 639 585 q 514 660 550 648 q 434 672 479 672 q 342 655 389 672 q 107 459 193 604 q 50 269 50 363 q 125 75 50 157 q 208 12 160 35 q 304 -12 256 -12 q 389 -1 351 -12 q 592 134 503 31 q 785 -9 649 -9 q 851 -4 820 -9 q 1082 125 987 22 q 931 82 1003 82 q 713 253 759 82 m 818 337 q 706 286 777 304 q 700 363 700 322 q 707 445 700 404 q 717 490 710 468 q 736 530 724 513 q 764 559 747 548 q 813 570 781 570 q 871 536 845 570 q 889 502 883 521 q 895 454 895 482 q 877 398 895 427 q 838 353 859 369 q 818 337 818 337 m 304 581 q 493 489 420 581 q 566 267 566 397 q 544 148 566 199 q 444 79 513 79 q 250 178 325 79 q 198 278 216 222 q 181 399 181 334 q 205 515 181 464 q 304 581 237 581 "},"":{"ha":972,"x_min":23,"x_max":1017,"o":"m 483 976 l 155 976 q 49 905 136 976 l 23 884 l 170 884 l 170 162 q 115 0 170 60 l 338 0 q 382 23 352 0 q 409 45 395 33 q 442 74 422 57 q 470 92 461 91 l 253 92 q 296 174 287 141 q 301 263 301 197 l 301 400 q 438 367 388 400 q 492 320 465 349 q 557 249 519 292 l 739 49 q 754 31 747 40 q 814 -3 784 -3 q 1017 112 935 -3 q 951 90 983 90 q 917 100 938 90 q 850 163 897 111 l 674 358 q 644 391 659 375 q 540 469 593 448 q 712 587 646 520 q 796 772 796 673 q 483 976 796 976 m 665 673 q 586 526 665 567 q 407 495 528 495 l 301 495 l 301 884 l 385 884 q 574 837 500 884 q 640 772 614 812 q 665 673 665 732 m 403 1010 q 502 1077 436 1028 q 638 1204 567 1126 q 691 1268 671 1240 q 729 1319 711 1295 q 711 1309 720 1314 q 694 1299 703 1304 q 682 1292 686 1295 q 640 1261 677 1289 q 601 1232 602 1233 q 496 1099 543 1154 q 403 1018 456 1053 l 403 1010 "},"":{"ha":600,"x_min":-6,"x_max":658,"o":"m 658 659 q 585 631 612 631 q 558 638 572 631 q 515 660 544 645 q 459 675 486 675 q 354 635 414 675 q 306 599 329 618 q 262 566 282 581 q 249 635 262 612 q 226 656 241 648 q 185 664 212 664 q 115 648 158 664 q 39 591 94 640 q -6 559 12 566 q 52 570 23 570 q 126 528 113 570 q 131 484 132 508 q 130 437 130 460 l 130 46 q 149 4 130 21 q 195 -14 168 -14 q 287 24 248 -14 q 316 56 303 39 q 342 85 329 73 q 313 78 327 78 q 289 84 298 78 q 262 143 262 100 l 262 403 q 281 533 262 483 q 301 569 289 556 q 333 582 313 582 q 410 553 353 582 q 459 538 440 538 q 658 659 576 538 m 254 712 q 353 779 288 730 q 490 907 418 828 q 542 970 522 943 q 581 1021 562 998 q 563 1011 571 1016 q 546 1002 555 1006 q 533 994 537 997 q 491 963 529 991 q 452 934 453 935 q 347 801 395 856 q 254 720 308 755 l 254 712 "},"":{"ha":972,"x_min":23,"x_max":1017,"o":"m 483 976 l 155 976 q 49 905 136 976 l 23 884 l 170 884 l 170 162 q 115 0 170 60 l 338 0 q 382 23 352 0 q 409 45 395 33 q 442 74 422 57 q 470 92 461 91 l 253 92 q 296 174 287 141 q 301 263 301 197 l 301 400 q 438 367 388 400 q 492 320 465 349 q 557 249 519 292 l 739 49 q 754 31 747 40 q 814 -3 784 -3 q 1017 112 935 -3 q 951 90 983 90 q 917 100 938 90 q 850 163 897 111 l 674 358 q 644 391 659 375 q 540 469 593 448 q 712 587 646 520 q 796 772 796 673 q 483 976 796 976 m 665 673 q 586 526 665 567 q 407 495 528 495 l 301 495 l 301 884 l 385 884 q 574 837 500 884 q 640 772 614 812 q 665 673 665 732 m 456 -371 q 487 -351 462 -366 q 507 -336 501 -342 q 556 -257 541 -302 q 562 -176 571 -212 q 536 -117 552 -140 q 506 -71 520 -94 q 477 -88 505 -71 q 451 -105 465 -96 q 425 -123 437 -115 q 406 -138 414 -132 q 400 -145 399 -144 l 457 -235 q 460 -235 457 -236 q 500 -224 490 -216 q 511 -256 511 -234 q 456 -371 511 -315 "},"":{"ha":600,"x_min":-6,"x_max":658,"o":"m 658 659 q 585 631 612 631 q 558 638 572 631 q 515 660 544 645 q 459 675 486 675 q 354 635 414 675 q 306 599 329 618 q 262 566 282 581 q 249 635 262 612 q 226 656 241 648 q 185 664 212 664 q 115 648 158 664 q 39 591 94 640 q -6 559 12 566 q 52 570 23 570 q 126 528 113 570 q 131 484 132 508 q 130 437 130 460 l 130 46 q 149 4 130 21 q 195 -14 168 -14 q 287 24 248 -14 q 316 56 303 39 q 342 85 329 73 q 313 78 327 78 q 289 84 298 78 q 262 143 262 100 l 262 403 q 281 533 262 483 q 301 569 289 556 q 333 582 313 582 q 410 553 353 582 q 459 538 440 538 q 658 659 576 538 m 270 -371 q 301 -351 276 -366 q 321 -336 315 -342 q 370 -257 355 -302 q 376 -176 385 -212 q 350 -117 366 -140 q 320 -71 334 -94 q 292 -88 319 -71 q 265 -105 279 -96 q 239 -123 251 -115 q 220 -138 228 -132 q 214 -145 213 -144 l 271 -235 q 274 -235 271 -236 q 315 -224 304 -216 q 326 -256 326 -234 q 270 -371 326 -315 "},"":{"ha":972,"x_min":23,"x_max":1017,"o":"m 483 976 l 155 976 q 49 905 136 976 l 23 884 l 170 884 l 170 162 q 115 0 170 60 l 338 0 q 382 23 352 0 q 409 45 395 33 q 442 74 422 57 q 470 92 461 91 l 253 92 q 296 174 287 141 q 301 263 301 197 l 301 400 q 438 367 388 400 q 492 320 465 349 q 557 249 519 292 l 739 49 q 754 31 747 40 q 814 -3 784 -3 q 1017 112 935 -3 q 951 90 983 90 q 917 100 938 90 q 850 163 897 111 l 674 358 q 644 391 659 375 q 540 469 593 448 q 712 587 646 520 q 796 772 796 673 q 483 976 796 976 m 665 673 q 586 526 665 567 q 407 495 528 495 l 301 495 l 301 884 l 385 884 q 574 837 500 884 q 640 772 614 812 q 665 673 665 732 m 261 1190 q 277 1173 264 1186 q 306 1142 289 1160 q 341 1104 322 1124 q 375 1067 359 1084 q 401 1039 391 1050 q 414 1028 412 1028 q 443 1044 416 1028 q 541 1118 470 1059 l 710 1280 q 627 1220 690 1260 q 600 1205 611 1211 q 582 1192 589 1199 l 526 1139 q 459 1212 523 1142 q 390 1282 395 1282 q 261 1190 377 1282 "},"":{"ha":600,"x_min":-6,"x_max":658,"o":"m 658 659 q 585 631 612 631 q 558 638 572 631 q 515 660 544 645 q 459 675 486 675 q 354 635 414 675 q 306 599 329 618 q 262 566 282 581 q 249 635 262 612 q 226 656 241 648 q 185 664 212 664 q 115 648 158 664 q 39 591 94 640 q -6 559 12 566 q 52 570 23 570 q 126 528 113 570 q 131 484 132 508 q 130 437 130 460 l 130 46 q 149 4 130 21 q 195 -14 168 -14 q 287 24 248 -14 q 316 56 303 39 q 342 85 329 73 q 313 78 327 78 q 289 84 298 78 q 262 143 262 100 l 262 403 q 281 533 262 483 q 301 569 289 556 q 333 582 313 582 q 410 553 353 582 q 459 538 440 538 q 658 659 576 538 m 138 863 q 153 847 141 860 q 182 815 165 833 q 217 778 199 798 q 252 741 236 758 q 278 713 267 724 q 291 702 289 702 q 320 718 293 702 q 417 792 347 733 l 587 954 q 503 894 566 934 q 477 879 488 884 q 458 866 466 873 l 402 812 q 335 886 399 816 q 267 956 271 956 q 138 863 254 956 "},"":{"ha":785,"x_min":37,"x_max":740,"o":"m 535 819 q 590 851 549 825 q 626 876 608 863 q 659 903 644 890 q 683 929 673 917 q 692 949 692 941 q 682 964 692 958 q 631 983 671 970 q 526 995 591 995 q 349 948 452 995 q 168 831 239 899 q 84 679 84 753 q 167 536 84 590 q 251 495 203 512 q 348 462 298 478 q 446 429 398 446 q 612 233 612 365 q 547 109 612 149 q 480 84 517 92 q 404 77 443 77 q 318 85 366 77 q 266 96 292 89 q 219 113 240 102 q 185 138 198 123 q 172 173 172 153 q 192 216 172 194 q 37 79 37 132 q 84 23 37 47 q 154 -2 104 12 q 263 -16 203 -16 q 467 26 361 -16 q 656 144 585 72 q 740 326 740 228 q 658 483 740 427 q 574 524 621 508 q 477 555 527 541 q 381 585 428 569 q 297 626 334 602 q 238 687 260 650 q 215 786 215 724 q 277 879 215 848 q 336 897 304 892 q 393 902 368 902 q 453 898 418 902 q 489 892 471 896 q 523 883 508 888 q 548 870 538 878 q 558 852 558 863 q 535 819 558 842 m 323 982 q 422 1049 357 1000 q 559 1177 488 1098 q 611 1240 591 1213 q 650 1291 631 1267 q 632 1281 640 1286 q 615 1272 624 1276 q 602 1264 606 1267 q 560 1233 598 1261 q 522 1204 522 1205 q 416 1071 464 1126 q 323 990 377 1025 l 323 982 "},"":{"ha":565,"x_min":34,"x_max":540,"o":"m 347 526 q 394 562 369 546 q 434 587 419 578 q 457 602 449 597 q 473 612 465 606 q 486 625 481 618 q 492 640 492 631 q 468 660 492 648 q 391 671 444 671 q 238 623 339 671 q 125 542 179 593 q 62 429 62 481 q 114 338 62 373 q 167 312 137 323 q 228 291 197 301 q 288 269 258 280 q 341 241 318 258 q 378 202 364 225 q 393 144 393 180 q 374 93 393 108 q 314 77 355 77 q 228 88 273 77 q 183 107 202 95 q 164 136 164 119 q 176 166 164 153 q 140 139 164 152 q 93 113 117 127 q 52 83 69 99 q 34 48 34 67 q 51 16 34 28 q 175 -16 98 -16 q 320 19 239 -16 q 461 110 408 56 q 524 239 524 173 q 472 343 524 305 q 419 372 449 361 q 358 392 389 382 q 298 410 328 401 q 244 434 268 420 q 207 469 221 448 q 193 522 193 490 q 212 568 193 555 q 233 576 220 574 q 268 578 245 578 q 317 573 291 578 q 347 564 334 570 q 360 547 360 557 q 347 526 360 536 m 214 664 q 312 731 247 682 q 449 859 378 780 q 502 922 481 895 q 540 973 522 949 q 522 963 530 968 q 505 954 514 958 q 492 946 496 949 q 450 915 488 943 q 412 886 412 887 q 307 753 354 808 q 214 672 267 707 l 214 664 "}}}
